<svg width="604" height="492" viewBox="0 0 604 492" fill="none" xmlns="http://www.w3.org/2000/svg">
<mask id="mask0_758_2363" style="mask-type:alpha" maskUnits="userSpaceOnUse" x="0" y="0" width="604" height="492">
<rect x="0.645264" width="603.355" height="491.506" rx="12" fill="#F2B3B9"/>
</mask>
<g mask="url(#mask0_758_2363)">
<rect x="268.287" y="156.3" width="34.341" height="23.2632" fill="#E69FA6"/>
<path d="M275.133 43.3149C267.097 32.8826 256.512 38.9681 252.224 43.3149V84.7267H267.908V88.2511H264.031V132.482H287.821H309.672V109.221H301.037V104.64H288.702V109.221H285.53V88.2511H280.067V80.8498C288.949 78.7352 291.991 69.7479 292.403 65.5186C292.121 55.9323 281.594 53.3007 276.367 53.1832C277.353 49.6588 275.955 45.1358 275.133 43.3149Z" fill="#E79FA6"/>
<path d="M251.38 335.993C251.38 343.623 245.195 349.808 237.566 349.808C229.936 349.808 223.751 343.623 223.751 335.993C223.751 328.364 229.936 327.935 237.566 327.935C245.195 327.935 251.38 328.364 251.38 335.993Z" fill="#E69FA6"/>
<rect x="222.216" y="326.016" width="30.6986" height="9.97705" rx="1.10777" fill="#E69FA6"/>
<line x1="238.887" y1="179.814" x2="238.887" y2="266.154" stroke="#E69FA6" stroke-width="1.10777"/>
<path d="M180.773 331.259C180.773 312.821 195.72 297.874 214.158 297.874H262.508C280.946 297.874 295.893 312.821 295.893 331.259V331.259H180.773V331.259Z" fill="#E69FA6"/>
<path d="M217.995 296.469C217.995 292.23 221.431 288.794 225.669 288.794H250.612C254.851 288.794 258.287 292.23 258.287 296.469V298.004H217.995V296.469Z" fill="#E69FA6"/>
<path d="M227.972 263.787C227.972 261.279 230.005 259.247 232.512 259.247H243.862C246.369 259.247 248.401 261.279 248.401 263.787V263.787H227.972V263.787Z" fill="#E69FA6"/>
<path d="M224.902 267.689C224.902 265.569 226.62 263.851 228.74 263.851H247.543C249.662 263.851 251.38 265.569 251.38 267.689V288.794H224.902V267.689Z" fill="#E69FA6"/>
<path d="M221.448 335.993C221.448 343.393 215.45 349.392 208.049 349.392C200.649 349.392 194.651 343.393 194.651 335.993C194.651 334.141 195.026 332.766 195.673 331.737C196.317 330.71 197.255 329.99 198.444 329.486C200.852 328.464 204.216 328.35 208.049 328.35C211.883 328.35 215.247 328.464 217.655 329.486C218.844 329.99 219.782 330.71 220.426 331.737C221.073 332.766 221.448 334.141 221.448 335.993Z" fill="#F0C14B" stroke="#202020" stroke-width="0.83083"/>
<rect x="192.7" y="326.016" width="30.6986" height="9.97705" rx="1.10777" fill="#0B2F74" stroke="#202020" stroke-width="0.83083"/>
<line x1="209.371" y1="179.814" x2="209.371" y2="266.154" stroke="#454545" stroke-width="1.10777"/>
<path d="M151.257 331.259C151.257 312.821 166.204 297.874 184.642 297.874H232.992C251.43 297.874 266.377 312.821 266.377 331.259V331.259H151.257V331.259Z" fill="#0B41AA" stroke="#202020" stroke-width="0.83083"/>
<path d="M188.479 296.469C188.479 292.23 191.916 288.794 196.154 288.794H221.097C225.335 288.794 228.771 292.23 228.771 296.469V298.004H188.479V296.469Z" fill="#E3EBF9" stroke="#202020" stroke-width="0.83083"/>
<path d="M198.457 263.787C198.457 261.279 200.489 259.247 202.997 259.247H214.346C216.854 259.247 218.886 261.279 218.886 263.787V263.787H198.457V263.787Z" fill="#E3EBF9" stroke="#202020" stroke-width="0.83083"/>
<path d="M195.387 267.689C195.387 265.569 197.105 263.851 199.224 263.851H218.027C220.146 263.851 221.864 265.569 221.864 267.689V288.794H195.387V267.689Z" fill="#0B41AA" stroke="#202020" stroke-width="0.83083"/>
<rect x="148.848" y="156.3" width="124.927" height="23.2375" fill="#34A853" stroke="#202020" stroke-width="0.553887"/>
<rect x="136.185" y="132.508" width="124.927" height="23.2375" fill="#E59100" stroke="#202020" stroke-width="0.553887"/>
<path d="M148.955 125.217H157.397C158.727 125.217 159.806 126.296 159.806 127.626V131.954H146.546V127.626C146.546 126.296 147.624 125.217 148.955 125.217Z" fill="#E59100" stroke="#202020" stroke-width="0.553887"/>
<path d="M171.595 125.217H180.037C181.368 125.217 182.446 126.296 182.446 127.626V131.954H169.186V127.626C169.186 126.296 170.264 125.217 171.595 125.217Z" fill="#E59100" stroke="#202020" stroke-width="0.553887"/>
<rect x="214.85" y="84.9254" width="47.4127" height="23.2375" fill="#235BC6" stroke="#202020" stroke-width="0.553887"/>
<path d="M223.399 77.6344H231.841C233.171 77.6344 234.25 78.713 234.25 80.0435V84.3714H220.989V80.0435C220.989 78.713 222.068 77.6344 223.399 77.6344Z" fill="#235BC6" stroke="#202020" stroke-width="0.553887"/>
<path d="M246.039 77.6344H254.481C255.812 77.6344 256.891 78.713 256.891 80.0435V84.3714H243.63V80.0435C243.63 78.713 244.709 77.6344 246.039 77.6344Z" fill="#235BC6" stroke="#202020" stroke-width="0.553887"/>
<rect x="189.139" y="108.717" width="99.2166" height="23.2375" fill="#C72929" stroke="#202020" stroke-width="0.553887"/>
<path d="M199.991 101.426H208.433C209.763 101.426 210.842 102.504 210.842 103.835V108.163H197.582V103.835C197.582 102.504 198.66 101.426 199.991 101.426Z" fill="#C72929" stroke="#202020" stroke-width="0.553887"/>
<path d="M268.679 101.426H277.121C278.452 101.426 279.53 102.504 279.53 103.835V108.163H266.27V103.835C266.27 102.504 267.349 101.426 268.679 101.426Z" fill="#C72929" stroke="#202020" stroke-width="0.553887"/>
<path d="M220.713 53.7579V78.5087V79.468H250.452C261.197 79.468 267.72 70.7701 269.639 66.4211C272.248 55.2161 264.075 47.9891 259.854 47.4263C255.633 46.8635 252.371 47.4263 252.371 47.4263V40.3273C251.297 30.5037 239.644 29.7107 233.952 30.5421C222.286 33.9189 220.265 47.4263 220.713 53.7579Z" fill="#E43E2B" stroke="#202020" stroke-width="1.10777" stroke-linejoin="bevel"/>
<rect x="321.616" y="366.955" width="209.577" height="83.8308" rx="2.79436" fill="#E69FA6"/>
<rect x="310.439" y="445.197" width="250.561" height="14.9032" rx="7.45162" fill="#E69FA6"/>
<rect x="306.625" y="340.483" width="201.982" height="114.22" rx="2.58124" fill="#342323"/>
<rect x="313.078" y="346.936" width="189.076" height="101.959" rx="1.29062" fill="#F7E3E1"/>
<rect x="290" y="451.478" width="235.866" height="8.76281" rx="2.92094" fill="#342323"/>
<line x1="121.455" y1="460.432" x2="484" y2="460.432" stroke="#282828" stroke-width="0.548479"/>
<path d="M336.04 390.534H341.934C343.315 390.534 344.557 390.745 345.661 391.167C346.765 391.589 347.707 392.19 348.486 392.97C349.266 393.733 349.859 394.65 350.265 395.722C350.687 396.794 350.898 397.971 350.898 399.254C350.898 400.553 350.687 401.738 350.265 402.81C349.859 403.882 349.266 404.799 348.486 405.562C347.707 406.325 346.765 406.918 345.661 407.34C344.557 407.762 343.315 407.974 341.934 407.974H336.04V390.534ZM341.788 404.856C342.746 404.856 343.591 404.726 344.321 404.466C345.052 404.19 345.661 403.809 346.148 403.321C346.635 402.834 347.001 402.25 347.244 401.568C347.488 400.869 347.61 400.098 347.61 399.254C347.61 398.409 347.488 397.646 347.244 396.964C347.001 396.266 346.635 395.673 346.148 395.186C345.661 394.699 345.052 394.326 344.321 394.066C343.591 393.79 342.746 393.652 341.788 393.652H339.328V404.856H341.788Z" fill="#C72929"/>
<path d="M356.835 393.652V397.695H363.825V400.813H356.835V404.856H364.605V407.974H353.547V390.534H364.605V393.652H356.835Z" fill="#C72929"/>
<path d="M366.167 390.534H369.723L373.328 401.032L373.961 403.273H374.156L374.838 401.032L378.589 390.534H382.145L375.788 407.974H372.329L366.167 390.534Z" fill="#C72929"/>
<path d="M386.361 408.363C384.98 408.363 383.771 407.99 382.731 407.243C381.708 406.496 380.994 405.465 380.588 404.15L383.608 402.907C383.819 403.687 384.16 404.271 384.631 404.661C385.102 405.051 385.679 405.246 386.361 405.246C387.124 405.246 387.716 405.002 388.139 404.515C388.561 404.028 388.772 403.346 388.772 402.469V390.534H392.06V402.445C392.06 403.419 391.906 404.279 391.597 405.026C391.305 405.757 390.899 406.374 390.379 406.878C389.876 407.365 389.275 407.73 388.577 407.974C387.895 408.233 387.156 408.363 386.361 408.363Z" fill="#C72929"/>
<path d="M400.12 390.534H403.871L410.423 407.974H406.794L405.357 403.809H398.635L397.198 407.974H393.568L400.12 390.534ZM404.285 400.788L402.727 396.428L402.093 394.309H401.898L401.265 396.428L399.706 400.788H404.285Z" fill="#C72929"/>
<path d="M412.465 390.534H415.705L421.039 399.765H421.234L426.568 390.534H429.832V407.974H426.568V399.376L426.763 396.453H426.568L422.135 404.271H420.162L415.705 396.453H415.51L415.705 399.376V407.974H412.465V390.534Z" fill="#C72929"/>
<path d="M438.683 408.363C437.937 408.363 437.222 408.258 436.54 408.047C435.858 407.836 435.233 407.519 434.665 407.097C434.096 406.675 433.601 406.163 433.179 405.562C432.757 404.945 432.424 404.231 432.18 403.419L435.273 402.201C435.501 403.078 435.899 403.809 436.467 404.393C437.035 404.961 437.782 405.246 438.708 405.246C439.049 405.246 439.374 405.205 439.682 405.124C440.007 405.026 440.291 404.896 440.535 404.734C440.794 404.555 440.997 404.336 441.144 404.076C441.29 403.817 441.363 403.516 441.363 403.175C441.363 402.85 441.306 402.558 441.192 402.298C441.079 402.039 440.884 401.795 440.608 401.568C440.348 401.34 439.999 401.121 439.56 400.91C439.138 400.699 438.61 400.48 437.977 400.252L436.905 399.863C436.435 399.7 435.955 399.481 435.468 399.205C434.997 398.929 434.567 398.596 434.177 398.206C433.788 397.817 433.463 397.362 433.203 396.842C432.96 396.307 432.838 395.706 432.838 395.04C432.838 394.358 432.968 393.725 433.227 393.14C433.504 392.539 433.885 392.02 434.372 391.581C434.876 391.127 435.468 390.778 436.15 390.534C436.849 390.274 437.62 390.144 438.464 390.144C439.341 390.144 440.096 390.266 440.729 390.51C441.379 390.737 441.923 391.037 442.361 391.411C442.816 391.768 443.181 392.166 443.457 392.604C443.733 393.043 443.936 393.457 444.066 393.847L441.168 395.064C441.006 394.577 440.705 394.139 440.267 393.749C439.844 393.359 439.26 393.165 438.513 393.165C437.799 393.165 437.206 393.335 436.735 393.676C436.264 394.001 436.029 394.431 436.029 394.967C436.029 395.487 436.256 395.933 436.711 396.307C437.165 396.664 437.888 397.013 438.878 397.354L439.974 397.719C440.673 397.963 441.306 398.247 441.874 398.572C442.459 398.88 442.954 399.254 443.36 399.692C443.782 400.131 444.099 400.634 444.31 401.202C444.537 401.754 444.651 402.396 444.651 403.127C444.651 404.036 444.464 404.823 444.091 405.489C443.733 406.139 443.271 406.675 442.702 407.097C442.134 407.519 441.493 407.836 440.778 408.047C440.064 408.258 439.365 408.363 438.683 408.363Z" fill="#C72929"/>
<path d="M448.594 393.675L449.836 391.776C449.479 391.646 449.17 391.418 448.91 391.094C448.667 390.753 448.545 390.347 448.545 389.876C448.545 389.291 448.748 388.796 449.154 388.39C449.576 387.968 450.079 387.757 450.664 387.757C451.248 387.757 451.744 387.968 452.15 388.39C452.556 388.796 452.759 389.291 452.759 389.876C452.759 390.184 452.702 390.46 452.588 390.704C452.491 390.947 452.345 391.207 452.15 391.483L450.031 394.625L448.594 393.675Z" fill="#C72929"/>
<path d="M455.362 407.974V405.075C456.32 404.134 457.205 403.257 458.017 402.445C458.358 402.104 458.707 401.755 459.064 401.397C459.421 401.04 459.754 400.707 460.063 400.399C460.371 400.09 460.647 399.814 460.891 399.571C461.135 399.311 461.321 399.108 461.451 398.962C461.711 398.653 461.938 398.377 462.133 398.134C462.344 397.89 462.507 397.655 462.62 397.427C462.75 397.184 462.848 396.948 462.913 396.721C462.978 396.477 463.01 396.218 463.01 395.941C463.01 395.406 462.799 394.943 462.377 394.553C461.955 394.147 461.378 393.944 460.647 393.944C459.917 393.944 459.348 394.155 458.942 394.577C458.536 394.983 458.26 395.446 458.114 395.966L455.216 394.772C455.346 394.334 455.557 393.887 455.849 393.433C456.141 392.962 456.515 392.548 456.97 392.19C457.424 391.817 457.96 391.517 458.577 391.289C459.21 391.046 459.917 390.924 460.696 390.924C461.541 390.924 462.304 391.054 462.986 391.314C463.668 391.557 464.244 391.898 464.715 392.337C465.186 392.775 465.551 393.295 465.811 393.895C466.071 394.48 466.201 395.113 466.201 395.795C466.201 396.835 465.941 397.793 465.421 398.669C464.918 399.53 464.301 400.334 463.57 401.081L461.476 403.176C460.923 403.728 460.298 404.345 459.6 405.027L459.697 405.173H466.444V407.974H455.362Z" fill="#C72929"/>
<path d="M468.635 407.974V405.075C469.593 404.134 470.478 403.257 471.29 402.445C471.631 402.104 471.98 401.755 472.337 401.397C472.694 401.04 473.027 400.707 473.336 400.399C473.644 400.09 473.92 399.814 474.164 399.571C474.407 399.311 474.594 399.108 474.724 398.962C474.984 398.653 475.211 398.377 475.406 398.134C475.617 397.89 475.779 397.655 475.893 397.427C476.023 397.184 476.12 396.948 476.185 396.721C476.25 396.477 476.283 396.218 476.283 395.941C476.283 395.406 476.072 394.943 475.649 394.553C475.227 394.147 474.651 393.944 473.92 393.944C473.189 393.944 472.621 394.155 472.215 394.577C471.809 394.983 471.533 395.446 471.387 395.966L468.488 394.772C468.618 394.334 468.829 393.887 469.122 393.433C469.414 392.962 469.788 392.548 470.242 392.19C470.697 391.817 471.233 391.517 471.85 391.289C472.483 391.046 473.189 390.924 473.969 390.924C474.813 390.924 475.576 391.054 476.258 391.314C476.94 391.557 477.517 391.898 477.988 392.337C478.459 392.775 478.824 393.295 479.084 393.895C479.344 394.48 479.474 395.113 479.474 395.795C479.474 396.835 479.214 397.793 478.694 398.669C478.191 399.53 477.574 400.334 476.843 401.081L474.748 403.176C474.196 403.728 473.571 404.345 472.873 405.027L472.97 405.173H479.717V407.974H468.635Z" fill="#C72929"/>
<path d="M500.765 344.06C504.664 342.851 507.737 339.778 508.947 335.879C510.156 339.778 513.229 342.851 517.128 344.06C513.229 345.269 510.156 348.343 508.947 352.242C507.737 348.343 504.664 345.269 500.765 344.06Z" fill="white" stroke="#1E1E1E" stroke-width="1.0979"/>
<path d="M267.424 331.52C269.969 330.624 271.984 328.609 272.88 326.064C273.776 328.609 275.79 330.624 278.335 331.52C275.79 332.416 273.776 334.431 272.88 336.975C271.984 334.431 269.969 332.416 267.424 331.52Z" fill="white" stroke="#1E1E1E"/>
<path d="M255.238 298.76C259.845 297.47 263.47 293.845 264.76 289.238C266.05 293.845 269.675 297.47 274.282 298.76C269.675 300.05 266.05 303.675 264.76 308.282C263.47 303.675 259.845 300.05 255.238 298.76Z" fill="white" stroke="#1E1E1E"/>
</g>
</svg>
