<svg width="604" height="492" viewBox="0 0 604 492" fill="none" xmlns="http://www.w3.org/2000/svg">
<mask id="mask0_209_72" style="mask-type:alpha" maskUnits="userSpaceOnUse" x="0" y="0" width="604" height="492">
<rect x="0.645325" width="603.355" height="491.506" rx="7.30233" fill="#F2B3B9"/>
</mask>
<g mask="url(#mask0_209_72)">
<rect x="268.287" y="156.3" width="34.341" height="23.2632" fill="#E69FA6"/>
<path d="M275.133 43.3149C267.097 32.8826 256.512 38.9681 252.224 43.3149V84.7267H267.908V88.2511H264.031V132.482H287.821H309.672V109.221H301.037V104.64H288.702V109.221H285.53V88.2511H280.067V80.8498C288.949 78.7352 291.991 69.7479 292.402 65.5186C292.12 55.9323 281.594 53.3007 276.366 53.1832C277.353 49.6588 275.955 45.1358 275.133 43.3149Z" fill="#E79FA6"/>
<path d="M251.38 335.993C251.38 343.623 245.195 349.808 237.566 349.808C229.936 349.808 223.751 343.623 223.751 335.993C223.751 328.364 229.936 327.935 237.566 327.935C245.195 327.935 251.38 328.364 251.38 335.993Z" fill="#E69FA6"/>
<rect x="222.216" y="326.016" width="30.6986" height="9.97705" rx="1.10777" fill="#E69FA6"/>
<line x1="238.887" y1="179.814" x2="238.887" y2="266.154" stroke="#E69FA6" stroke-width="1.10777"/>
<path d="M180.773 331.259C180.773 312.821 195.72 297.874 214.158 297.874H262.508C280.946 297.874 295.893 312.821 295.893 331.259H180.773Z" fill="#E69FA6"/>
<path d="M217.995 296.469C217.995 292.23 221.431 288.794 225.669 288.794H250.612C254.85 288.794 258.287 292.23 258.287 296.469V298.004H217.995V296.469Z" fill="#E69FA6"/>
<path d="M227.972 263.787C227.972 261.279 230.004 259.247 232.512 259.247H243.861C246.369 259.247 248.401 261.279 248.401 263.787H227.972Z" fill="#E69FA6"/>
<path d="M224.902 267.689C224.902 265.569 226.62 263.851 228.74 263.851H247.543C249.662 263.851 251.38 265.569 251.38 267.689V288.794H224.902V267.689Z" fill="#E69FA6"/>
<path d="M221.448 335.993C221.448 343.393 215.449 349.392 208.049 349.392C200.649 349.392 194.65 343.393 194.65 335.993C194.65 334.141 195.026 332.766 195.672 331.737C196.317 330.71 197.255 329.99 198.443 329.486C200.852 328.464 204.216 328.35 208.049 328.35C211.883 328.35 215.247 328.464 217.655 329.486C218.844 329.99 219.781 330.71 220.426 331.737C221.073 332.766 221.448 334.141 221.448 335.993Z" fill="#F0C14B" stroke="#202020" stroke-width="0.83083"/>
<rect x="192.7" y="326.016" width="30.6986" height="9.97705" rx="1.10777" fill="#0B2F74" stroke="#202020" stroke-width="0.83083"/>
<line x1="209.371" y1="179.814" x2="209.371" y2="266.154" stroke="#454545" stroke-width="1.10777"/>
<path d="M151.257 331.259C151.257 312.821 166.204 297.874 184.642 297.874H232.992C251.43 297.874 266.377 312.821 266.377 331.259H151.257Z" fill="#0B41AA" stroke="#202020" stroke-width="0.83083"/>
<path d="M188.479 296.469C188.479 292.23 191.915 288.794 196.154 288.794H221.097C225.335 288.794 228.771 292.23 228.771 296.469V298.004H188.479V296.469Z" fill="#E3EBF9" stroke="#202020" stroke-width="0.83083"/>
<path d="M198.457 263.787C198.457 261.279 200.489 259.247 202.996 259.247H214.346C216.853 259.247 218.886 261.279 218.886 263.787H198.457Z" fill="#E3EBF9" stroke="#202020" stroke-width="0.83083"/>
<path d="M195.386 267.689C195.386 265.569 197.105 263.851 199.224 263.851H218.027C220.146 263.851 221.864 265.569 221.864 267.689V288.794H195.386V267.689Z" fill="#0B41AA" stroke="#202020" stroke-width="0.83083"/>
<rect x="148.848" y="156.3" width="124.927" height="23.2375" fill="#34A853" stroke="#202020" stroke-width="0.553887"/>
<rect x="136.184" y="132.508" width="124.927" height="23.2375" fill="#E59100" stroke="#202020" stroke-width="0.553887"/>
<path d="M146.545 127.627C146.545 126.296 147.624 125.217 148.955 125.217H157.397C158.727 125.217 159.806 126.296 159.806 127.627V131.954H146.545V127.627Z" fill="#E59100" stroke="#202020" stroke-width="0.553887"/>
<path d="M169.186 127.627C169.186 126.296 170.264 125.217 171.595 125.217H180.037C181.367 125.217 182.446 126.296 182.446 127.627V131.954H169.186V127.627Z" fill="#E59100" stroke="#202020" stroke-width="0.553887"/>
<rect x="214.85" y="84.9254" width="47.4127" height="23.2375" fill="#235BC6" stroke="#202020" stroke-width="0.553887"/>
<path d="M220.989 80.0435C220.989 78.713 222.068 77.6344 223.399 77.6344H231.841C233.171 77.6344 234.25 78.713 234.25 80.0435V84.3714H220.989V80.0435Z" fill="#235BC6" stroke="#202020" stroke-width="0.553887"/>
<path d="M243.63 80.0435C243.63 78.713 244.709 77.6344 246.039 77.6344H254.481C255.812 77.6344 256.89 78.713 256.89 80.0435V84.3714H243.63V80.0435Z" fill="#235BC6" stroke="#202020" stroke-width="0.553887"/>
<rect x="189.139" y="108.717" width="99.2166" height="23.2375" fill="#C72929" stroke="#202020" stroke-width="0.553887"/>
<path d="M197.581 103.835C197.581 102.505 198.66 101.426 199.991 101.426H208.433C209.763 101.426 210.842 102.505 210.842 103.835V108.163H197.581V103.835Z" fill="#C72929" stroke="#202020" stroke-width="0.553887"/>
<path d="M266.27 103.835C266.27 102.505 267.349 101.426 268.679 101.426H277.121C278.452 101.426 279.53 102.505 279.53 103.835V108.163H266.27V103.835Z" fill="#C72929" stroke="#202020" stroke-width="0.553887"/>
<path d="M220.713 53.7579V78.5087V79.468H250.452C261.197 79.468 267.72 70.7701 269.639 66.4211C272.248 55.2161 264.075 47.9891 259.854 47.4263C255.633 46.8635 252.371 47.4263 252.371 47.4263V40.3273C251.296 30.5037 239.644 29.7107 233.952 30.5421C222.286 33.9189 220.265 47.4263 220.713 53.7579Z" fill="#E43E2B" stroke="#202020" stroke-width="1.10777" stroke-linejoin="bevel"/>
<rect x="261.007" y="395.01" width="146.55" height="58.6198" rx="1.95399" fill="#E69FA6"/>
<rect x="253.191" y="449.721" width="175.208" height="10.4213" rx="5.21065" fill="#E69FA6"/>
<rect x="250.524" y="376.499" width="141.239" height="79.8699" rx="1.80497" fill="#342323"/>
<rect x="255.036" y="381.011" width="132.214" height="71.2963" rx="0.902485" fill="#F7E3E1"/>
<rect x="238.899" y="454.114" width="164.932" height="6.12751" rx="2.0425" fill="#342323"/>
<line x1="121.455" y1="460.432" x2="483.999" y2="460.432" stroke="#282828" stroke-width="0.548479"/>
<path d="M271.093 411.498H275.215C276.18 411.498 277.049 411.645 277.821 411.941C278.593 412.236 279.252 412.656 279.797 413.201C280.342 413.735 280.756 414.376 281.04 415.126C281.335 415.875 281.483 416.698 281.483 417.595C281.483 418.504 281.335 419.332 281.04 420.082C280.756 420.831 280.342 421.473 279.797 422.007C279.252 422.54 278.593 422.955 277.821 423.25C277.049 423.545 276.18 423.693 275.215 423.693H271.093V411.498ZM275.113 421.513C275.783 421.513 276.373 421.422 276.884 421.24C277.395 421.047 277.821 420.78 278.161 420.44C278.502 420.099 278.758 419.69 278.928 419.213C279.098 418.725 279.183 418.186 279.183 417.595C279.183 417.005 279.098 416.471 278.928 415.994C278.758 415.506 278.502 415.092 278.161 414.751C277.821 414.41 277.395 414.149 276.884 413.967C276.373 413.774 275.783 413.678 275.113 413.678H273.393V421.513H275.113Z" fill="#C72929"/>
<path d="M285.634 413.678V416.505H290.522V418.685H285.634V421.513H291.067V423.693H283.335V411.498H291.067V413.678H285.634Z" fill="#C72929"/>
<path d="M292.16 411.498H294.646L297.167 418.839L297.61 420.406H297.746L298.223 418.839L300.846 411.498H303.333L298.887 423.693H296.469L292.16 411.498Z" fill="#C72929"/>
<path d="M306.281 423.965C305.315 423.965 304.469 423.704 303.743 423.182C303.027 422.659 302.528 421.938 302.244 421.019L304.356 420.15C304.504 420.695 304.742 421.104 305.071 421.376C305.401 421.649 305.804 421.785 306.281 421.785C306.814 421.785 307.229 421.615 307.524 421.274C307.819 420.933 307.967 420.457 307.967 419.843V411.498H310.266V419.826C310.266 420.508 310.158 421.109 309.942 421.632C309.738 422.143 309.454 422.574 309.091 422.926C308.739 423.267 308.319 423.522 307.83 423.693C307.354 423.874 306.837 423.965 306.281 423.965Z" fill="#C72929"/>
<path d="M315.902 411.498H318.525L323.107 423.693H320.569L319.564 420.78H314.863L313.858 423.693H311.321L315.902 411.498ZM318.815 418.668L317.725 415.62L317.282 414.138H317.146L316.703 415.62L315.613 418.668H318.815Z" fill="#C72929"/>
<path d="M324.534 411.498H326.8L330.53 417.953H330.666L334.396 411.498H336.678V423.693H334.396V417.68L334.532 415.637H334.396L331.296 421.104H329.917L326.8 415.637H326.663L326.8 417.68V423.693H324.534V411.498Z" fill="#C72929"/>
<path d="M342.868 423.965C342.346 423.965 341.846 423.891 341.369 423.744C340.892 423.596 340.455 423.375 340.058 423.08C339.66 422.784 339.314 422.427 339.019 422.007C338.724 421.575 338.491 421.075 338.32 420.508L340.484 419.656C340.643 420.269 340.921 420.78 341.318 421.189C341.716 421.586 342.238 421.785 342.885 421.785C343.124 421.785 343.351 421.757 343.566 421.7C343.793 421.632 343.992 421.541 344.162 421.427C344.344 421.303 344.486 421.149 344.588 420.968C344.69 420.786 344.742 420.576 344.742 420.337C344.742 420.11 344.702 419.906 344.622 419.724C344.543 419.543 344.407 419.372 344.214 419.213C344.032 419.054 343.788 418.901 343.481 418.753C343.186 418.606 342.817 418.453 342.374 418.294L341.625 418.021C341.295 417.907 340.96 417.754 340.62 417.561C340.291 417.368 339.99 417.135 339.717 416.863C339.445 416.59 339.218 416.272 339.036 415.909C338.866 415.534 338.78 415.114 338.78 414.649C338.78 414.172 338.871 413.729 339.053 413.32C339.246 412.9 339.513 412.537 339.853 412.23C340.205 411.912 340.62 411.668 341.097 411.498C341.585 411.316 342.124 411.225 342.715 411.225C343.328 411.225 343.856 411.31 344.299 411.481C344.753 411.64 345.133 411.85 345.44 412.111C345.758 412.361 346.013 412.639 346.206 412.945C346.399 413.252 346.541 413.542 346.632 413.814L344.605 414.666C344.492 414.325 344.282 414.019 343.975 413.746C343.68 413.473 343.271 413.337 342.749 413.337C342.249 413.337 341.835 413.456 341.505 413.695C341.176 413.922 341.012 414.223 341.012 414.598C341.012 414.961 341.171 415.273 341.488 415.534C341.806 415.784 342.312 416.028 343.004 416.267L343.771 416.522C344.259 416.693 344.702 416.891 345.099 417.118C345.508 417.334 345.854 417.595 346.138 417.902C346.433 418.208 346.655 418.56 346.802 418.958C346.961 419.344 347.041 419.792 347.041 420.303C347.041 420.939 346.91 421.49 346.649 421.955C346.399 422.41 346.076 422.784 345.678 423.08C345.281 423.375 344.832 423.596 344.333 423.744C343.833 423.891 343.345 423.965 342.868 423.965Z" fill="#C72929"/>
<path d="M349.798 413.694L350.666 412.366C350.417 412.275 350.201 412.116 350.019 411.889C349.849 411.651 349.764 411.367 349.764 411.037C349.764 410.629 349.906 410.282 350.19 409.998C350.485 409.703 350.837 409.556 351.246 409.556C351.654 409.556 352.001 409.703 352.284 409.998C352.568 410.282 352.71 410.629 352.71 411.037C352.71 411.253 352.671 411.446 352.591 411.617C352.523 411.787 352.421 411.969 352.284 412.162L350.803 414.359L349.798 413.694Z" fill="#C72929"/>
<path d="M354.531 423.693V421.666C355.201 421.007 355.819 420.394 356.387 419.827C356.626 419.588 356.87 419.344 357.12 419.094C357.369 418.844 357.602 418.612 357.818 418.396C358.034 418.18 358.227 417.987 358.397 417.817C358.567 417.635 358.698 417.493 358.789 417.391C358.97 417.175 359.129 416.982 359.266 416.812C359.413 416.642 359.527 416.477 359.606 416.318C359.697 416.148 359.765 415.983 359.811 415.824C359.856 415.654 359.879 415.472 359.879 415.279C359.879 414.904 359.731 414.581 359.436 414.308C359.141 414.024 358.738 413.882 358.227 413.882C357.716 413.882 357.318 414.03 357.034 414.325C356.751 414.609 356.557 414.933 356.455 415.296L354.428 414.462C354.519 414.155 354.667 413.843 354.871 413.525C355.076 413.195 355.337 412.906 355.655 412.656C355.973 412.395 356.347 412.185 356.779 412.026C357.222 411.856 357.716 411.77 358.261 411.77C358.851 411.77 359.385 411.861 359.862 412.043C360.339 412.213 360.742 412.452 361.071 412.758C361.4 413.065 361.656 413.428 361.837 413.848C362.019 414.257 362.11 414.7 362.11 415.177C362.11 415.904 361.928 416.573 361.565 417.187C361.213 417.788 360.781 418.35 360.27 418.873L358.806 420.338C358.42 420.724 357.982 421.155 357.494 421.632L357.562 421.734H362.28V423.693H354.531Z" fill="#C72929"/>
<path d="M363.812 423.693V421.666C364.482 421.007 365.101 420.394 365.668 419.827C365.907 419.588 366.151 419.344 366.401 419.094C366.65 418.844 366.883 418.612 367.099 418.396C367.315 418.18 367.508 417.987 367.678 417.817C367.848 417.635 367.979 417.493 368.07 417.391C368.251 417.175 368.41 416.982 368.547 416.812C368.694 416.642 368.808 416.477 368.887 416.318C368.978 416.148 369.046 415.983 369.092 415.824C369.137 415.654 369.16 415.472 369.16 415.279C369.16 414.904 369.012 414.581 368.717 414.308C368.422 414.024 368.019 413.882 367.508 413.882C366.997 413.882 366.599 414.03 366.315 414.325C366.032 414.609 365.839 414.933 365.736 415.296L363.71 414.462C363.8 414.155 363.948 413.843 364.152 413.525C364.357 413.195 364.618 412.906 364.936 412.656C365.254 412.395 365.629 412.185 366.06 412.026C366.503 411.856 366.997 411.77 367.542 411.77C368.132 411.77 368.666 411.861 369.143 412.043C369.62 412.213 370.023 412.452 370.352 412.758C370.681 413.065 370.937 413.428 371.119 413.848C371.3 414.257 371.391 414.7 371.391 415.177C371.391 415.904 371.209 416.573 370.846 417.187C370.494 417.788 370.063 418.35 369.552 418.873L368.087 420.338C367.701 420.724 367.264 421.155 366.775 421.632L366.843 421.734H371.561V423.693H363.812Z" fill="#C72929"/>
</g>
</svg>
