<svg width="86" height="24" viewBox="0 0 86 24" fill="none" xmlns="http://www.w3.org/2000/svg">
<path d="M2 10.5C1.17157 10.5 0.5 11.1716 0.5 12C0.5 12.8284 1.17157 13.5 2 13.5L2 10.5ZM85.0607 13.0607C85.6464 12.4749 85.6464 11.5251 85.0607 10.9393L75.5147 1.39339C74.9289 0.807605 73.9792 0.807605 73.3934 1.39339C72.8076 1.97918 72.8076 2.92893 73.3934 3.51471L81.8787 12L73.3934 20.4853C72.8076 21.0711 72.8076 22.0208 73.3934 22.6066C73.9792 23.1924 74.9289 23.1924 75.5147 22.6066L85.0607 13.0607ZM2 13.5L84 13.5L84 10.5L2 10.5L2 13.5Z" fill="white"/>
</svg>
