<svg width="638" height="183" viewBox="0 0 638 183" fill="none" xmlns="http://www.w3.org/2000/svg">
<path d="M10.0373 47.5107H43.7738C51.6736 47.5107 58.7833 48.7189 65.1031 51.1353C71.4229 53.5517 76.8133 56.9904 81.2743 61.4514C85.7353 65.8195 89.1276 71.0705 91.451 77.2044C93.8674 83.3383 95.0756 90.0763 95.0756 97.4184C95.0756 104.853 93.8674 111.638 91.451 117.772C89.1276 123.906 85.7353 129.157 81.2743 133.525C76.8133 137.893 71.4229 141.285 65.1031 143.702C58.7833 146.118 51.6736 147.326 43.7738 147.326H10.0373V47.5107ZM42.9374 129.482C48.4207 129.482 53.2535 128.739 57.4357 127.252C61.6179 125.672 65.1031 123.488 67.8912 120.699C70.6794 117.911 72.7705 114.566 74.1646 110.662C75.5586 106.666 76.2557 102.251 76.2557 97.4184C76.2557 92.5857 75.5586 88.2176 74.1646 84.3142C72.7705 80.3178 70.6794 76.9256 67.8912 74.1375C65.1031 71.3493 61.6179 69.2117 57.4357 67.7247C53.2535 66.1448 48.4207 65.3548 42.9374 65.3548H28.8573V129.482H42.9374Z" fill="#FC5251"/>
<path d="M152.476 130.876C149.317 136.452 145.041 140.96 139.651 144.399C134.354 147.837 127.848 149.557 120.134 149.557C114.93 149.557 110.097 148.674 105.636 146.908C101.268 145.049 97.4572 142.493 94.2043 139.241C90.9515 135.988 88.3957 132.177 86.5369 127.809C84.7711 123.348 83.8882 118.469 83.8882 113.171C83.8882 108.246 84.7711 103.599 86.5369 99.2307C88.3028 94.7697 90.7656 90.9128 93.9255 87.6599C97.0854 84.3142 100.803 81.6654 105.078 79.7137C109.446 77.762 114.232 76.7862 119.437 76.7862C124.92 76.7862 129.8 77.7156 134.075 79.5743C138.35 81.3402 141.928 83.8495 144.809 87.1023C147.69 90.2622 149.874 94.0262 151.361 98.3943C152.848 102.762 153.592 107.502 153.592 112.614C153.592 113.264 153.592 113.822 153.592 114.287C153.499 114.844 153.452 115.355 153.452 115.82C153.359 116.285 153.313 116.796 153.313 117.354H101.872C102.243 120.142 102.987 122.558 104.102 124.603C105.31 126.555 106.751 128.227 108.424 129.621C110.19 130.923 112.095 131.898 114.14 132.549C116.184 133.107 118.275 133.385 120.413 133.385C124.595 133.385 128.034 132.456 130.729 130.597C133.517 128.646 135.701 126.229 137.281 123.348L152.476 130.876ZM135.887 104.389C135.794 103.181 135.376 101.833 134.632 100.346C133.982 98.859 132.959 97.4649 131.565 96.1638C130.264 94.8626 128.591 93.7939 126.547 92.9574C124.595 92.121 122.225 91.7028 119.437 91.7028C115.534 91.7028 112.095 92.818 109.121 95.0485C106.147 97.279 104.056 100.392 102.848 104.389H135.887Z" fill="#5A90FC"/>
<path d="M137.792 79.0167H158.564L175.571 122.512H176.547L193.694 79.0167H214.326L184.911 147.326H166.928L137.792 79.0167Z" fill="#FBC235"/>
<path d="M211.57 149.26C203.67 149.26 196.746 147.123 190.798 142.848C184.943 138.572 180.854 132.671 178.531 125.143L195.817 118.033C197.025 122.494 198.977 125.84 201.672 128.07C204.367 130.301 207.667 131.416 211.57 131.416C215.938 131.416 219.33 130.022 221.747 127.234C224.163 124.446 225.371 120.542 225.371 115.524V47.2143H244.191V115.384C244.191 120.961 243.308 125.886 241.543 130.162C239.87 134.344 237.546 137.875 234.572 140.756C231.691 143.545 228.252 145.636 224.256 147.03C220.353 148.517 216.124 149.26 211.57 149.26Z" fill="#39AA68"/>
<path d="M282.206 139.781H281.091C278.953 142.383 276.351 144.613 273.284 146.472C270.31 148.331 266.453 149.26 261.713 149.26C258.181 149.26 254.836 148.656 251.676 147.448C248.609 146.333 245.914 144.753 243.59 142.708C241.267 140.664 239.454 138.201 238.153 135.32C236.852 132.439 236.202 129.279 236.202 125.84C236.202 122.308 236.899 119.148 238.293 116.36C239.687 113.479 241.638 111.016 244.148 108.972C246.657 106.927 249.585 105.394 252.93 104.371C256.369 103.256 260.087 102.698 264.083 102.698C268.544 102.698 272.215 103.07 275.096 103.814C277.977 104.464 280.347 105.161 282.206 105.905V103.814C282.206 100.189 280.765 97.215 277.884 94.8915C275.003 92.4752 271.425 91.267 267.15 91.267C260.83 91.267 255.486 93.9157 251.118 99.2132L237.874 90.1517C245.124 81.0438 255.021 76.4898 267.568 76.4898C278.163 76.4898 286.249 78.9991 291.825 84.0178C297.401 88.9435 300.189 96.2856 300.189 106.044V147.03H282.206V139.781ZM282.206 119.288C280.068 118.265 277.838 117.475 275.514 116.918C273.284 116.267 270.821 115.942 268.126 115.942C263.758 115.942 260.365 116.918 257.949 118.87C255.626 120.728 254.464 123.052 254.464 125.84C254.464 128.628 255.579 130.859 257.81 132.531C260.133 134.204 262.782 135.041 265.756 135.041C268.172 135.041 270.403 134.623 272.447 133.786C274.492 132.857 276.211 131.695 277.605 130.301C279.092 128.814 280.208 127.141 280.951 125.282C281.788 123.331 282.206 121.332 282.206 119.288Z" fill="#568EF4"/>
<path d="M294.495 78.7203H311.643V87.6424H312.758C314.895 84.2966 317.776 81.6014 321.401 79.5568C325.119 77.5121 329.208 76.4898 333.669 76.4898C338.873 76.4898 343.241 77.698 346.773 80.1144C350.305 82.5308 352.814 85.5048 354.301 89.0364C356.439 85.5977 359.459 82.6702 363.363 80.2538C367.266 77.7445 372.006 76.4898 377.582 76.4898C381.764 76.4898 385.389 77.1868 388.456 78.5809C391.523 79.882 394.032 81.7408 395.984 84.1572C398.028 86.5736 399.562 89.5011 400.584 92.9398C401.607 96.2856 402.118 99.9567 402.118 103.953V147.03H383.855V107.299C383.855 98.005 380.045 93.3581 372.424 93.3581C370.008 93.3581 367.87 93.9157 366.011 95.0309C364.153 96.0533 362.573 97.4938 361.271 99.3526C360.063 101.118 359.087 103.256 358.344 105.765C357.693 108.275 357.368 110.97 357.368 113.851V147.03H339.106V107.299C339.106 98.005 335.109 93.3581 327.117 93.3581C324.793 93.3581 322.749 93.9157 320.983 95.0309C319.217 96.0533 317.73 97.4938 316.522 99.3526C315.314 101.118 314.384 103.256 313.734 105.765C313.083 108.275 312.758 110.97 312.758 113.851V147.03H294.495V78.7203Z" fill="#F45658"/>
<path d="M423.988 149.26C419.527 149.26 415.531 148.703 411.999 147.587C408.561 146.472 405.54 145.032 402.938 143.266C400.429 141.407 398.291 139.316 396.525 136.992C394.759 134.576 393.412 132.16 392.482 129.743L408.793 122.773C410.373 126.305 412.464 128.953 415.066 130.719C417.761 132.392 420.735 133.228 423.988 133.228C427.334 133.228 429.983 132.624 431.935 131.416C433.886 130.208 434.862 128.767 434.862 127.095C434.862 125.236 434.026 123.749 432.353 122.634C430.773 121.425 427.985 120.357 423.988 119.427L414.369 117.336C412.232 116.871 410.001 116.128 407.678 115.106C405.447 114.083 403.403 112.782 401.544 111.202C399.685 109.622 398.152 107.717 396.943 105.486C395.735 103.256 395.131 100.654 395.131 97.6797C395.131 94.3339 395.828 91.3599 397.222 88.7576C398.709 86.1554 400.707 83.9713 403.217 82.2055C405.726 80.3467 408.654 78.9527 411.999 78.0233C415.438 77.001 419.109 76.4898 423.012 76.4898C429.518 76.4898 435.327 77.7909 440.438 80.3932C445.55 82.9025 449.314 86.9453 451.73 92.5216L435.977 98.9343C434.676 96.2391 432.771 94.2874 430.262 93.0793C427.752 91.8711 425.243 91.267 422.734 91.267C420.131 91.267 417.854 91.8246 415.903 92.9398C413.951 93.9622 412.975 95.3098 412.975 96.9826C412.975 98.5626 413.765 99.8173 415.345 100.747C417.018 101.676 419.248 102.512 422.037 103.256L432.492 105.765C439.462 107.438 444.621 110.133 447.966 113.851C451.405 117.475 453.124 121.797 453.124 126.816C453.124 129.79 452.427 132.624 451.033 135.32C449.639 138.015 447.641 140.431 445.039 142.569C442.529 144.613 439.462 146.24 435.838 147.448C432.306 148.656 428.356 149.26 423.988 149.26Z" fill="#F9C531"/>
<path d="M460.043 65.8299L467.153 54.9562C465.108 54.2127 463.343 52.9116 461.856 51.0528C460.462 49.1011 459.765 46.7776 459.765 44.0824C459.765 40.7367 460.926 37.9021 463.25 35.5786C465.666 33.1622 468.547 31.954 471.893 31.954C475.239 31.954 478.073 33.1622 480.397 35.5786C482.72 37.9021 483.882 40.7367 483.882 44.0824C483.882 45.8483 483.557 47.4282 482.906 48.8223C482.348 50.2164 481.512 51.7034 480.397 53.2833L468.268 71.2668L460.043 65.8299Z" fill="#39AA68"/>
<path d="M498.779 147.667V131.077C504.263 125.687 509.328 120.668 513.975 116.021C515.926 114.069 517.925 112.071 519.969 110.027C522.014 107.982 523.919 106.077 525.685 104.311C527.451 102.545 529.031 100.965 530.425 99.5711C531.819 98.0841 532.888 96.9223 533.631 96.0859C535.118 94.3201 536.419 92.7401 537.535 91.3461C538.743 89.952 539.672 88.6044 540.323 87.3032C541.066 85.9092 541.624 84.5616 541.996 83.2604C542.367 81.8664 542.553 80.3794 542.553 78.7994C542.553 75.7325 541.345 73.0837 538.929 70.8532C536.512 68.5298 533.213 67.368 529.031 67.368C524.849 67.368 521.596 68.5762 519.272 70.9926C516.949 73.3161 515.369 75.9648 514.532 78.9388L497.943 72.1079C498.686 69.5985 499.895 67.0428 501.568 64.4405C503.24 61.7453 505.378 59.3754 507.98 57.3307C510.583 55.1932 513.649 53.4738 517.181 52.1727C520.806 50.7786 524.849 50.0816 529.31 50.0816C534.142 50.0816 538.51 50.8251 542.414 52.3121C546.317 53.7061 549.617 55.6578 552.312 58.1672C555.007 60.6765 557.098 63.6505 558.585 67.0892C560.072 70.435 560.816 74.0596 560.816 77.963C560.816 83.911 559.329 89.3944 556.355 94.413C553.473 99.3387 549.942 103.939 545.76 108.214L533.771 120.203C530.611 123.363 527.033 126.895 523.036 130.798L523.594 131.635H562.21V147.667H498.779ZM567.078 147.667V131.077C572.561 125.687 577.626 120.668 582.273 116.021C584.225 114.069 586.223 112.071 588.268 110.027C590.312 107.982 592.218 106.077 593.984 104.311C595.749 102.545 597.329 100.965 598.723 99.5711C600.117 98.0841 601.186 96.9223 601.93 96.0859C603.417 94.3201 604.718 92.7401 605.833 91.3461C607.041 89.952 607.971 88.6044 608.621 87.3032C609.365 85.9092 609.922 84.5616 610.294 83.2604C610.666 81.8664 610.852 80.3794 610.852 78.7994C610.852 75.7325 609.644 73.0837 607.227 70.8532C604.811 68.5298 601.512 67.368 597.329 67.368C593.147 67.368 589.894 68.5762 587.571 70.9926C585.247 73.3161 583.667 75.9648 582.831 78.9388L566.242 72.1079C566.985 69.5985 568.193 67.0428 569.866 64.4405C571.539 61.7453 573.677 59.3754 576.279 57.3307C578.881 55.1932 581.948 53.4738 585.48 52.1727C589.104 50.7786 593.147 50.0816 597.608 50.0816C602.441 50.0816 606.809 50.8251 610.712 52.3121C614.616 53.7061 617.915 55.6578 620.61 58.1672C623.305 60.6765 625.397 63.6505 626.884 67.0892C628.371 70.435 629.114 74.0596 629.114 77.963C629.114 83.911 627.627 89.3944 624.653 94.413C621.772 99.3387 618.24 103.939 614.058 108.214L602.069 120.203C598.909 123.363 595.331 126.895 591.335 130.798L591.892 131.635H630.508V147.667H567.078Z" fill="#568EF4"/>
</svg>
