<svg width="212" height="212" viewBox="0 0 212 212" fill="none" xmlns="http://www.w3.org/2000/svg">
<ellipse cx="105.655" cy="105.736" rx="105.655" ry="105.736" fill="white"/>
<path d="M43.746 78.5938H45.204C50.2659 78.7039 55.2452 80.7412 58.8216 84.3478C57.5011 85.6968 56.1531 86.9908 54.8601 88.3398C52.8518 86.5228 50.431 85.1187 47.79 84.6231C43.8835 83.7972 39.6745 84.5405 36.4008 86.7706C32.8245 89.1107 30.4036 93.0752 29.8809 97.3151C29.3032 101.5 30.4861 105.905 33.2096 109.154C35.8231 112.32 39.812 114.302 43.9386 114.44C47.79 114.66 51.8065 113.476 54.6125 110.778C56.8133 108.878 57.8312 105.987 58.1613 103.179C53.5946 103.179 49.0279 103.207 44.4613 103.179V97.5078H63.6908C64.6812 103.592 63.2507 110.447 58.629 114.797C55.5478 117.881 51.2838 119.698 46.9372 120.056C42.7281 120.469 38.3815 119.67 34.6401 117.633C30.156 115.238 26.5797 111.191 24.819 106.428C23.1684 102.05 23.1409 97.0948 24.6815 92.6898C26.0845 88.6702 28.7805 85.1187 32.2467 82.6409C35.5755 80.1906 39.6195 78.8415 43.746 78.5938Z" fill="#3780FF"/>
<path d="M154.062 80.0254H159.95V119.34C157.996 119.34 156.016 119.368 154.062 119.313C154.09 106.235 154.062 93.1303 154.062 80.0254Z" fill="#38B137"/>
<path d="M76.7846 93.6524C80.416 92.9641 84.3499 93.735 87.3485 95.91C90.0721 97.8372 91.9703 100.866 92.548 104.169C93.2907 107.996 92.3554 112.181 89.8795 115.209C87.211 118.596 82.8369 120.413 78.5728 120.138C74.6664 119.917 70.87 117.963 68.5591 114.769C65.9456 111.245 65.3129 106.399 66.7434 102.27C68.174 97.8372 72.218 94.4508 76.7846 93.6524ZM77.61 98.8834C76.1244 99.2688 74.7489 100.122 73.7585 101.334C71.09 104.527 71.2551 109.731 74.1987 112.704C75.8768 114.411 78.4077 115.209 80.7461 114.741C82.9194 114.356 84.8176 112.897 85.863 110.97C87.6787 107.693 87.156 103.178 84.3775 100.618C82.5893 98.966 79.9758 98.2777 77.61 98.8834Z" fill="#FA3913"/>
<path d="M105.946 93.6535C110.1 92.8551 114.639 94.0114 117.748 96.9297C122.81 101.472 123.36 109.98 119.041 115.211C116.427 118.514 112.191 120.331 108.009 120.139C104.02 120.028 100.086 118.046 97.7204 114.77C95.0519 111.163 94.4742 106.208 95.9872 101.995C97.5003 97.7006 101.462 94.4244 105.946 93.6535ZM106.771 98.8844C105.286 99.2699 103.91 100.123 102.92 101.307C100.279 104.446 100.389 109.567 103.222 112.567C104.901 114.357 107.514 115.238 109.935 114.742C112.081 114.33 114.006 112.898 115.052 110.971C116.84 107.667 116.317 103.152 113.511 100.591C111.723 98.9395 109.11 98.2787 106.771 98.8844Z" fill="#FCBD06"/>
<path d="M130.679 95.2511C133.842 93.2689 138.051 92.7183 141.462 94.4252C142.535 94.8932 143.416 95.6917 144.269 96.4901C144.296 95.7467 144.269 94.9758 144.296 94.205C146.139 94.2325 147.982 94.205 149.853 94.2325V118.515C149.826 122.177 148.89 126.059 146.249 128.729C143.361 131.675 138.932 132.584 134.943 131.978C130.679 131.345 126.965 128.234 125.314 124.297C126.965 123.498 128.698 122.865 130.403 122.122C131.366 124.379 133.319 126.306 135.768 126.747C138.216 127.187 141.05 126.582 142.645 124.544C144.351 122.452 144.351 119.589 144.269 117.028C143.003 118.267 141.545 119.369 139.784 119.782C135.96 120.855 131.751 119.534 128.808 116.946C125.837 114.358 124.076 110.366 124.241 106.401C124.324 101.914 126.855 97.5913 130.679 95.2511ZM136.373 98.7752C134.695 99.0505 133.127 99.9865 132.054 101.281C129.468 104.364 129.468 109.292 132.082 112.321C133.567 114.11 135.96 115.101 138.271 114.853C140.445 114.633 142.453 113.257 143.526 111.357C145.341 108.136 145.039 103.758 142.59 100.95C141.077 99.2157 138.656 98.3622 136.373 98.7752Z" fill="#3780FF"/>
<path d="M167.019 96.6549C170.32 93.5713 175.409 92.5252 179.646 94.1495C183.662 95.6637 186.221 99.4906 187.514 103.428C181.544 105.905 175.602 108.356 169.632 110.833C170.458 112.403 171.723 113.834 173.429 114.413C175.822 115.266 178.683 114.963 180.691 113.366C181.489 112.761 182.122 111.962 182.727 111.191C184.24 112.21 185.753 113.201 187.266 114.22C185.12 117.441 181.517 119.699 177.638 120.056C173.346 120.58 168.779 118.928 166.001 115.569C161.434 110.283 161.874 101.418 167.019 96.6549ZM169.962 101.748C169.027 103.097 168.642 104.749 168.669 106.373C172.658 104.722 176.647 103.07 180.636 101.39C179.976 99.8485 178.38 98.9124 176.757 98.6646C174.144 98.1966 171.42 99.6007 169.962 101.748Z" fill="#FA3913"/>
</svg>
