<svg width="704" height="795" viewBox="0 0 704 795" fill="none" xmlns="http://www.w3.org/2000/svg">
<g filter="url(#filter0_f_758_4262)">
<rect x="40" y="40" width="624" height="715" rx="8" fill="#AAAAAA" fill-opacity="0.1"/>
</g>
<rect x="40" y="2" width="624" height="727" rx="12" fill="#D1FFDE"/>
<line x1="278.494" y1="401.298" x2="296.715" y2="486.853" stroke="#A8F3BD" stroke-width="1.18827"/>
<line y1="-0.594133" x2="87.4737" y2="-0.594133" transform="matrix(-0.208292 0.978067 0.978067 0.208292 247.812 401.421)" stroke="#A8F3BD" stroke-width="1.18827"/>
<path d="M443.778 234.241C445.574 233.883 447.147 235.483 446.759 237.272L433.968 296.29C433.567 298.141 431.354 298.919 429.883 297.725L374.008 252.396C372.336 251.04 373.001 248.35 375.112 247.93L443.778 234.241Z" fill="#A8F3BD"/>
<rect x="248.822" y="392.592" width="54.3918" height="23.3834" rx="3.55834" fill="#A8F3BD"/>
<path d="M441.744 393.648C443.539 394.006 445.112 392.406 444.725 390.617L431.934 331.6C431.532 329.748 429.32 328.971 427.848 330.164L371.973 375.494C370.302 376.85 370.967 379.539 373.077 379.96L441.744 393.648Z" fill="#A8F3BD"/>
<ellipse cx="278.051" cy="314.054" rx="160.38" ry="84.1293" fill="#A8F3BD"/>
<ellipse cx="278.051" cy="314.054" rx="160.38" ry="58.7126" fill="#A8F3BD"/>
<path d="M375.199 317.801C371.827 316.429 371.818 311.658 375.185 310.273L428.41 288.384C429.532 287.923 430.802 287.987 431.872 288.558L472.408 310.208C475.269 311.736 475.278 315.833 472.424 317.374L431.87 339.264C430.801 339.841 429.53 339.91 428.405 339.452L375.199 317.801Z" fill="#A8F3BD"/>
<path d="M129.871 312.021C129.871 323.953 127.026 337.438 123.517 337.438C120.975 334.134 117.162 323.953 117.162 312.021C117.162 300.09 122.5 291.942 123.517 290.417C127.026 290.417 129.871 300.09 129.871 312.021Z" fill="#A8F3BD"/>
<line x1="282.455" y1="401.298" x2="300.675" y2="486.853" stroke="#1E1E1E" stroke-width="1.18827"/>
<line y1="-0.594133" x2="87.4737" y2="-0.594133" transform="matrix(-0.208292 0.978067 0.978067 0.208292 251.772 401.421)" stroke="#1E1E1E" stroke-width="1.18827"/>
<path d="M431.259 227.096C432.494 226.85 433.578 227.951 433.311 229.182L420.52 288.2C420.244 289.475 418.72 290.01 417.708 289.188L361.832 243.859C360.682 242.926 361.14 241.074 362.592 240.785L431.259 227.096Z" fill="#235BC6" stroke="#1E1E1E" stroke-width="1.58435"/>
<rect x="236.94" y="385.462" width="52.8074" height="21.799" rx="2.76616" fill="#235BC6" stroke="#1E1E1E" stroke-width="1.58435"/>
<path d="M429.223 384.95C430.459 385.197 431.542 384.095 431.275 382.864L418.484 323.846C418.208 322.572 416.685 322.037 415.672 322.858L359.797 368.187C358.646 369.121 359.104 370.972 360.557 371.262L429.223 384.95Z" fill="#235BC6" stroke="#1E1E1E" stroke-width="1.58435"/>
<path d="M424.964 306.133C424.964 328.923 407.34 349.746 378.414 364.92C349.526 380.073 309.563 389.47 265.377 389.47C221.191 389.47 181.228 380.073 152.339 364.92C123.414 349.746 105.79 328.923 105.79 306.133C105.79 283.343 123.414 262.519 152.339 247.346C181.228 232.192 221.191 222.796 265.377 222.796C309.563 222.796 349.526 232.192 378.414 247.346C407.34 262.519 424.964 283.343 424.964 306.133Z" fill="#F5F5F7" stroke="#1E1E1E" stroke-width="1.58435"/>
<path d="M424.964 306.133C424.964 313.923 420.654 321.446 412.635 328.387C404.618 335.326 392.971 341.611 378.51 346.905C349.595 357.49 309.596 364.053 265.377 364.053C221.157 364.053 181.159 357.49 152.244 346.905C137.783 341.611 126.136 335.326 118.119 328.387C110.1 321.446 105.79 313.923 105.79 306.133C105.79 298.342 110.1 290.819 118.119 283.878C126.136 276.939 137.783 270.654 152.244 265.36C181.159 254.775 221.157 248.212 265.377 248.212C309.596 248.212 349.595 254.775 378.51 265.36C392.971 270.654 404.618 276.939 412.635 283.878C420.654 290.819 424.964 298.342 424.964 306.133Z" fill="#F5F5F7" stroke="#1E1E1E" stroke-width="1.58435"/>
<path d="M362.823 309.145C360.108 308.041 360.101 304.199 362.812 303.084L416.037 281.195C416.94 280.823 417.963 280.875 418.825 281.335L459.361 302.985C461.664 304.215 461.671 307.515 459.374 308.755L418.819 330.645C417.959 331.11 416.935 331.165 416.03 330.797L362.823 309.145Z" fill="#235BC6" stroke="#1E1E1E" stroke-width="1.58435"/>
<path d="M116.404 304.099C116.404 310.012 115.698 316.304 114.564 321.1C113.996 323.503 113.33 325.489 112.614 326.855C112.255 327.539 111.904 328.029 111.578 328.338C111.428 328.48 111.296 328.573 111.18 328.632C110.041 326.968 108.633 323.883 107.474 319.825C106.221 315.438 105.28 309.984 105.28 304.099C105.28 293.243 109.789 285.582 111.226 283.354C111.642 283.495 112.131 283.877 112.665 284.645C113.357 285.64 114.012 287.132 114.575 289.046C115.698 292.865 116.404 298.187 116.404 304.099Z" fill="#235BC6" stroke="#1E1E1E" stroke-width="1.58435"/>
<path d="M151.114 292H161.372C163.774 292 165.935 292.367 167.857 293.102C169.779 293.837 171.418 294.882 172.774 296.239C174.13 297.567 175.162 299.163 175.868 301.028C176.603 302.893 176.97 304.942 176.97 307.175C176.97 309.435 176.603 311.498 175.868 313.363C175.162 315.228 174.13 316.825 172.774 318.153C171.418 319.481 169.779 320.512 167.857 321.247C165.935 321.982 163.774 322.349 161.372 322.349H151.114V292ZM161.117 316.924C162.785 316.924 164.254 316.698 165.526 316.245C166.797 315.765 167.857 315.101 168.705 314.253C169.552 313.405 170.188 312.388 170.612 311.201C171.036 309.986 171.248 308.644 171.248 307.175C171.248 305.705 171.036 304.377 170.612 303.19C170.188 301.975 169.552 300.944 168.705 300.096C167.857 299.248 166.797 298.598 165.526 298.146C164.254 297.666 162.785 297.426 161.117 297.426H156.836V316.924H161.117Z" fill="#FC5251"/>
<path d="M194.423 317.347C193.462 319.043 192.162 320.413 190.523 321.459C188.913 322.505 186.935 323.027 184.589 323.027C183.007 323.027 181.537 322.759 180.181 322.222C178.853 321.657 177.694 320.88 176.705 319.891C175.716 318.902 174.939 317.743 174.374 316.415C173.837 315.059 173.569 313.575 173.569 311.964C173.569 310.467 173.837 309.054 174.374 307.726C174.911 306.369 175.66 305.197 176.621 304.207C177.581 303.19 178.712 302.385 180.011 301.791C181.34 301.198 182.795 300.901 184.377 300.901C186.045 300.901 187.528 301.184 188.828 301.749C190.128 302.286 191.216 303.049 192.092 304.038C192.968 304.999 193.632 306.143 194.084 307.471C194.536 308.799 194.762 310.241 194.762 311.795C194.762 311.993 194.762 312.162 194.762 312.303C194.734 312.473 194.72 312.628 194.72 312.77C194.692 312.911 194.677 313.066 194.677 313.236H179.037C179.15 314.084 179.376 314.818 179.715 315.44C180.082 316.033 180.52 316.542 181.029 316.966C181.566 317.362 182.145 317.658 182.767 317.856C183.388 318.026 184.024 318.11 184.674 318.11C185.946 318.11 186.991 317.828 187.811 317.263C188.658 316.669 189.323 315.935 189.803 315.059L194.423 317.347ZM189.379 309.294C189.351 308.927 189.224 308.517 188.998 308.065C188.8 307.613 188.489 307.189 188.065 306.793C187.669 306.397 187.161 306.072 186.539 305.818C185.946 305.564 185.225 305.437 184.377 305.437C183.191 305.437 182.145 305.776 181.241 306.454C180.336 307.132 179.701 308.079 179.333 309.294H189.379Z" fill="#5A90FC"/>
<path d="M189.958 301.579H196.274L201.445 314.804H201.742L206.955 301.579H213.229L204.285 322.349H198.817L189.958 301.579Z" fill="#FBC235"/>
<path d="M212.391 322.937C209.989 322.937 207.884 322.287 206.075 320.987C204.295 319.687 203.052 317.893 202.345 315.604L207.601 313.442C207.969 314.799 208.562 315.816 209.382 316.494C210.201 317.172 211.204 317.511 212.391 317.511C213.719 317.511 214.751 317.088 215.485 316.24C216.22 315.392 216.587 314.205 216.587 312.679V291.91H222.31V312.637C222.31 314.332 222.041 315.83 221.504 317.13C220.996 318.402 220.289 319.475 219.385 320.351C218.509 321.199 217.463 321.835 216.248 322.259C215.061 322.711 213.776 322.937 212.391 322.937Z" fill="#39AA68"/>
<path d="M233.868 320.055H233.529C232.879 320.846 232.088 321.524 231.155 322.089C230.251 322.654 229.078 322.937 227.637 322.937C226.563 322.937 225.546 322.753 224.585 322.386C223.653 322.047 222.833 321.566 222.127 320.945C221.42 320.323 220.869 319.574 220.474 318.698C220.078 317.822 219.88 316.862 219.88 315.816C219.88 314.742 220.092 313.781 220.516 312.934C220.94 312.058 221.533 311.309 222.296 310.687C223.059 310.065 223.949 309.599 224.967 309.288C226.012 308.949 227.143 308.78 228.358 308.78C229.714 308.78 230.83 308.893 231.706 309.119C232.582 309.317 233.303 309.529 233.868 309.755V309.119C233.868 308.017 233.43 307.112 232.554 306.406C231.678 305.671 230.59 305.304 229.29 305.304C227.369 305.304 225.744 306.109 224.416 307.72L220.389 304.965C222.593 302.196 225.603 300.811 229.417 300.811C232.639 300.811 235.097 301.574 236.793 303.1C238.488 304.598 239.336 306.83 239.336 309.797V322.259H233.868V320.055ZM233.868 313.824C233.218 313.513 232.54 313.273 231.833 313.103C231.155 312.905 230.406 312.806 229.587 312.806C228.259 312.806 227.227 313.103 226.493 313.697C225.786 314.262 225.433 314.968 225.433 315.816C225.433 316.664 225.772 317.342 226.45 317.851C227.157 318.359 227.962 318.614 228.866 318.614C229.601 318.614 230.279 318.486 230.901 318.232C231.523 317.949 232.045 317.596 232.469 317.172C232.921 316.72 233.26 316.212 233.487 315.646C233.741 315.053 233.868 314.445 233.868 313.824Z" fill="#568EF4"/>
<path d="M237.605 301.489H242.818V304.202H243.157C243.807 303.185 244.683 302.365 245.785 301.743C246.916 301.122 248.159 300.811 249.515 300.811C251.098 300.811 252.426 301.178 253.5 301.913C254.574 302.648 255.337 303.552 255.789 304.626C256.439 303.58 257.357 302.69 258.544 301.955C259.731 301.192 261.172 300.811 262.867 300.811C264.139 300.811 265.241 301.023 266.174 301.447C267.106 301.842 267.869 302.408 268.462 303.142C269.084 303.877 269.55 304.767 269.861 305.813C270.172 306.83 270.327 307.946 270.327 309.161V322.259H264.775V310.178C264.775 307.353 263.616 305.94 261.299 305.94C260.564 305.94 259.914 306.109 259.349 306.448C258.784 306.759 258.304 307.197 257.908 307.762C257.541 308.299 257.244 308.949 257.018 309.712C256.82 310.475 256.721 311.295 256.721 312.171V322.259H251.169V310.178C251.169 307.353 249.953 305.94 247.523 305.94C246.817 305.94 246.195 306.109 245.658 306.448C245.121 306.759 244.669 307.197 244.302 307.762C243.934 308.299 243.652 308.949 243.454 309.712C243.256 310.475 243.157 311.295 243.157 312.171V322.259H237.605V301.489Z" fill="#F45658"/>
<path d="M276.977 322.937C275.621 322.937 274.406 322.767 273.332 322.428C272.286 322.089 271.368 321.651 270.577 321.114C269.814 320.549 269.164 319.913 268.627 319.207C268.09 318.472 267.68 317.738 267.398 317.003L272.357 314.883C272.837 315.957 273.473 316.763 274.264 317.3C275.084 317.808 275.988 318.062 276.977 318.062C277.995 318.062 278.8 317.879 279.393 317.511C279.987 317.144 280.283 316.706 280.283 316.197C280.283 315.632 280.029 315.18 279.52 314.841C279.04 314.474 278.192 314.149 276.977 313.866L274.053 313.23C273.403 313.089 272.724 312.863 272.018 312.552C271.34 312.241 270.718 311.846 270.153 311.365C269.588 310.885 269.122 310.306 268.754 309.627C268.387 308.949 268.203 308.158 268.203 307.254C268.203 306.236 268.415 305.332 268.839 304.541C269.291 303.75 269.899 303.086 270.662 302.549C271.425 301.984 272.315 301.56 273.332 301.277C274.378 300.966 275.494 300.811 276.681 300.811C278.659 300.811 280.425 301.207 281.979 301.998C283.533 302.761 284.678 303.99 285.412 305.685L280.623 307.635C280.227 306.816 279.648 306.222 278.885 305.855C278.122 305.488 277.359 305.304 276.596 305.304C275.805 305.304 275.112 305.474 274.519 305.813C273.925 306.123 273.629 306.533 273.629 307.042C273.629 307.522 273.869 307.904 274.349 308.186C274.858 308.469 275.536 308.723 276.384 308.949L279.563 309.712C281.682 310.221 283.251 311.04 284.268 312.171C285.313 313.273 285.836 314.587 285.836 316.113C285.836 317.017 285.624 317.879 285.2 318.698C284.776 319.518 284.169 320.252 283.378 320.902C282.615 321.524 281.682 322.019 280.58 322.386C279.506 322.753 278.305 322.937 276.977 322.937Z" fill="#F9C531"/>
<path d="M287.938 297.57L290.1 294.263C289.478 294.037 288.941 293.642 288.489 293.077C288.065 292.483 287.854 291.777 287.854 290.957C287.854 289.94 288.207 289.078 288.913 288.372C289.648 287.637 290.524 287.27 291.541 287.27C292.559 287.27 293.42 287.637 294.127 288.372C294.833 289.078 295.187 289.94 295.187 290.957C295.187 291.494 295.088 291.975 294.89 292.398C294.72 292.822 294.466 293.274 294.127 293.755L290.439 299.223L287.938 297.57Z" fill="#39AA68"/>
<path d="M299.717 322.452V317.408C301.384 315.769 302.925 314.243 304.337 312.83C304.931 312.237 305.538 311.629 306.16 311.008C306.782 310.386 307.361 309.807 307.898 309.27C308.435 308.733 308.915 308.252 309.339 307.829C309.763 307.376 310.088 307.023 310.314 306.769C310.766 306.232 311.162 305.752 311.501 305.328C311.868 304.904 312.151 304.494 312.349 304.099C312.575 303.675 312.744 303.265 312.857 302.869C312.97 302.445 313.027 301.993 313.027 301.513C313.027 300.58 312.659 299.775 311.925 299.097C311.19 298.39 310.187 298.037 308.915 298.037C307.644 298.037 306.655 298.405 305.948 299.139C305.242 299.846 304.761 300.651 304.507 301.555L299.463 299.478C299.689 298.715 300.056 297.938 300.565 297.147C301.074 296.328 301.724 295.607 302.515 294.985C303.306 294.335 304.239 293.813 305.312 293.417C306.414 292.993 307.644 292.781 309 292.781C310.469 292.781 311.798 293.007 312.984 293.459C314.171 293.883 315.174 294.477 315.994 295.24C316.813 296.003 317.449 296.907 317.901 297.952C318.353 298.97 318.579 300.072 318.579 301.259C318.579 303.067 318.127 304.734 317.223 306.26C316.347 307.758 315.273 309.157 314.002 310.457L310.356 314.102C309.396 315.063 308.308 316.136 307.093 317.323L307.262 317.578H319.003V322.452H299.717ZM320.484 322.452V317.408C322.151 315.769 323.691 314.243 325.104 312.83C325.697 312.237 326.305 311.629 326.926 311.008C327.548 310.386 328.127 309.807 328.664 309.27C329.201 308.733 329.682 308.252 330.105 307.829C330.529 307.376 330.854 307.023 331.08 306.769C331.532 306.232 331.928 305.752 332.267 305.328C332.635 304.904 332.917 304.494 333.115 304.099C333.341 303.675 333.511 303.265 333.624 302.869C333.737 302.445 333.793 301.993 333.793 301.513C333.793 300.58 333.426 299.775 332.691 299.097C331.956 298.39 330.953 298.037 329.682 298.037C328.41 298.037 327.421 298.405 326.714 299.139C326.008 299.846 325.528 300.651 325.273 301.555L320.229 299.478C320.455 298.715 320.823 297.938 321.331 297.147C321.84 296.328 322.49 295.607 323.281 294.985C324.072 294.335 325.005 293.813 326.079 293.417C327.181 292.993 328.41 292.781 329.766 292.781C331.236 292.781 332.564 293.007 333.751 293.459C334.938 293.883 335.941 294.477 336.76 295.24C337.58 296.003 338.216 296.907 338.668 297.952C339.12 298.97 339.346 300.072 339.346 301.259C339.346 303.067 338.894 304.734 337.989 306.26C337.113 307.758 336.04 309.157 334.768 310.457L331.123 314.102C330.162 315.063 329.074 316.136 327.859 317.323L328.028 317.578H339.77V322.452H320.484Z" fill="#568EF4"/>
<path d="M366.566 467.354C369.813 467.354 372.446 469.986 372.446 473.234L372.446 655.919C372.446 658.819 369.244 660.577 366.797 659.02L278.141 602.595C277.659 602.288 277.043 602.288 276.562 602.595L187.905 659.02C185.458 660.577 182.257 658.819 182.257 655.919L182.257 473.234C182.257 469.986 184.889 467.354 188.137 467.354L366.566 467.354Z" fill="#A8F3BD"/>
<path d="M354.119 458.974C356.86 458.974 359.081 461.196 359.081 463.936L359.081 646.621C359.081 648.796 356.68 650.115 354.845 648.947L266.188 592.522C265.405 592.024 264.405 592.024 263.623 592.522L174.966 648.947C173.131 650.115 170.729 648.796 170.729 646.621L170.729 463.936C170.729 461.196 172.951 458.974 175.691 458.974L354.119 458.974Z" fill="#FFBE00" stroke="#1E1E1E" stroke-width="1.83762"/>
<path d="M202.009 522.477C201.175 522.477 200.37 522.368 199.595 522.149C198.84 521.93 198.145 521.603 197.509 521.165C196.873 520.709 196.307 520.142 195.81 519.467C195.333 518.791 194.966 518.006 194.707 517.112L198.373 515.652C198.631 516.645 199.069 517.4 199.684 517.917C200.3 518.414 201.075 518.662 202.009 518.662C202.426 518.662 202.824 518.602 203.201 518.483C203.579 518.344 203.907 518.155 204.185 517.917C204.463 517.678 204.682 517.4 204.84 517.082C205.019 516.745 205.109 516.367 205.109 515.95C205.109 515.076 204.781 514.39 204.125 513.893C203.489 513.397 202.605 513.148 201.473 513.148H199.714V509.602H201.324C201.721 509.602 202.108 509.552 202.486 509.453C202.863 509.353 203.191 509.204 203.47 509.006C203.768 508.787 203.996 508.519 204.155 508.201C204.334 507.863 204.423 507.476 204.423 507.039C204.423 506.363 204.185 505.817 203.708 505.399C203.231 504.962 202.585 504.744 201.771 504.744C200.896 504.744 200.221 504.982 199.744 505.459C199.287 505.916 198.969 506.433 198.79 507.009L195.214 505.548C195.393 505.052 195.661 504.545 196.019 504.028C196.376 503.492 196.823 503.015 197.36 502.598C197.916 502.161 198.562 501.813 199.297 501.555C200.032 501.277 200.877 501.137 201.83 501.137C202.804 501.137 203.688 501.277 204.483 501.555C205.297 501.833 205.993 502.22 206.569 502.717C207.145 503.194 207.592 503.77 207.91 504.446C208.228 505.101 208.387 505.817 208.387 506.592C208.387 507.188 208.308 507.724 208.149 508.201C208.01 508.678 207.821 509.105 207.582 509.482C207.344 509.86 207.066 510.188 206.748 510.466C206.45 510.724 206.142 510.933 205.824 511.092V511.33C206.778 511.708 207.563 512.314 208.178 513.148C208.814 513.983 209.132 515.036 209.132 516.308C209.132 517.202 208.963 518.026 208.626 518.781C208.288 519.516 207.801 520.162 207.165 520.718C206.549 521.275 205.804 521.702 204.93 522C204.056 522.318 203.082 522.477 202.009 522.477ZM220.177 522.477C218.865 522.477 217.683 522.209 216.63 521.672C215.577 521.116 214.673 520.361 213.918 519.407C213.183 518.453 212.616 517.331 212.219 516.039C211.822 514.728 211.623 513.317 211.623 511.807C211.623 510.297 211.822 508.896 212.219 507.605C212.616 506.293 213.183 505.161 213.918 504.207C214.673 503.254 215.577 502.508 216.63 501.972C217.683 501.416 218.865 501.137 220.177 501.137C221.488 501.137 222.67 501.416 223.723 501.972C224.776 502.508 225.67 503.254 226.405 504.207C227.161 505.161 227.737 506.293 228.134 507.605C228.531 508.896 228.73 510.297 228.73 511.807C228.73 513.317 228.531 514.728 228.134 516.039C227.737 517.331 227.161 518.453 226.405 519.407C225.67 520.361 224.776 521.116 223.723 521.672C222.67 522.209 221.488 522.477 220.177 522.477ZM220.177 518.781C220.892 518.781 221.538 518.612 222.114 518.275C222.69 517.917 223.177 517.43 223.574 516.814C223.991 516.178 224.299 515.433 224.498 514.579C224.717 513.725 224.826 512.801 224.826 511.807C224.826 510.794 224.717 509.87 224.498 509.035C224.299 508.181 223.991 507.446 223.574 506.83C223.177 506.194 222.69 505.707 222.114 505.37C221.538 505.012 220.892 504.833 220.177 504.833C219.441 504.833 218.786 505.012 218.209 505.37C217.633 505.707 217.146 506.194 216.749 506.83C216.352 507.446 216.044 508.181 215.825 509.035C215.627 509.87 215.527 510.794 215.527 511.807C215.527 512.801 215.627 513.725 215.825 514.579C216.044 515.433 216.352 516.178 216.749 516.814C217.146 517.43 217.633 517.917 218.209 518.275C218.786 518.612 219.441 518.781 220.177 518.781ZM233.323 510.734H230.76V507.396H233.323V502.926H237.227V507.396H240.804V510.734H237.227V516.397C237.227 516.735 237.257 517.053 237.317 517.351C237.396 517.629 237.535 517.867 237.734 518.066C238.012 518.384 238.41 518.543 238.926 518.543C239.264 518.543 239.532 518.513 239.731 518.453C239.93 518.374 240.118 518.275 240.297 518.155L241.4 521.583C240.943 521.801 240.446 521.96 239.91 522.06C239.393 522.179 238.817 522.238 238.181 522.238C237.446 522.238 236.78 522.129 236.184 521.911C235.608 521.672 235.121 521.354 234.724 520.957C233.79 520.063 233.323 518.791 233.323 517.142V510.734ZM243.822 500.661H247.726V506.651L247.487 509.304H247.726C248.143 508.608 248.739 508.042 249.514 507.605C250.309 507.148 251.193 506.919 252.167 506.919C254.054 506.919 255.445 507.476 256.339 508.588C257.253 509.701 257.71 511.221 257.71 513.148V522H253.806V513.625C253.806 512.612 253.567 511.847 253.09 511.33C252.614 510.794 251.948 510.526 251.094 510.526C250.557 510.526 250.08 510.645 249.663 510.883C249.246 511.102 248.888 511.41 248.59 511.807C248.312 512.205 248.093 512.671 247.934 513.208C247.795 513.725 247.726 514.281 247.726 514.877V522H243.822V500.661ZM273.586 522.477C272.672 522.477 271.797 522.348 270.963 522.089C270.128 521.831 269.363 521.444 268.668 520.927C267.973 520.41 267.367 519.785 266.85 519.049C266.333 518.294 265.926 517.42 265.628 516.427L269.413 514.937C269.691 516.009 270.178 516.904 270.873 517.619C271.569 518.314 272.483 518.662 273.615 518.662C274.033 518.662 274.43 518.612 274.807 518.513C275.205 518.394 275.553 518.235 275.851 518.036C276.169 517.818 276.417 517.549 276.596 517.231C276.775 516.914 276.864 516.546 276.864 516.129C276.864 515.731 276.794 515.374 276.655 515.056C276.516 514.738 276.278 514.44 275.94 514.162C275.622 513.883 275.195 513.615 274.658 513.357C274.142 513.099 273.496 512.83 272.721 512.552L271.41 512.075C270.834 511.877 270.248 511.608 269.651 511.271C269.075 510.933 268.549 510.526 268.072 510.049C267.595 509.572 267.198 509.016 266.88 508.38C266.582 507.724 266.433 506.989 266.433 506.174C266.433 505.34 266.592 504.565 266.91 503.85C267.247 503.114 267.714 502.479 268.31 501.942C268.926 501.386 269.651 500.959 270.486 500.661C271.34 500.343 272.284 500.184 273.317 500.184C274.39 500.184 275.314 500.333 276.089 500.631C276.884 500.909 277.549 501.277 278.086 501.734C278.642 502.171 279.089 502.657 279.427 503.194C279.765 503.73 280.013 504.237 280.172 504.714L276.626 506.204C276.427 505.608 276.059 505.072 275.523 504.595C275.006 504.118 274.291 503.879 273.377 503.879C272.503 503.879 271.777 504.088 271.201 504.505C270.625 504.903 270.337 505.429 270.337 506.085C270.337 506.721 270.615 507.267 271.171 507.724C271.728 508.161 272.612 508.588 273.824 509.006L275.165 509.453C276.019 509.751 276.794 510.098 277.49 510.496C278.205 510.873 278.811 511.33 279.308 511.867C279.824 512.403 280.212 513.019 280.47 513.715C280.748 514.39 280.887 515.175 280.887 516.069C280.887 517.182 280.659 518.145 280.202 518.96C279.765 519.755 279.199 520.41 278.503 520.927C277.808 521.444 277.023 521.831 276.149 522.089C275.274 522.348 274.42 522.477 273.586 522.477ZM297.553 518.483C296.878 519.675 295.964 520.639 294.812 521.374C293.679 522.109 292.288 522.477 290.639 522.477C289.526 522.477 288.493 522.288 287.539 521.911C286.606 521.513 285.791 520.967 285.096 520.271C284.4 519.576 283.854 518.761 283.456 517.827C283.079 516.874 282.89 515.831 282.89 514.698C282.89 513.645 283.079 512.652 283.456 511.718C283.834 510.764 284.36 509.939 285.036 509.244C285.711 508.529 286.506 507.962 287.42 507.545C288.354 507.128 289.377 506.919 290.49 506.919C291.662 506.919 292.705 507.118 293.619 507.515C294.533 507.893 295.298 508.429 295.914 509.125C296.53 509.8 296.997 510.605 297.315 511.539C297.633 512.473 297.792 513.486 297.792 514.579C297.792 514.718 297.792 514.837 297.792 514.937C297.772 515.056 297.762 515.165 297.762 515.264C297.742 515.364 297.732 515.473 297.732 515.592H286.735C286.814 516.188 286.973 516.705 287.212 517.142C287.47 517.559 287.778 517.917 288.136 518.215C288.513 518.493 288.92 518.702 289.357 518.841C289.795 518.96 290.242 519.02 290.699 519.02C291.593 519.02 292.328 518.821 292.904 518.424C293.5 518.006 293.967 517.49 294.305 516.874L297.553 518.483ZM294.007 512.82C293.987 512.562 293.898 512.274 293.739 511.956C293.6 511.638 293.381 511.34 293.083 511.062C292.805 510.784 292.447 510.555 292.01 510.377C291.593 510.198 291.086 510.108 290.49 510.108C289.656 510.108 288.92 510.347 288.285 510.824C287.649 511.301 287.202 511.966 286.943 512.82H294.007ZM300.166 507.396H303.832V509.155H304.07C304.428 508.539 304.984 508.012 305.739 507.575C306.494 507.138 307.428 506.919 308.541 506.919C309.475 506.919 310.359 507.118 311.194 507.515C312.048 507.893 312.793 508.429 313.429 509.125C314.084 509.8 314.601 510.615 314.979 511.569C315.356 512.522 315.545 513.566 315.545 514.698C315.545 515.831 315.356 516.874 314.979 517.827C314.601 518.781 314.084 519.606 313.429 520.301C312.793 520.977 312.048 521.513 311.194 521.911C310.359 522.288 309.475 522.477 308.541 522.477C307.428 522.477 306.494 522.258 305.739 521.821C304.984 521.384 304.428 520.858 304.07 520.242H303.832L304.07 522.328V528.438H300.166V507.396ZM307.736 518.871C308.253 518.871 308.74 518.771 309.197 518.573C309.674 518.374 310.091 518.096 310.448 517.738C310.806 517.38 311.094 516.943 311.313 516.427C311.531 515.91 311.641 515.334 311.641 514.698C311.641 514.062 311.531 513.486 311.313 512.97C311.094 512.453 310.806 512.016 310.448 511.658C310.091 511.301 309.674 511.022 309.197 510.824C308.74 510.625 308.253 510.526 307.736 510.526C307.22 510.526 306.723 510.625 306.246 510.824C305.789 511.002 305.382 511.271 305.024 511.628C304.667 511.986 304.378 512.423 304.16 512.94C303.941 513.456 303.832 514.042 303.832 514.698C303.832 515.354 303.941 515.94 304.16 516.457C304.378 516.973 304.667 517.41 305.024 517.768C305.382 518.126 305.789 518.404 306.246 518.602C306.723 518.781 307.22 518.871 307.736 518.871ZM324.588 511.032H334.692V514.489H324.588V511.032ZM211.493 558V554.453C212.666 553.301 213.748 552.228 214.742 551.235C215.159 550.817 215.586 550.39 216.023 549.953C216.461 549.516 216.868 549.109 217.245 548.731C217.623 548.354 217.961 548.016 218.259 547.718C218.557 547.4 218.785 547.151 218.944 546.973C219.262 546.595 219.54 546.257 219.779 545.959C220.037 545.661 220.236 545.373 220.375 545.095C220.534 544.797 220.653 544.509 220.732 544.231C220.812 543.933 220.852 543.615 220.852 543.277C220.852 542.621 220.593 542.055 220.077 541.578C219.56 541.081 218.855 540.833 217.961 540.833C217.067 540.833 216.371 541.091 215.874 541.608C215.378 542.105 215.04 542.671 214.861 543.307L211.314 541.846C211.473 541.31 211.732 540.764 212.089 540.207C212.447 539.631 212.904 539.124 213.46 538.687C214.017 538.23 214.672 537.863 215.427 537.585C216.202 537.286 217.067 537.137 218.02 537.137C219.053 537.137 219.987 537.296 220.822 537.614C221.656 537.912 222.362 538.33 222.938 538.866C223.514 539.403 223.961 540.038 224.279 540.774C224.597 541.489 224.756 542.264 224.756 543.098C224.756 544.37 224.438 545.542 223.802 546.615C223.186 547.668 222.431 548.652 221.537 549.566L218.974 552.129C218.298 552.804 217.534 553.559 216.679 554.394L216.798 554.573H225.054V558H211.493ZM231.698 545.304H231.936C232.393 544.569 233.009 543.992 233.784 543.575C234.559 543.138 235.443 542.919 236.437 542.919C237.351 542.919 238.155 543.068 238.851 543.366C239.546 543.664 240.112 544.092 240.55 544.648C241.006 545.184 241.344 545.84 241.563 546.615C241.801 547.37 241.92 548.214 241.92 549.148V558H238.016V549.625C238.016 548.572 237.778 547.797 237.301 547.301C236.844 546.784 236.168 546.526 235.274 546.526C234.738 546.526 234.261 546.645 233.844 546.883C233.446 547.102 233.099 547.41 232.801 547.807C232.522 548.185 232.304 548.642 232.145 549.178C232.006 549.695 231.936 550.251 231.936 550.847V558H228.032V543.396H231.698V545.304ZM256.024 556.242H255.786C255.428 556.858 254.872 557.384 254.117 557.821C253.362 558.258 252.428 558.477 251.315 558.477C250.381 558.477 249.487 558.288 248.633 557.911C247.798 557.513 247.053 556.977 246.398 556.301C245.762 555.606 245.255 554.781 244.878 553.827C244.5 552.874 244.311 551.831 244.311 550.698C244.311 549.566 244.5 548.522 244.878 547.569C245.255 546.615 245.762 545.8 246.398 545.125C247.053 544.429 247.798 543.893 248.633 543.515C249.487 543.118 250.381 542.919 251.315 542.919C252.428 542.919 253.362 543.138 254.117 543.575C254.872 544.012 255.428 544.539 255.786 545.155H256.024L255.786 543.068V536.661H259.69V558H256.024V556.242ZM252.12 554.871C252.636 554.871 253.123 554.781 253.58 554.602C254.057 554.404 254.474 554.126 254.832 553.768C255.19 553.41 255.478 552.973 255.696 552.457C255.915 551.94 256.024 551.354 256.024 550.698C256.024 550.042 255.915 549.456 255.696 548.94C255.478 548.423 255.19 547.986 254.832 547.628C254.474 547.271 254.057 547.002 253.58 546.824C253.123 546.625 252.636 546.526 252.12 546.526C251.603 546.526 251.107 546.625 250.63 546.824C250.173 547.022 249.765 547.301 249.408 547.658C249.05 548.016 248.762 548.453 248.543 548.97C248.325 549.486 248.216 550.062 248.216 550.698C248.216 551.334 248.325 551.91 248.543 552.427C248.762 552.943 249.05 553.38 249.408 553.738C249.765 554.096 250.173 554.374 250.63 554.573C251.107 554.771 251.603 554.871 252.12 554.871ZM279.563 558.477C277.974 558.477 276.493 558.189 275.122 557.613C273.771 557.036 272.599 556.252 271.606 555.258C270.612 554.245 269.827 553.063 269.251 551.711C268.695 550.34 268.417 548.88 268.417 547.33C268.417 545.781 268.695 544.33 269.251 542.979C269.827 541.608 270.612 540.426 271.606 539.432C272.599 538.419 273.771 537.624 275.122 537.048C276.493 536.472 277.974 536.184 279.563 536.184C281.153 536.184 282.623 536.472 283.974 537.048C285.345 537.624 286.527 538.419 287.521 539.432C288.514 540.426 289.289 541.608 289.845 542.979C290.422 544.33 290.71 545.781 290.71 547.33C290.71 548.88 290.422 550.34 289.845 551.711C289.289 553.063 288.514 554.245 287.521 555.258C286.527 556.252 285.345 557.036 283.974 557.613C282.623 558.189 281.153 558.477 279.563 558.477ZM279.563 554.662C280.557 554.662 281.481 554.483 282.335 554.126C283.209 553.768 283.964 553.271 284.6 552.635C285.256 552 285.762 551.235 286.12 550.34C286.497 549.426 286.686 548.423 286.686 547.33C286.686 546.238 286.497 545.244 286.12 544.35C285.762 543.436 285.256 542.661 284.6 542.025C283.964 541.389 283.209 540.893 282.335 540.535C281.481 540.177 280.557 539.999 279.563 539.999C278.57 539.999 277.636 540.177 276.762 540.535C275.907 540.893 275.152 541.389 274.497 542.025C273.861 542.661 273.354 543.436 272.977 544.35C272.619 545.244 272.44 546.238 272.44 547.33C272.44 548.423 272.619 549.426 272.977 550.34C273.354 551.235 273.861 552 274.497 552.635C275.152 553.271 275.907 553.768 276.762 554.126C277.636 554.483 278.57 554.662 279.563 554.662ZM307.348 554.275C306.712 555.506 305.818 556.52 304.666 557.315C303.533 558.089 302.113 558.477 300.404 558.477C299.271 558.477 298.228 558.288 297.274 557.911C296.341 557.513 295.526 556.967 294.831 556.271C294.155 555.576 293.618 554.761 293.221 553.827C292.844 552.874 292.655 551.831 292.655 550.698C292.655 549.566 292.844 548.522 293.221 547.569C293.618 546.615 294.155 545.8 294.831 545.125C295.526 544.429 296.341 543.893 297.274 543.515C298.228 543.118 299.271 542.919 300.404 542.919C302.093 542.919 303.513 543.307 304.666 544.082C305.818 544.857 306.663 545.86 307.199 547.092L303.623 548.582C303.285 547.907 302.848 547.4 302.311 547.062C301.795 546.704 301.139 546.526 300.344 546.526C299.828 546.526 299.341 546.625 298.884 546.824C298.427 547.022 298.019 547.301 297.662 547.658C297.324 548.016 297.056 548.453 296.857 548.97C296.658 549.486 296.559 550.062 296.559 550.698C296.559 551.334 296.658 551.91 296.857 552.427C297.056 552.943 297.324 553.38 297.662 553.738C298.019 554.096 298.427 554.374 298.884 554.573C299.341 554.771 299.828 554.871 300.344 554.871C301.159 554.871 301.844 554.692 302.401 554.334C302.977 553.957 303.434 553.42 303.772 552.725L307.348 554.275ZM311.194 546.734H308.631V543.396H311.194V538.926H315.098V543.396H318.675V546.734H315.098V552.397C315.098 552.735 315.128 553.053 315.188 553.351C315.267 553.629 315.406 553.867 315.605 554.066C315.883 554.384 316.28 554.543 316.797 554.543C317.135 554.543 317.403 554.513 317.602 554.453C317.8 554.374 317.989 554.275 318.168 554.155L319.271 557.583C318.814 557.801 318.317 557.96 317.78 558.06C317.264 558.179 316.688 558.238 316.052 558.238C315.317 558.238 314.651 558.129 314.055 557.911C313.479 557.672 312.992 557.354 312.595 556.957C311.661 556.063 311.194 554.791 311.194 553.142V546.734Z" fill="#1E1E1E"/>
<path d="M432.553 306.41H635.477C635.477 288.588 621.916 283.164 615.136 282.679C618.236 257.108 602.867 244.258 594.795 241.029C567.674 226.694 548.625 247.002 542.49 258.949C526.605 251.2 515.53 262.177 511.979 268.635C493.382 263.985 481.952 278.966 478.562 287.038C455.703 271.54 438.364 293.496 432.553 306.41Z" fill="#A8F3BD"/>
<path d="M453.966 326.666H582.307C582.307 315.818 572.944 314.397 568.262 315.043C567.487 308.844 560.513 306.971 557.123 306.81C557.123 297.899 550.343 296.962 546.953 297.608C545.016 286.76 535.491 281.465 530.971 280.173C514.311 277.074 504.98 289.536 502.397 296.155C488.836 292.281 481.249 304.55 479.15 311.169C467.139 304.582 457.356 318.756 453.966 326.666Z" fill="#A8F3BD"/>
<path d="M397.181 199.643H186.508C177.21 171.36 205.881 166.872 221.378 168.163C220.991 137.555 248.621 135.559 261.697 141.855C277.679 98.752 338.096 118.609 338.096 148.791C353.594 148.791 353.917 159.769 352.141 165.258C364.539 162.933 371.513 173.006 373.45 178.334C392.435 178.721 397.181 192.701 397.181 199.643Z" fill="#A8F3BD"/>
<path d="M552.075 304.647C571.542 267.906 576.693 225.641 566.592 185.543C556.49 145.446 531.807 110.181 497.034 86.167C462.262 62.153 419.711 50.986 377.126 54.6984C334.541 58.4107 294.752 76.7556 265.001 106.394L289.976 129.744C313.93 105.88 345.967 91.1096 380.254 88.1206C414.542 85.1316 448.802 94.1227 476.799 113.458C504.797 132.793 524.67 161.186 532.804 193.471C540.937 225.756 536.789 259.786 521.115 289.369L552.075 304.647Z" fill="#A8F3BD"/>
<path d="M526.234 304.9C543.702 271.99 548.325 234.131 539.26 198.214C530.196 162.296 508.047 130.708 476.845 109.198C445.642 87.6873 407.46 77.6845 369.247 81.0098C331.034 84.3351 295.331 100.767 268.634 127.316L291.045 148.232C312.54 126.856 341.287 113.625 372.054 110.948C402.822 108.27 433.564 116.324 458.687 133.643C483.81 150.963 501.643 176.396 508.942 205.315C516.24 234.234 512.518 264.716 498.453 291.215L526.234 304.9Z" fill="#A8F3BD"/>
<path d="M503.475 295.221C518.066 267.705 521.927 236.051 514.356 206.02C506.785 175.989 488.285 149.578 462.223 131.593C436.162 113.608 404.271 105.245 372.354 108.025C340.437 110.806 310.616 124.545 288.318 146.743L307.036 164.23C324.989 146.357 349 135.295 374.698 133.057C400.396 130.818 426.074 137.552 447.057 152.033C468.041 166.513 482.936 187.778 489.032 211.958C495.128 236.137 492.019 261.623 480.272 283.779L503.475 295.221Z" fill="#A8F3BD"/>
<path d="M481.207 290.409C493.159 267.036 496.322 240.148 490.12 214.639C483.918 189.13 468.764 166.696 447.414 151.419C426.065 136.142 399.941 129.038 373.795 131.399C347.649 133.761 323.221 145.432 304.955 164.287L320.288 179.141C334.995 163.96 354.664 154.563 375.716 152.662C396.767 150.76 417.801 156.48 434.991 168.78C452.18 181.081 464.382 199.144 469.376 219.683C474.369 240.221 471.822 261.87 462.199 280.69L481.207 290.409Z" fill="#A8F3BD"/>
<path d="M532.703 314.333C552.17 277.592 557.322 235.327 547.22 195.229C537.119 155.132 512.436 119.867 477.663 95.853C442.89 71.839 400.34 60.6721 357.755 64.3844C315.17 68.0967 275.381 86.4416 245.63 116.08L270.605 139.43C294.559 115.566 326.595 100.796 360.883 97.8066C395.17 94.8176 429.43 103.809 457.428 123.144C485.425 142.479 505.299 170.872 513.432 203.157C521.566 235.442 517.418 269.472 501.744 299.055L532.703 314.333Z" fill="#FFBE00"/>
<path d="M506.861 314.586C524.329 281.676 528.952 243.817 519.888 207.9C510.823 171.982 488.674 140.394 457.472 118.884C426.269 97.3733 388.087 87.3706 349.874 90.6959C311.662 94.0212 275.958 110.454 249.262 137.002L271.672 157.918C293.167 136.542 321.914 123.311 352.681 120.634C383.449 117.956 414.191 126.01 439.314 143.329C464.437 160.649 482.271 186.082 489.569 215.001C496.867 243.92 493.145 274.402 479.08 300.901L506.861 314.586Z" fill="#008A75"/>
<path d="M484.103 304.907C498.694 277.391 502.555 245.737 494.984 215.706C487.413 185.675 468.913 159.264 442.851 141.279C416.79 123.295 384.899 114.931 352.982 117.712C321.065 120.492 291.244 134.231 268.946 156.429L287.664 173.916C305.618 156.043 329.628 144.981 355.326 142.743C381.024 140.504 406.702 147.238 427.685 161.719C448.669 176.199 463.564 197.464 469.66 221.644C475.756 245.823 472.647 271.309 460.9 293.465L484.103 304.907Z" fill="#20448B"/>
<path d="M461.838 300.095C473.79 276.722 476.953 249.834 470.751 224.325C464.549 198.816 449.394 176.382 428.045 161.105C406.696 145.828 380.571 138.724 354.426 141.085C328.28 143.447 303.852 155.118 285.586 173.973L300.919 188.827C315.626 173.646 335.295 164.249 356.346 162.348C377.398 160.446 398.432 166.166 415.622 178.466C432.811 190.767 445.013 208.83 450.006 229.369C455 249.907 452.453 271.556 442.83 290.376L461.838 300.095Z" fill="#F4562D"/>
<path d="M396.818 302.536H599.742C599.742 284.713 586.181 279.289 579.401 278.805C582.5 253.234 567.132 240.383 559.06 237.155C531.939 222.819 512.889 243.128 506.755 255.074C490.87 247.325 479.795 258.303 476.244 264.76C457.646 260.111 446.217 275.092 442.827 283.164C419.967 267.666 402.629 289.621 396.818 302.536Z" fill="white" stroke="#1E1E1E" stroke-width="1.93722"/>
<path d="M422.971 317.949H551.312C551.312 307.1 541.949 305.68 537.267 306.325C536.493 300.126 529.519 298.254 526.128 298.092C526.128 289.181 519.348 288.245 515.958 288.89C514.021 278.042 504.496 272.747 499.976 271.455C483.316 268.356 473.985 280.819 471.402 287.437C457.841 283.563 450.254 295.832 448.155 302.451C436.144 295.864 426.361 310.038 422.971 317.949Z" fill="white" stroke="#1E1E1E" stroke-width="1.93722"/>
<path d="M345.845 188.02H135.172C125.874 159.737 154.545 155.249 170.042 156.54C169.655 125.932 197.285 123.936 210.361 130.232C226.343 87.129 286.76 106.986 286.76 137.168C302.258 137.168 302.581 148.146 300.805 153.634C313.203 151.31 320.177 161.383 322.114 166.711C341.099 167.098 345.845 181.078 345.845 188.02Z" fill="white" stroke="#1E1E1E" stroke-width="1.93722"/>
<path d="M534.768 204.368C540.46 202.65 544.945 198.166 546.662 192.474C548.38 198.166 552.864 202.65 558.556 204.368C552.864 206.085 548.38 210.57 546.662 216.262C544.945 210.57 540.46 206.085 534.768 204.368Z" fill="white" stroke="#1E1E1E" stroke-width="1.49397"/>
<path d="M529.894 220.802C533.594 219.685 536.509 216.77 537.625 213.07C538.741 216.77 541.656 219.685 545.356 220.802C541.656 221.918 538.741 224.833 537.625 228.533C536.509 224.833 533.594 221.918 529.894 220.802Z" fill="white" stroke="#1E1E1E" stroke-width="0.97108"/>
<defs>
<filter id="filter0_f_758_4262" x="0" y="0" width="704" height="795" filterUnits="userSpaceOnUse" color-interpolation-filters="sRGB">
<feFlood flood-opacity="0" result="BackgroundImageFix"/>
<feBlend mode="normal" in="SourceGraphic" in2="BackgroundImageFix" result="shape"/>
<feGaussianBlur stdDeviation="20" result="effect1_foregroundBlur_758_4262"/>
</filter>
</defs>
</svg>
