<svg width="704" height="795" viewBox="0 0 704 795" fill="none" xmlns="http://www.w3.org/2000/svg">
<g filter="url(#filter0_f_324_3210)">
<rect x="40" y="40" width="624" height="715" rx="8" fill="#AAAAAA" fill-opacity="0.1"/>
</g>
<rect x="40" y="2" width="624" height="727" rx="12" fill="#D1FFDE"/>
<line x1="278.494" y1="401.298" x2="296.715" y2="486.853" stroke="#A8F3BD" stroke-width="1.18827"/>
<line y1="-0.594133" x2="87.4737" y2="-0.594133" transform="matrix(-0.208292 0.978067 0.978067 0.208292 247.812 401.421)" stroke="#A8F3BD" stroke-width="1.18827"/>
<path d="M443.778 234.241C445.573 233.883 447.147 235.483 446.759 237.272L433.968 296.29C433.567 298.141 431.354 298.919 429.883 297.725L374.008 252.396C372.336 251.04 373.001 248.35 375.112 247.93L443.778 234.241Z" fill="#A8F3BD"/>
<rect x="248.822" y="392.592" width="54.3918" height="23.3834" rx="3.55834" fill="#A8F3BD"/>
<path d="M441.744 393.648C443.539 394.006 445.112 392.406 444.724 390.617L431.934 331.6C431.532 329.748 429.319 328.971 427.848 330.164L371.973 375.494C370.302 376.85 370.967 379.539 373.077 379.96L441.744 393.648Z" fill="#A8F3BD"/>
<ellipse cx="278.051" cy="314.054" rx="160.38" ry="84.1293" fill="#A8F3BD"/>
<ellipse cx="278.051" cy="314.054" rx="160.38" ry="58.7126" fill="#A8F3BD"/>
<path d="M375.199 317.801C371.827 316.429 371.818 311.658 375.185 310.273L428.41 288.384C429.532 287.923 430.802 287.987 431.872 288.558L472.408 310.208C475.269 311.736 475.278 315.833 472.424 317.374L431.87 339.264C430.801 339.841 429.53 339.91 428.405 339.452L375.199 317.801Z" fill="#A8F3BD"/>
<path d="M129.871 312.021C129.871 323.953 127.026 337.438 123.517 337.438C120.975 334.134 117.162 323.953 117.162 312.021C117.162 300.09 122.5 291.942 123.517 290.417C127.026 290.417 129.871 300.09 129.871 312.021Z" fill="#A8F3BD"/>
<line x1="282.455" y1="401.298" x2="300.675" y2="486.853" stroke="#1E1E1E" stroke-width="1.18827"/>
<line y1="-0.594133" x2="87.4737" y2="-0.594133" transform="matrix(-0.208292 0.978067 0.978067 0.208292 251.772 401.421)" stroke="#1E1E1E" stroke-width="1.18827"/>
<path d="M431.259 227.096C432.494 226.85 433.578 227.951 433.311 229.182L420.52 288.2C420.244 289.475 418.72 290.01 417.708 289.188L361.832 243.859C360.682 242.926 361.14 241.074 362.592 240.785L431.259 227.096Z" fill="#235BC6" stroke="#1E1E1E" stroke-width="1.58435"/>
<rect x="236.94" y="385.462" width="52.8074" height="21.799" rx="2.76616" fill="#235BC6" stroke="#1E1E1E" stroke-width="1.58435"/>
<path d="M429.223 384.95C430.459 385.197 431.542 384.095 431.275 382.864L418.484 323.846C418.208 322.572 416.685 322.037 415.672 322.858L359.797 368.187C358.646 369.121 359.104 370.972 360.557 371.262L429.223 384.95Z" fill="#235BC6" stroke="#1E1E1E" stroke-width="1.58435"/>
<path d="M424.964 306.133C424.964 328.923 407.34 349.746 378.414 364.92C349.526 380.073 309.563 389.47 265.377 389.47C221.191 389.47 181.228 380.073 152.339 364.92C123.414 349.746 105.789 328.923 105.789 306.133C105.789 283.343 123.414 262.519 152.339 247.346C181.228 232.192 221.191 222.796 265.377 222.796C309.563 222.796 349.526 232.192 378.414 247.346C407.34 262.519 424.964 283.343 424.964 306.133Z" fill="#F5F5F7" stroke="#1E1E1E" stroke-width="1.58435"/>
<path d="M424.964 306.133C424.964 313.923 420.654 321.446 412.634 328.387C404.617 335.326 392.971 341.611 378.51 346.905C349.595 357.49 309.596 364.053 265.377 364.053C221.157 364.053 181.159 357.49 152.244 346.905C137.783 341.611 126.136 335.326 118.119 328.387C110.1 321.446 105.789 313.923 105.789 306.133C105.789 298.342 110.1 290.819 118.119 283.878C126.136 276.939 137.783 270.654 152.244 265.36C181.159 254.775 221.157 248.212 265.377 248.212C309.596 248.212 349.595 254.775 378.51 265.36C392.971 270.654 404.617 276.939 412.634 283.878C420.654 290.819 424.964 298.342 424.964 306.133Z" fill="#F5F5F7" stroke="#1E1E1E" stroke-width="1.58435"/>
<path d="M362.823 309.145C360.108 308.041 360.101 304.199 362.812 303.084L416.037 281.195C416.94 280.823 417.963 280.875 418.825 281.335L459.361 302.985C461.664 304.215 461.671 307.515 459.373 308.755L418.819 330.645C417.959 331.11 416.935 331.165 416.03 330.797L362.823 309.145Z" fill="#235BC6" stroke="#1E1E1E" stroke-width="1.58435"/>
<path d="M116.404 304.099C116.404 310.012 115.698 316.304 114.564 321.1C113.996 323.503 113.33 325.489 112.614 326.855C112.255 327.539 111.904 328.029 111.578 328.338C111.428 328.48 111.296 328.573 111.18 328.632C110.041 326.968 108.633 323.883 107.474 319.825C106.221 315.438 105.28 309.984 105.28 304.099C105.28 293.243 109.789 285.582 111.226 283.354C111.642 283.495 112.131 283.877 112.665 284.645C113.357 285.64 114.012 287.132 114.575 289.046C115.698 292.865 116.404 298.187 116.404 304.099Z" fill="#235BC6" stroke="#1E1E1E" stroke-width="1.58435"/>
<path d="M151.114 292H161.372C163.773 292 165.935 292.367 167.857 293.102C169.778 293.837 171.417 294.882 172.774 296.239C174.13 297.567 175.161 299.163 175.868 301.028C176.603 302.893 176.97 304.942 176.97 307.175C176.97 309.435 176.603 311.498 175.868 313.363C175.161 315.228 174.13 316.825 172.774 318.153C171.417 319.481 169.778 320.512 167.857 321.247C165.935 321.982 163.773 322.349 161.372 322.349H151.114V292ZM161.117 316.924C162.784 316.924 164.254 316.698 165.525 316.245C166.797 315.765 167.857 315.101 168.704 314.253C169.552 313.405 170.188 312.388 170.612 311.201C171.036 309.986 171.248 308.644 171.248 307.175C171.248 305.705 171.036 304.377 170.612 303.19C170.188 301.975 169.552 300.944 168.704 300.096C167.857 299.248 166.797 298.598 165.525 298.146C164.254 297.666 162.784 297.426 161.117 297.426H156.836V316.924H161.117Z" fill="#FC5251"/>
<path d="M194.423 317.347C193.462 319.043 192.162 320.413 190.523 321.459C188.913 322.505 186.934 323.027 184.589 323.027C183.007 323.027 181.537 322.759 180.181 322.222C178.853 321.657 177.694 320.88 176.705 319.891C175.716 318.902 174.939 317.743 174.374 316.415C173.837 315.059 173.568 313.575 173.568 311.964C173.568 310.467 173.837 309.054 174.374 307.726C174.911 306.369 175.66 305.197 176.62 304.207C177.581 303.19 178.711 302.385 180.011 301.791C181.339 301.198 182.795 300.901 184.377 300.901C186.044 300.901 187.528 301.184 188.828 301.749C190.128 302.286 191.216 303.049 192.092 304.038C192.968 304.999 193.632 306.143 194.084 307.471C194.536 308.799 194.762 310.241 194.762 311.795C194.762 311.993 194.762 312.162 194.762 312.303C194.734 312.473 194.72 312.628 194.72 312.77C194.691 312.911 194.677 313.066 194.677 313.236H179.036C179.149 314.084 179.375 314.818 179.715 315.44C180.082 316.033 180.52 316.542 181.029 316.966C181.565 317.362 182.145 317.658 182.766 317.856C183.388 318.026 184.024 318.11 184.674 318.11C185.945 318.11 186.991 317.828 187.81 317.263C188.658 316.669 189.322 315.935 189.803 315.059L194.423 317.347ZM189.379 309.294C189.351 308.927 189.223 308.517 188.997 308.065C188.799 307.613 188.489 307.189 188.065 306.793C187.669 306.397 187.161 306.072 186.539 305.818C185.945 305.564 185.225 305.437 184.377 305.437C183.19 305.437 182.145 305.776 181.24 306.454C180.336 307.132 179.7 308.079 179.333 309.294H189.379Z" fill="#5A90FC"/>
<path d="M189.958 301.579H196.274L201.445 314.804H201.742L206.955 301.579H213.228L204.285 322.349H198.817L189.958 301.579Z" fill="#FBC235"/>
<path d="M212.391 322.937C209.989 322.937 207.884 322.287 206.075 320.987C204.295 319.687 203.052 317.893 202.345 315.604L207.601 313.442C207.969 314.799 208.562 315.816 209.381 316.494C210.201 317.172 211.204 317.511 212.391 317.511C213.719 317.511 214.75 317.088 215.485 316.24C216.22 315.392 216.587 314.205 216.587 312.679V291.91H222.309V312.637C222.309 314.332 222.041 315.83 221.504 317.13C220.995 318.402 220.289 319.475 219.385 320.351C218.509 321.199 217.463 321.835 216.248 322.259C215.061 322.711 213.776 322.937 212.391 322.937Z" fill="#39AA68"/>
<path d="M233.868 320.055H233.529C232.879 320.846 232.088 321.524 231.155 322.089C230.251 322.654 229.078 322.937 227.637 322.937C226.563 322.937 225.546 322.753 224.585 322.386C223.653 322.047 222.833 321.566 222.127 320.945C221.42 320.323 220.869 319.574 220.474 318.698C220.078 317.822 219.88 316.862 219.88 315.816C219.88 314.742 220.092 313.781 220.516 312.934C220.94 312.058 221.533 311.309 222.296 310.687C223.059 310.065 223.949 309.599 224.967 309.288C226.012 308.949 227.142 308.78 228.358 308.78C229.714 308.78 230.83 308.893 231.706 309.119C232.582 309.317 233.303 309.529 233.868 309.755V309.119C233.868 308.017 233.43 307.112 232.554 306.406C231.678 305.671 230.59 305.304 229.29 305.304C227.369 305.304 225.744 306.109 224.416 307.72L220.389 304.965C222.593 302.196 225.602 300.811 229.417 300.811C232.639 300.811 235.097 301.574 236.793 303.1C238.488 304.598 239.336 306.83 239.336 309.797V322.259H233.868V320.055ZM233.868 313.824C233.218 313.513 232.54 313.273 231.833 313.103C231.155 312.905 230.406 312.806 229.587 312.806C228.259 312.806 227.227 313.103 226.493 313.697C225.786 314.262 225.433 314.968 225.433 315.816C225.433 316.664 225.772 317.342 226.45 317.851C227.157 318.359 227.962 318.614 228.866 318.614C229.601 318.614 230.279 318.486 230.901 318.232C231.522 317.949 232.045 317.596 232.469 317.172C232.921 316.72 233.26 316.212 233.486 315.646C233.741 315.053 233.868 314.445 233.868 313.824Z" fill="#568EF4"/>
<path d="M237.605 301.489H242.818V304.202H243.157C243.807 303.185 244.683 302.365 245.785 301.743C246.916 301.122 248.159 300.811 249.515 300.811C251.098 300.811 252.426 301.178 253.5 301.913C254.574 302.648 255.336 303.552 255.789 304.626C256.439 303.58 257.357 302.69 258.544 301.955C259.731 301.192 261.172 300.811 262.867 300.811C264.139 300.811 265.241 301.023 266.173 301.447C267.106 301.842 267.869 302.408 268.462 303.142C269.084 303.877 269.55 304.767 269.861 305.813C270.172 306.83 270.327 307.946 270.327 309.161V322.259H264.775V310.178C264.775 307.353 263.616 305.94 261.299 305.94C260.564 305.94 259.914 306.109 259.349 306.448C258.784 306.759 258.304 307.197 257.908 307.762C257.541 308.299 257.244 308.949 257.018 309.712C256.82 310.475 256.721 311.295 256.721 312.171V322.259H251.168V310.178C251.168 307.353 249.953 305.94 247.523 305.94C246.817 305.94 246.195 306.109 245.658 306.448C245.121 306.759 244.669 307.197 244.302 307.762C243.934 308.299 243.652 308.949 243.454 309.712C243.256 310.475 243.157 311.295 243.157 312.171V322.259H237.605V301.489Z" fill="#F45658"/>
<path d="M276.977 322.937C275.621 322.937 274.406 322.767 273.332 322.428C272.286 322.089 271.368 321.651 270.577 321.114C269.814 320.549 269.164 319.913 268.627 319.207C268.09 318.472 267.68 317.738 267.398 317.003L272.357 314.883C272.837 315.957 273.473 316.763 274.264 317.3C275.084 317.808 275.988 318.062 276.977 318.062C277.994 318.062 278.8 317.879 279.393 317.511C279.987 317.144 280.283 316.706 280.283 316.197C280.283 315.632 280.029 315.18 279.52 314.841C279.04 314.474 278.192 314.149 276.977 313.866L274.052 313.23C273.403 313.089 272.724 312.863 272.018 312.552C271.34 312.241 270.718 311.846 270.153 311.365C269.588 310.885 269.121 310.306 268.754 309.627C268.387 308.949 268.203 308.158 268.203 307.254C268.203 306.236 268.415 305.332 268.839 304.541C269.291 303.75 269.899 303.086 270.661 302.549C271.424 301.984 272.315 301.56 273.332 301.277C274.377 300.966 275.494 300.811 276.68 300.811C278.658 300.811 280.425 301.207 281.979 301.998C283.533 302.761 284.677 303.99 285.412 305.685L280.622 307.635C280.227 306.816 279.648 306.222 278.885 305.855C278.122 305.488 277.359 305.304 276.596 305.304C275.804 305.304 275.112 305.474 274.519 305.813C273.925 306.123 273.629 306.533 273.629 307.042C273.629 307.522 273.869 307.904 274.349 308.186C274.858 308.469 275.536 308.723 276.384 308.949L279.563 309.712C281.682 310.221 283.25 311.04 284.268 312.171C285.313 313.273 285.836 314.587 285.836 316.113C285.836 317.017 285.624 317.879 285.2 318.698C284.776 319.518 284.169 320.252 283.378 320.902C282.615 321.524 281.682 322.019 280.58 322.386C279.506 322.753 278.305 322.937 276.977 322.937Z" fill="#F9C531"/>
<path d="M287.938 297.57L290.1 294.263C289.478 294.037 288.941 293.642 288.489 293.077C288.065 292.483 287.853 291.777 287.853 290.957C287.853 289.94 288.207 289.078 288.913 288.372C289.648 287.637 290.524 287.27 291.541 287.27C292.558 287.27 293.42 287.637 294.127 288.372C294.833 289.078 295.186 289.94 295.186 290.957C295.186 291.494 295.087 291.975 294.89 292.398C294.72 292.822 294.466 293.274 294.127 293.755L290.439 299.223L287.938 297.57Z" fill="#39AA68"/>
<path d="M299.717 322.452V317.408C301.384 315.769 302.924 314.243 304.337 312.83C304.931 312.237 305.538 311.629 306.16 311.008C306.782 310.386 307.361 309.807 307.898 309.27C308.435 308.733 308.915 308.252 309.339 307.829C309.763 307.376 310.088 307.023 310.314 306.769C310.766 306.232 311.162 305.752 311.501 305.328C311.868 304.904 312.151 304.494 312.348 304.099C312.575 303.675 312.744 303.265 312.857 302.869C312.97 302.445 313.027 301.993 313.027 301.513C313.027 300.58 312.659 299.775 311.925 299.097C311.19 298.39 310.187 298.037 308.915 298.037C307.644 298.037 306.654 298.405 305.948 299.139C305.242 299.846 304.761 300.651 304.507 301.555L299.463 299.478C299.689 298.715 300.056 297.938 300.565 297.147C301.074 296.328 301.723 295.607 302.515 294.985C303.306 294.335 304.238 293.813 305.312 293.417C306.414 292.993 307.644 292.781 309 292.781C310.469 292.781 311.797 293.007 312.984 293.459C314.171 293.883 315.174 294.477 315.994 295.24C316.813 296.003 317.449 296.907 317.901 297.952C318.353 298.97 318.579 300.072 318.579 301.259C318.579 303.067 318.127 304.734 317.223 306.26C316.347 307.758 315.273 309.157 314.002 310.457L310.356 314.102C309.396 315.063 308.308 316.136 307.092 317.323L307.262 317.578H319.003V322.452H299.717ZM320.483 322.452V317.408C322.151 315.769 323.691 314.243 325.104 312.83C325.697 312.237 326.305 311.629 326.926 311.008C327.548 310.386 328.127 309.807 328.664 309.27C329.201 308.733 329.681 308.252 330.105 307.829C330.529 307.376 330.854 307.023 331.08 306.769C331.532 306.232 331.928 305.752 332.267 305.328C332.634 304.904 332.917 304.494 333.115 304.099C333.341 303.675 333.51 303.265 333.623 302.869C333.736 302.445 333.793 301.993 333.793 301.513C333.793 300.58 333.426 299.775 332.691 299.097C331.956 298.39 330.953 298.037 329.681 298.037C328.41 298.037 327.421 298.405 326.714 299.139C326.008 299.846 325.528 300.651 325.273 301.555L320.229 299.478C320.455 298.715 320.823 297.938 321.331 297.147C321.84 296.328 322.49 295.607 323.281 294.985C324.072 294.335 325.005 293.813 326.079 293.417C327.181 292.993 328.41 292.781 329.766 292.781C331.236 292.781 332.564 293.007 333.751 293.459C334.937 293.883 335.941 294.477 336.76 295.24C337.58 296.003 338.215 296.907 338.668 297.952C339.12 298.97 339.346 300.072 339.346 301.259C339.346 303.067 338.894 304.734 337.989 306.26C337.113 307.758 336.04 309.157 334.768 310.457L331.123 314.102C330.162 315.063 329.074 316.136 327.859 317.323L328.028 317.578H339.77V322.452H320.483Z" fill="#568EF4"/>
<path d="M366.565 467.354C369.813 467.354 372.446 469.986 372.446 473.234L372.446 655.919C372.446 658.819 369.244 660.577 366.797 659.02L278.14 602.595C277.659 602.288 277.043 602.288 276.562 602.595L187.905 659.02C185.458 660.577 182.256 658.819 182.256 655.919L182.256 473.234C182.256 469.986 184.889 467.354 188.137 467.354L366.565 467.354Z" fill="#A8F3BD"/>
<path d="M354.731 458.974C357.471 458.974 359.693 461.196 359.693 463.936L359.693 646.621C359.693 648.796 357.291 650.115 355.456 648.947L266.799 592.522C266.017 592.024 265.017 592.024 264.234 592.522L175.577 648.947C173.742 650.115 171.341 648.796 171.341 646.621L171.341 463.936C171.341 461.196 173.562 458.974 176.302 458.974L354.731 458.974Z" fill="#FFBE00" stroke="#1E1E1E" stroke-width="1.83762"/>
<path d="M186.383 497.734H193.159C194.746 497.734 196.174 497.977 197.443 498.462C198.713 498.948 199.795 499.638 200.691 500.534C201.587 501.412 202.269 502.466 202.735 503.698C203.221 504.93 203.463 506.284 203.463 507.758C203.463 509.252 203.221 510.614 202.735 511.846C202.269 513.078 201.587 514.133 200.691 515.01C199.795 515.888 198.713 516.569 197.443 517.054C196.174 517.54 194.746 517.782 193.159 517.782H186.383V497.734ZM192.991 514.198C194.093 514.198 195.063 514.049 195.903 513.75C196.743 513.433 197.443 512.994 198.003 512.434C198.563 511.874 198.983 511.202 199.263 510.418C199.543 509.616 199.683 508.729 199.683 507.758C199.683 506.788 199.543 505.91 199.263 505.126C198.983 504.324 198.563 503.642 198.003 503.082C197.443 502.522 196.743 502.093 195.903 501.794C195.063 501.477 194.093 501.318 192.991 501.318H190.163V514.198H192.991ZM218.642 514.478C218.007 515.598 217.149 516.504 216.066 517.194C215.002 517.885 213.695 518.23 212.146 518.23C211.101 518.23 210.13 518.053 209.234 517.698C208.357 517.325 207.591 516.812 206.938 516.158C206.285 515.505 205.771 514.74 205.398 513.862C205.043 512.966 204.866 511.986 204.866 510.922C204.866 509.933 205.043 509 205.398 508.122C205.753 507.226 206.247 506.452 206.882 505.798C207.517 505.126 208.263 504.594 209.122 504.202C209.999 503.81 210.961 503.614 212.006 503.614C213.107 503.614 214.087 503.801 214.946 504.174C215.805 504.529 216.523 505.033 217.102 505.686C217.681 506.321 218.119 507.077 218.418 507.954C218.717 508.832 218.866 509.784 218.866 510.81C218.866 510.941 218.866 511.053 218.866 511.146C218.847 511.258 218.838 511.361 218.838 511.454C218.819 511.548 218.81 511.65 218.81 511.762H208.478C208.553 512.322 208.702 512.808 208.926 513.218C209.169 513.61 209.458 513.946 209.794 514.226C210.149 514.488 210.531 514.684 210.942 514.814C211.353 514.926 211.773 514.982 212.202 514.982C213.042 514.982 213.733 514.796 214.274 514.422C214.834 514.03 215.273 513.545 215.59 512.966L218.642 514.478ZM215.31 509.158C215.291 508.916 215.207 508.645 215.058 508.346C214.927 508.048 214.722 507.768 214.442 507.506C214.181 507.245 213.845 507.03 213.434 506.862C213.042 506.694 212.566 506.61 212.006 506.61C211.222 506.61 210.531 506.834 209.934 507.282C209.337 507.73 208.917 508.356 208.674 509.158H215.31ZM219.479 504.062H223.651L227.067 512.798H227.263L230.707 504.062H234.851L228.943 517.782H225.331L219.479 504.062ZM242.261 518.23C240.674 518.23 239.284 517.801 238.089 516.942C236.913 516.084 236.092 514.898 235.625 513.386L239.097 511.958C239.34 512.854 239.732 513.526 240.273 513.974C240.814 514.422 241.477 514.646 242.261 514.646C243.138 514.646 243.82 514.366 244.305 513.806C244.79 513.246 245.033 512.462 245.033 511.454V497.734H248.813V511.426C248.813 512.546 248.636 513.536 248.281 514.394C247.945 515.234 247.478 515.944 246.881 516.522C246.302 517.082 245.612 517.502 244.809 517.782C244.025 518.081 243.176 518.23 242.261 518.23ZM260.508 516.326H260.284C259.855 516.849 259.332 517.297 258.716 517.67C258.119 518.044 257.344 518.23 256.392 518.23C255.683 518.23 255.011 518.109 254.376 517.866C253.76 517.642 253.219 517.325 252.752 516.914C252.286 516.504 251.922 516.009 251.66 515.43C251.399 514.852 251.268 514.217 251.268 513.526C251.268 512.817 251.408 512.182 251.688 511.622C251.968 511.044 252.36 510.549 252.864 510.138C253.368 509.728 253.956 509.42 254.628 509.214C255.319 508.99 256.066 508.878 256.868 508.878C257.764 508.878 258.502 508.953 259.08 509.102C259.659 509.233 260.135 509.373 260.508 509.522V509.102C260.508 508.374 260.219 507.777 259.64 507.31C259.062 506.825 258.343 506.582 257.484 506.582C256.215 506.582 255.142 507.114 254.264 508.178L251.604 506.358C253.06 504.529 255.048 503.614 257.568 503.614C259.696 503.614 261.32 504.118 262.44 505.126C263.56 506.116 264.12 507.59 264.12 509.55V517.782H260.508V516.326ZM260.508 512.21C260.079 512.005 259.631 511.846 259.164 511.734C258.716 511.604 258.222 511.538 257.68 511.538C256.803 511.538 256.122 511.734 255.636 512.126C255.17 512.5 254.936 512.966 254.936 513.526C254.936 514.086 255.16 514.534 255.608 514.87C256.075 515.206 256.607 515.374 257.204 515.374C257.69 515.374 258.138 515.29 258.548 515.122C258.959 514.936 259.304 514.702 259.584 514.422C259.883 514.124 260.107 513.788 260.256 513.414C260.424 513.022 260.508 512.621 260.508 512.21ZM267.037 504.062H270.481V505.854H270.705C271.134 505.182 271.713 504.641 272.441 504.23C273.187 503.82 274.009 503.614 274.905 503.614C275.95 503.614 276.827 503.857 277.537 504.342C278.246 504.828 278.75 505.425 279.049 506.134C279.478 505.444 280.085 504.856 280.869 504.37C281.653 503.866 282.605 503.614 283.725 503.614C284.565 503.614 285.293 503.754 285.909 504.034C286.525 504.296 287.029 504.669 287.421 505.154C287.831 505.64 288.139 506.228 288.345 506.918C288.55 507.59 288.653 508.328 288.653 509.13V517.782H284.985V509.802C284.985 507.936 284.219 507.002 282.689 507.002C282.203 507.002 281.774 507.114 281.401 507.338C281.027 507.544 280.71 507.833 280.449 508.206C280.206 508.561 280.01 508.99 279.861 509.494C279.73 509.998 279.665 510.54 279.665 511.118V517.782H275.997V509.802C275.997 507.936 275.194 507.002 273.589 507.002C273.122 507.002 272.711 507.114 272.357 507.338C272.002 507.544 271.703 507.833 271.461 508.206C271.218 508.561 271.031 508.99 270.901 509.494C270.77 509.998 270.705 510.54 270.705 511.118V517.782H267.037V504.062ZM296.969 518.23C296.073 518.23 295.27 518.118 294.561 517.894C293.87 517.67 293.263 517.381 292.741 517.026C292.237 516.653 291.807 516.233 291.453 515.766C291.098 515.281 290.827 514.796 290.641 514.31L293.917 512.91C294.234 513.62 294.654 514.152 295.177 514.506C295.718 514.842 296.315 515.01 296.969 515.01C297.641 515.01 298.173 514.889 298.565 514.646C298.957 514.404 299.153 514.114 299.153 513.778C299.153 513.405 298.985 513.106 298.649 512.882C298.331 512.64 297.771 512.425 296.969 512.238L295.037 511.818C294.607 511.725 294.159 511.576 293.693 511.37C293.245 511.165 292.834 510.904 292.461 510.586C292.087 510.269 291.779 509.886 291.537 509.438C291.294 508.99 291.173 508.468 291.173 507.87C291.173 507.198 291.313 506.601 291.593 506.078C291.891 505.556 292.293 505.117 292.797 504.762C293.301 504.389 293.889 504.109 294.561 503.922C295.251 503.717 295.989 503.614 296.773 503.614C298.079 503.614 299.246 503.876 300.273 504.398C301.299 504.902 302.055 505.714 302.541 506.834L299.377 508.122C299.115 507.581 298.733 507.189 298.229 506.946C297.725 506.704 297.221 506.582 296.717 506.582C296.194 506.582 295.737 506.694 295.345 506.918C294.953 507.124 294.757 507.394 294.757 507.73C294.757 508.048 294.915 508.3 295.233 508.486C295.569 508.673 296.017 508.841 296.577 508.99L298.677 509.494C300.077 509.83 301.113 510.372 301.785 511.118C302.475 511.846 302.821 512.714 302.821 513.722C302.821 514.32 302.681 514.889 302.401 515.43C302.121 515.972 301.719 516.457 301.197 516.886C300.693 517.297 300.077 517.624 299.349 517.866C298.639 518.109 297.846 518.23 296.969 518.23ZM304.904 504.09L306.332 501.906C305.921 501.757 305.567 501.496 305.268 501.122C304.988 500.73 304.848 500.264 304.848 499.722C304.848 499.05 305.081 498.481 305.548 498.014C306.033 497.529 306.612 497.286 307.284 497.286C307.956 497.286 308.525 497.529 308.992 498.014C309.459 498.481 309.692 499.05 309.692 499.722C309.692 500.077 309.627 500.394 309.496 500.674C309.384 500.954 309.216 501.253 308.992 501.57L306.556 505.182L304.904 504.09ZM312.311 517.782V514.45C313.413 513.368 314.43 512.36 315.363 511.426C315.755 511.034 316.157 510.633 316.567 510.222C316.978 509.812 317.361 509.429 317.715 509.074C318.07 508.72 318.387 508.402 318.667 508.122C318.947 507.824 319.162 507.59 319.311 507.422C319.61 507.068 319.871 506.75 320.095 506.47C320.338 506.19 320.525 505.92 320.655 505.658C320.805 505.378 320.917 505.108 320.991 504.846C321.066 504.566 321.103 504.268 321.103 503.95C321.103 503.334 320.861 502.802 320.375 502.354C319.89 501.888 319.227 501.654 318.387 501.654C317.547 501.654 316.894 501.897 316.427 502.382C315.961 502.849 315.643 503.381 315.475 503.978L312.143 502.606C312.293 502.102 312.535 501.589 312.871 501.066C313.207 500.525 313.637 500.049 314.159 499.638C314.682 499.209 315.298 498.864 316.007 498.602C316.735 498.322 317.547 498.182 318.443 498.182C319.414 498.182 320.291 498.332 321.075 498.63C321.859 498.91 322.522 499.302 323.063 499.806C323.605 500.31 324.025 500.908 324.323 501.598C324.622 502.27 324.771 502.998 324.771 503.782C324.771 504.977 324.473 506.078 323.875 507.086C323.297 508.076 322.587 509 321.747 509.858L319.339 512.266C318.705 512.901 317.986 513.61 317.183 514.394L317.295 514.562H325.051V517.782H312.311ZM327.569 517.782V514.45C328.671 513.368 329.688 512.36 330.621 511.426C331.013 511.034 331.415 510.633 331.825 510.222C332.236 509.812 332.619 509.429 332.973 509.074C333.328 508.72 333.645 508.402 333.925 508.122C334.205 507.824 334.42 507.59 334.569 507.422C334.868 507.068 335.129 506.75 335.353 506.47C335.596 506.19 335.783 505.92 335.913 505.658C336.063 505.378 336.175 505.108 336.249 504.846C336.324 504.566 336.361 504.268 336.361 503.95C336.361 503.334 336.119 502.802 335.633 502.354C335.148 501.888 334.485 501.654 333.645 501.654C332.805 501.654 332.152 501.897 331.685 502.382C331.219 502.849 330.901 503.381 330.733 503.978L327.401 502.606C327.551 502.102 327.793 501.589 328.129 501.066C328.465 500.525 328.895 500.049 329.417 499.638C329.94 499.209 330.556 498.864 331.265 498.602C331.993 498.322 332.805 498.182 333.701 498.182C334.672 498.182 335.549 498.332 336.333 498.63C337.117 498.91 337.78 499.302 338.321 499.806C338.863 500.31 339.283 500.908 339.581 501.598C339.88 502.27 340.029 502.998 340.029 503.782C340.029 504.977 339.731 506.078 339.133 507.086C338.555 508.076 337.845 509 337.005 509.858L334.597 512.266C333.963 512.901 333.244 513.61 332.441 514.394L332.553 514.562H340.309V517.782H327.569ZM221.544 530.074C221.226 530.074 220.918 530.018 220.62 529.906C220.34 529.776 220.088 529.608 219.864 529.402C219.658 529.178 219.49 528.926 219.36 528.646C219.248 528.366 219.192 528.058 219.192 527.722C219.192 527.386 219.248 527.078 219.36 526.798C219.49 526.518 219.658 526.276 219.864 526.07C220.088 525.846 220.34 525.678 220.62 525.566C220.918 525.436 221.226 525.37 221.544 525.37C222.197 525.37 222.757 525.604 223.224 526.07C223.69 526.518 223.924 527.069 223.924 527.722C223.924 528.376 223.69 528.936 223.224 529.402C222.757 529.85 222.197 530.074 221.544 530.074ZM219.724 545.782V532.062H223.392V545.782H219.724ZM232.178 546.23C231.282 546.23 230.479 546.118 229.77 545.894C229.079 545.67 228.472 545.381 227.95 545.026C227.446 544.653 227.016 544.233 226.662 543.766C226.307 543.281 226.036 542.796 225.85 542.31L229.126 540.91C229.443 541.62 229.863 542.152 230.386 542.506C230.927 542.842 231.524 543.01 232.178 543.01C232.85 543.01 233.382 542.889 233.774 542.646C234.166 542.404 234.362 542.114 234.362 541.778C234.362 541.405 234.194 541.106 233.858 540.882C233.54 540.64 232.98 540.425 232.178 540.238L230.246 539.818C229.816 539.725 229.368 539.576 228.902 539.37C228.454 539.165 228.043 538.904 227.67 538.586C227.296 538.269 226.988 537.886 226.746 537.438C226.503 536.99 226.382 536.468 226.382 535.87C226.382 535.198 226.522 534.601 226.802 534.078C227.1 533.556 227.502 533.117 228.006 532.762C228.51 532.389 229.098 532.109 229.77 531.922C230.46 531.717 231.198 531.614 231.982 531.614C233.288 531.614 234.455 531.876 235.482 532.398C236.508 532.902 237.264 533.714 237.75 534.834L234.586 536.122C234.324 535.581 233.942 535.189 233.438 534.946C232.934 534.704 232.43 534.582 231.926 534.582C231.403 534.582 230.946 534.694 230.554 534.918C230.162 535.124 229.966 535.394 229.966 535.73C229.966 536.048 230.124 536.3 230.442 536.486C230.778 536.673 231.226 536.841 231.786 536.99L233.886 537.494C235.286 537.83 236.322 538.372 236.994 539.118C237.684 539.846 238.03 540.714 238.03 541.722C238.03 542.32 237.89 542.889 237.61 543.43C237.33 543.972 236.928 544.457 236.406 544.886C235.902 545.297 235.286 545.624 234.558 545.866C233.848 546.109 233.055 546.23 232.178 546.23ZM246.433 525.734H250.101V531.754L249.877 533.714H250.101C250.437 533.136 250.96 532.641 251.669 532.23C252.379 531.82 253.256 531.614 254.301 531.614C255.179 531.614 256.009 531.801 256.793 532.174C257.596 532.529 258.296 533.033 258.893 533.686C259.509 534.321 259.995 535.086 260.349 535.982C260.704 536.878 260.881 537.858 260.881 538.922C260.881 539.986 260.704 540.966 260.349 541.862C259.995 542.758 259.509 543.533 258.893 544.186C258.296 544.821 257.596 545.325 256.793 545.698C256.009 546.053 255.179 546.23 254.301 546.23C253.256 546.23 252.379 546.025 251.669 545.614C250.96 545.204 250.437 544.709 250.101 544.13H249.877V545.782H246.433V525.734ZM253.545 542.842C254.031 542.842 254.488 542.749 254.917 542.562C255.365 542.376 255.757 542.114 256.093 541.778C256.429 541.442 256.7 541.032 256.905 540.546C257.111 540.061 257.213 539.52 257.213 538.922C257.213 538.325 257.111 537.784 256.905 537.298C256.7 536.813 256.429 536.402 256.093 536.066C255.757 535.73 255.365 535.469 254.917 535.282C254.488 535.096 254.031 535.002 253.545 535.002C253.06 535.002 252.593 535.096 252.145 535.282C251.716 535.45 251.333 535.702 250.997 536.038C250.661 536.374 250.391 536.785 250.185 537.27C249.98 537.756 249.877 538.306 249.877 538.922C249.877 539.538 249.98 540.089 250.185 540.574C250.391 541.06 250.661 541.47 250.997 541.806C251.333 542.142 251.716 542.404 252.145 542.59C252.593 542.758 253.06 542.842 253.545 542.842ZM271.678 544.326H271.454C271.025 544.849 270.502 545.297 269.886 545.67C269.289 546.044 268.514 546.23 267.562 546.23C266.853 546.23 266.181 546.109 265.546 545.866C264.93 545.642 264.389 545.325 263.922 544.914C263.456 544.504 263.092 544.009 262.83 543.43C262.569 542.852 262.438 542.217 262.438 541.526C262.438 540.817 262.578 540.182 262.858 539.622C263.138 539.044 263.53 538.549 264.034 538.138C264.538 537.728 265.126 537.42 265.798 537.214C266.489 536.99 267.236 536.878 268.038 536.878C268.934 536.878 269.672 536.953 270.25 537.102C270.829 537.233 271.305 537.373 271.678 537.522V537.102C271.678 536.374 271.389 535.777 270.81 535.31C270.232 534.825 269.513 534.582 268.654 534.582C267.385 534.582 266.312 535.114 265.434 536.178L262.774 534.358C264.23 532.529 266.218 531.614 268.738 531.614C270.866 531.614 272.49 532.118 273.61 533.126C274.73 534.116 275.29 535.59 275.29 537.55V545.782H271.678V544.326ZM271.678 540.21C271.249 540.005 270.801 539.846 270.334 539.734C269.886 539.604 269.392 539.538 268.85 539.538C267.973 539.538 267.292 539.734 266.806 540.126C266.34 540.5 266.106 540.966 266.106 541.526C266.106 542.086 266.33 542.534 266.778 542.87C267.245 543.206 267.777 543.374 268.374 543.374C268.86 543.374 269.308 543.29 269.718 543.122C270.129 542.936 270.474 542.702 270.754 542.422C271.053 542.124 271.277 541.788 271.426 541.414C271.594 541.022 271.678 540.621 271.678 540.21ZM291.09 542.282C290.493 543.44 289.653 544.392 288.57 545.138C287.506 545.866 286.171 546.23 284.566 546.23C283.502 546.23 282.522 546.053 281.626 545.698C280.749 545.325 279.983 544.812 279.33 544.158C278.695 543.505 278.191 542.74 277.818 541.862C277.463 540.966 277.286 539.986 277.286 538.922C277.286 537.858 277.463 536.878 277.818 535.982C278.191 535.086 278.695 534.321 279.33 533.686C279.983 533.033 280.749 532.529 281.626 532.174C282.522 531.801 283.502 531.614 284.566 531.614C286.153 531.614 287.487 531.978 288.57 532.706C289.653 533.434 290.446 534.377 290.95 535.534L287.59 536.934C287.273 536.3 286.862 535.824 286.358 535.506C285.873 535.17 285.257 535.002 284.51 535.002C284.025 535.002 283.567 535.096 283.138 535.282C282.709 535.469 282.326 535.73 281.99 536.066C281.673 536.402 281.421 536.813 281.234 537.298C281.047 537.784 280.954 538.325 280.954 538.922C280.954 539.52 281.047 540.061 281.234 540.546C281.421 541.032 281.673 541.442 281.99 541.778C282.326 542.114 282.709 542.376 283.138 542.562C283.567 542.749 284.025 542.842 284.51 542.842C285.275 542.842 285.919 542.674 286.442 542.338C286.983 541.984 287.413 541.48 287.73 540.826L291.09 542.282ZM293.328 525.734H296.996V536.654H297.164L301.756 532.062H306.292V532.286L301.196 537.242L306.712 545.558V545.782H302.372L298.62 539.762L296.996 541.358V545.782H293.328V525.734ZM310.387 545.95C309.715 545.95 309.137 545.717 308.651 545.25C308.185 544.765 307.951 544.186 307.951 543.514C307.951 542.842 308.185 542.273 308.651 541.806C309.137 541.34 309.715 541.106 310.387 541.106C311.059 541.106 311.629 541.34 312.095 541.806C312.562 542.273 312.795 542.842 312.795 543.514C312.795 544.186 312.562 544.765 312.095 545.25C311.629 545.717 311.059 545.95 310.387 545.95ZM308.483 531.502V525.734H312.263V531.502L311.871 538.894H308.875L308.483 531.502Z" fill="#1E1E1E"/>
<path d="M432.553 306.41H635.477C635.477 288.588 621.916 283.164 615.136 282.679C618.236 257.108 602.867 244.258 594.795 241.029C567.674 226.694 548.625 247.002 542.49 258.949C526.605 251.2 515.53 262.177 511.979 268.635C493.382 263.985 481.952 278.966 478.562 287.038C455.703 271.54 438.364 293.496 432.553 306.41Z" fill="#A8F3BD"/>
<path d="M453.966 326.666H582.307C582.307 315.818 572.944 314.397 568.262 315.043C567.487 308.844 560.513 306.971 557.123 306.81C557.123 297.899 550.343 296.962 546.953 297.608C545.016 286.76 535.491 281.465 530.971 280.173C514.311 277.074 504.98 289.536 502.397 296.155C488.836 292.281 481.249 304.55 479.15 311.169C467.139 304.582 457.356 318.756 453.966 326.666Z" fill="#A8F3BD"/>
<path d="M397.181 199.643H186.508C177.21 171.36 205.881 166.872 221.378 168.163C220.991 137.555 248.621 135.559 261.697 141.855C277.679 98.752 338.096 118.609 338.096 148.791C353.594 148.791 353.917 159.769 352.141 165.258C364.539 162.933 371.513 173.006 373.45 178.334C392.435 178.721 397.181 192.701 397.181 199.643Z" fill="#A8F3BD"/>
<path d="M552.075 304.647C571.542 267.906 576.693 225.641 566.592 185.543C556.49 145.446 531.807 110.181 497.034 86.167C462.262 62.153 419.711 50.986 377.126 54.6984C334.541 58.4107 294.752 76.7556 265.001 106.394L289.976 129.744C313.93 105.88 345.967 91.1096 380.254 88.1206C414.542 85.1316 448.802 94.1227 476.799 113.458C504.797 132.793 524.67 161.186 532.804 193.471C540.937 225.756 536.789 259.786 521.115 289.369L552.075 304.647Z" fill="#A8F3BD"/>
<path d="M526.234 304.9C543.702 271.99 548.325 234.131 539.261 198.214C530.196 162.296 508.047 130.708 476.845 109.198C445.642 87.6873 407.46 77.6845 369.247 81.0098C331.035 84.3351 295.331 100.767 268.635 127.316L291.045 148.232C312.54 126.856 341.287 113.625 372.054 110.948C402.822 108.27 433.564 116.324 458.687 133.643C483.81 150.963 501.644 176.396 508.942 205.315C516.24 234.234 512.518 264.716 498.453 291.215L526.234 304.9Z" fill="#A8F3BD"/>
<path d="M503.475 295.221C518.065 267.705 521.926 236.051 514.355 206.02C506.784 175.989 488.285 149.578 462.223 131.593C436.162 113.608 404.27 105.245 372.354 108.025C340.437 110.806 310.616 124.545 288.318 146.743L307.036 164.23C324.989 146.357 349 135.295 374.698 133.057C400.396 130.818 426.074 137.552 447.057 152.033C468.041 166.513 482.936 187.778 489.032 211.958C495.128 236.137 492.019 261.623 480.272 283.779L503.475 295.221Z" fill="#A8F3BD"/>
<path d="M481.207 290.409C493.159 267.036 496.322 240.148 490.12 214.639C483.918 189.13 468.764 166.696 447.414 151.419C426.065 136.142 399.941 129.038 373.795 131.399C347.649 133.761 323.221 145.432 304.955 164.287L320.288 179.141C334.995 163.96 354.664 154.563 375.716 152.662C396.767 150.76 417.801 156.48 434.991 168.78C452.18 181.081 464.382 199.144 469.376 219.683C474.369 240.221 471.822 261.87 462.199 280.69L481.207 290.409Z" fill="#A8F3BD"/>
<path d="M532.703 314.333C552.17 277.592 557.322 235.327 547.22 195.229C537.119 155.132 512.436 119.867 477.663 95.853C442.89 71.839 400.34 60.6721 357.755 64.3844C315.17 68.0967 275.381 86.4416 245.63 116.08L270.605 139.43C294.559 115.566 326.595 100.796 360.883 97.8066C395.17 94.8176 429.43 103.809 457.428 123.144C485.425 142.479 505.299 170.872 513.432 203.157C521.566 235.442 517.418 269.472 501.744 299.055L532.703 314.333Z" fill="#FFBE00"/>
<path d="M506.861 314.586C524.329 281.676 528.952 243.817 519.888 207.9C510.823 171.982 488.674 140.394 457.472 118.884C426.269 97.3733 388.087 87.3706 349.874 90.6959C311.661 94.0212 275.958 110.454 249.262 137.002L271.672 157.918C293.167 136.542 321.914 123.311 352.681 120.634C383.449 117.956 414.191 126.01 439.314 143.329C464.437 160.649 482.27 186.082 489.569 215.001C496.867 243.92 493.145 274.402 479.08 300.901L506.861 314.586Z" fill="#008A75"/>
<path d="M484.103 304.907C498.694 277.391 502.555 245.737 494.984 215.706C487.413 185.675 468.913 159.264 442.851 141.279C416.79 123.295 384.899 114.931 352.982 117.712C321.065 120.492 291.244 134.231 268.946 156.429L287.664 173.916C305.618 156.043 329.628 144.981 355.326 142.743C381.024 140.504 406.702 147.238 427.685 161.719C448.669 176.199 463.564 197.464 469.66 221.644C475.756 245.823 472.647 271.309 460.9 293.465L484.103 304.907Z" fill="#20448B"/>
<path d="M461.838 300.095C473.79 276.722 476.953 249.834 470.751 224.325C464.549 198.816 449.394 176.382 428.045 161.105C406.696 145.828 380.571 138.724 354.426 141.085C328.28 143.447 303.851 155.118 285.585 173.973L300.919 188.827C315.626 173.646 335.295 164.249 356.346 162.348C377.398 160.446 398.432 166.166 415.621 178.466C432.811 190.767 445.013 208.83 450.006 229.369C455 249.907 452.453 271.556 442.83 290.376L461.838 300.095Z" fill="#F4562D"/>
<path d="M396.817 302.536H599.741C599.741 284.713 586.181 279.289 579.401 278.805C582.5 253.234 567.132 240.383 559.06 237.155C531.939 222.819 512.889 243.128 506.755 255.074C490.87 247.325 479.795 258.303 476.244 264.76C457.646 260.111 446.217 275.092 442.826 283.164C419.967 267.666 402.629 289.621 396.817 302.536Z" fill="white" stroke="#1E1E1E" stroke-width="1.93722"/>
<path d="M422.971 317.949H551.312C551.312 307.1 541.949 305.68 537.267 306.325C536.492 300.126 529.518 298.254 526.128 298.092C526.128 289.181 519.348 288.245 515.958 288.89C514.021 278.042 504.496 272.747 499.976 271.455C483.316 268.356 473.985 280.819 471.402 287.437C457.841 283.563 450.254 295.832 448.155 302.451C436.144 295.864 426.361 310.038 422.971 317.949Z" fill="white" stroke="#1E1E1E" stroke-width="1.93722"/>
<path d="M345.846 188.02H135.173C125.874 159.737 154.545 155.249 170.043 156.54C169.655 125.932 197.285 123.936 210.361 130.232C226.343 87.129 286.76 106.986 286.76 137.168C302.258 137.168 302.581 148.146 300.805 153.634C313.203 151.31 320.177 161.383 322.115 166.711C341.099 167.098 345.846 181.078 345.846 188.02Z" fill="white" stroke="#1E1E1E" stroke-width="1.93722"/>
<path d="M534.768 204.368C540.46 202.65 544.945 198.166 546.662 192.474C548.38 198.166 552.864 202.65 558.556 204.368C552.864 206.085 548.38 210.57 546.662 216.262C544.945 210.57 540.46 206.085 534.768 204.368Z" fill="white" stroke="#1E1E1E" stroke-width="1.49397"/>
<path d="M529.894 220.802C533.594 219.685 536.509 216.77 537.625 213.07C538.741 216.77 541.656 219.685 545.356 220.802C541.656 221.918 538.741 224.833 537.625 228.533C536.509 224.833 533.594 221.918 529.894 220.802Z" fill="white" stroke="#1E1E1E" stroke-width="0.97108"/>
<defs>
<filter id="filter0_f_324_3210" x="0" y="0" width="704" height="795" filterUnits="userSpaceOnUse" color-interpolation-filters="sRGB">
<feFlood flood-opacity="0" result="BackgroundImageFix"/>
<feBlend mode="normal" in="SourceGraphic" in2="BackgroundImageFix" result="shape"/>
<feGaussianBlur stdDeviation="20" result="effect1_foregroundBlur_324_3210"/>
</filter>
</defs>
</svg>
