<svg width="55" height="55" viewBox="0 0 55 55" fill="none" xmlns="http://www.w3.org/2000/svg">
<path d="M41.484 9.43695C40.8421 9.43695 40.2147 9.62728 39.681 9.98386C39.1474 10.3404 38.7314 10.8473 38.4858 11.4402C38.2402 12.0332 38.1759 12.6857 38.3011 13.3152C38.4264 13.9447 38.7354 14.5229 39.1893 14.9768C39.6431 15.4306 40.2214 15.7397 40.8509 15.8649C41.4804 15.9901 42.1329 15.9259 42.7258 15.6802C43.3188 15.4346 43.8256 15.0187 44.1822 14.485C44.5388 13.9514 44.7291 13.3239 44.7291 12.6821C44.7291 11.8214 44.3872 10.996 43.7786 10.3874C43.17 9.77885 42.3446 9.43695 41.484 9.43695ZM53.9237 15.9814C53.8711 13.7376 53.4509 11.5176 52.6798 9.40991C51.9921 7.6065 50.9219 5.9735 49.5428 4.6233C48.2037 3.23715 46.5668 2.17368 44.7562 1.51336C42.654 0.718728 40.4316 0.288877 38.1847 0.242336C35.3182 0.080078 34.3987 0.0800781 27.043 0.0800781C19.6873 0.0800781 18.7678 0.080078 15.9013 0.242336C13.6544 0.288877 11.432 0.718728 9.32983 1.51336C7.52249 2.18037 5.88708 3.24292 4.54322 4.6233C3.15707 5.96241 2.09361 7.59922 1.43328 9.40991C0.638649 11.5121 0.208799 13.7345 0.162258 15.9814C-1.51115e-07 18.8479 0 19.7674 0 27.1231C0 34.4788 -1.51115e-07 35.3982 0.162258 38.2648C0.208799 40.5117 0.638649 42.7341 1.43328 44.8362C2.09361 46.6469 3.15707 48.2837 4.54322 49.6228C5.88708 51.0032 7.52249 52.0658 9.32983 52.7328C11.432 53.5274 13.6544 53.9573 15.9013 54.0038C18.7678 54.1661 19.6873 54.1661 27.043 54.1661C34.3987 54.1661 35.3182 54.1661 38.1847 54.0038C40.4316 53.9573 42.654 53.5274 44.7562 52.7328C46.5668 52.0725 48.2037 51.009 49.5428 49.6228C50.928 48.2777 51.9992 46.6432 52.6798 44.8362C53.4509 42.7285 53.8711 40.5086 53.9237 38.2648C53.9237 35.3982 54.086 34.4788 54.086 27.1231C54.086 19.7674 54.086 18.8479 53.9237 15.9814ZM49.056 37.9403C49.0363 39.6569 48.7254 41.3577 48.1365 42.9703C47.7047 44.1472 47.0112 45.2106 46.1083 46.0802C45.2312 46.974 44.1699 47.6661 42.9984 48.1084C41.3858 48.6973 39.685 49.0082 37.9684 49.0279C35.2641 49.1631 34.2635 49.1902 27.1512 49.1902C20.0389 49.1902 19.0383 49.1902 16.334 49.0279C14.5515 49.0613 12.7767 48.7868 11.0876 48.2166C9.96746 47.7517 8.9549 47.0613 8.1129 46.1884C7.21531 45.3196 6.53046 44.2553 6.11172 43.0784C5.45148 41.4427 5.08528 39.7033 5.03 37.9403C5.03 35.236 4.86774 34.2354 4.86774 27.1231C4.86774 20.0108 4.86774 19.0102 5.03 16.3059C5.04212 14.5509 5.36249 12.8118 5.9765 11.1677C6.45259 10.0263 7.18334 9.00875 8.1129 8.19298C8.9345 7.26315 9.9499 6.52468 11.0876 6.02954C12.736 5.43471 14.4734 5.12381 16.2258 5.11007C18.9301 5.11007 19.9307 4.94782 27.043 4.94782C34.1553 4.94782 35.1559 4.94782 37.8602 5.11007C39.5768 5.12976 41.2776 5.44067 42.8902 6.02954C44.1191 6.48562 45.2221 7.22713 46.1083 8.19298C46.9945 9.02368 47.687 10.0393 48.1365 11.1677C48.7376 12.8144 49.0487 14.5529 49.056 16.3059C49.1912 19.0102 49.2183 20.0108 49.2183 27.1231C49.2183 34.2354 49.1912 35.236 49.056 37.9403ZM27.043 13.25C24.3003 13.2554 21.6208 14.0735 19.3429 15.6012C17.0651 17.1288 15.2911 19.2974 14.2453 21.8328C13.1994 24.3682 12.9285 27.1568 13.4669 29.8461C14.0052 32.5354 15.3286 35.0048 17.2699 36.9423C19.2111 38.8798 21.6831 40.1984 24.3735 40.7315C27.0638 41.2646 29.8519 40.9883 32.3853 39.9375C34.9186 38.8867 37.0837 37.1085 38.6069 34.8277C40.1301 32.5469 40.9431 29.8658 40.9431 27.1231C40.9467 25.298 40.5894 23.4901 39.8918 21.8036C39.1942 20.1171 38.17 18.5851 36.8782 17.2958C35.5864 16.0065 34.0524 14.9853 32.3645 14.291C30.6766 13.5967 28.8681 13.2429 27.043 13.25ZM27.043 36.1284C25.2619 36.1284 23.5208 35.6002 22.0399 34.6107C20.559 33.6212 19.4048 32.2148 18.7232 30.5693C18.0416 28.9238 17.8632 27.1131 18.2107 25.3662C18.5582 23.6194 19.4159 22.0148 20.6753 20.7554C21.9347 19.4959 23.5393 18.6383 25.2861 18.2908C27.033 17.9433 28.8437 18.1217 30.4892 18.8032C32.1347 19.4848 33.5411 20.6391 34.5306 22.12C35.5202 23.6009 36.0483 25.342 36.0483 27.1231C36.0483 28.3057 35.8154 29.4767 35.3628 30.5693C34.9103 31.6618 34.2469 32.6546 33.4107 33.4908C32.5745 34.327 31.5818 34.9903 30.4892 35.4429C29.3966 35.8955 28.2256 36.1284 27.043 36.1284Z" fill="white"/>
</svg>
