<svg width="55" height="55" viewBox="0 0 55 55" fill="none" xmlns="http://www.w3.org/2000/svg">
<path d="M50.2365 0.0804563H4.4257C3.91074 0.0733044 3.39942 0.167663 2.92093 0.358144C2.44245 0.548625 2.00617 0.831496 1.63702 1.1906C1.26787 1.54971 0.973069 1.97802 0.769464 2.45107C0.565858 2.92412 0.457432 3.43265 0.450378 3.9476V50.2993C0.457432 50.8143 0.565858 51.3228 0.769464 51.7958C0.973069 52.2689 1.26787 52.6972 1.63702 53.0563C2.00617 53.4154 2.44245 53.6983 2.92093 53.8888C3.39942 54.0792 3.91074 54.1736 4.4257 54.1664H50.2365C50.7515 54.1736 51.2628 54.0792 51.7413 53.8888C52.2198 53.6983 52.6561 53.4154 53.0252 53.0563C53.3944 52.6972 53.6892 52.2689 53.8928 51.7958C54.0964 51.3228 54.2048 50.8143 54.2119 50.2993V3.9476C54.2048 3.43265 54.0964 2.92412 53.8928 2.45107C53.6892 1.97802 53.3944 1.54971 53.0252 1.1906C52.6561 0.831496 52.2198 0.548625 51.7413 0.358144C51.2628 0.167663 50.7515 0.0733044 50.2365 0.0804563ZM16.7573 45.3504H8.64441V21.0117H16.7573V45.3504ZM12.7009 17.6043C11.582 17.6043 10.5089 17.1598 9.71778 16.3687C8.92662 15.5775 8.48215 14.5045 8.48215 13.3856C8.48215 12.2667 8.92662 11.1937 9.71778 10.4025C10.5089 9.61137 11.582 9.1669 12.7009 9.1669C13.295 9.09952 13.8966 9.1584 14.4664 9.33966C15.0362 9.52093 15.5613 9.82051 16.0073 10.2188C16.4533 10.617 16.8101 11.105 17.0544 11.6508C17.2987 12.1965 17.425 12.7877 17.425 13.3856C17.425 13.9835 17.2987 14.5747 17.0544 15.1205C16.8101 15.6662 16.4533 16.1542 16.0073 16.5525C15.5613 16.9507 15.0362 17.2503 14.4664 17.4316C13.8966 17.6128 13.295 17.6717 12.7009 17.6043ZM46.0178 45.3504H37.9049V32.2887C37.9049 29.0165 36.7421 26.8801 33.7944 26.8801C32.8821 26.8867 31.9938 27.1729 31.2492 27.6999C30.5046 28.227 29.9394 28.9696 29.6298 29.8278C29.4181 30.4634 29.3264 31.1328 29.3593 31.8019V45.3234H21.2464C21.2464 45.3234 21.2464 23.2022 21.2464 20.9847H29.3593V24.4192C30.0963 23.1403 31.1683 22.0867 32.4597 21.372C33.7511 20.6572 35.213 20.3082 36.688 20.3627C42.0966 20.3627 46.0178 23.8513 46.0178 31.3422V45.3504Z" fill="white"/>
</svg>
