<svg width="351" height="42" viewBox="0 0 351 42" fill="none" xmlns="http://www.w3.org/2000/svg">
<path d="M9.83129 10.0683L16.609 6.17994C17.3752 5.74102 17.9344 5.01787 18.1636 4.16958C18.3928 3.32129 18.2732 2.41735 17.8312 1.65661C17.3891 0.895871 16.6607 0.340651 15.8063 0.113092C14.952 -0.114466 14.0415 0.00427723 13.2753 0.4432L1.55389 7.15888L9.83129 10.0683Z" fill="#EA4335"/>
<path d="M14.9398 20.0562C15.6741 20.0558 16.3877 19.8149 16.9702 19.371C17.5526 18.927 17.9713 18.3047 18.1614 17.6005C18.3514 16.8963 18.3023 16.1496 18.0215 15.4759C17.7408 14.8023 17.2441 14.2394 16.6084 13.8744L4.88697 7.15876C4.12354 6.76129 3.23482 6.67254 2.40696 6.91111C1.57911 7.14968 0.876342 7.69705 0.445879 8.43857C0.0154162 9.18009 -0.109349 10.0582 0.0977177 10.889C0.304785 11.7198 0.827619 12.4389 1.5567 12.8955L13.2781 19.6112C13.783 19.902 14.3562 20.0554 14.9398 20.0562Z" fill="#4285F4"/>
<path d="M26.5919 20.0565C27.1768 20.0569 27.7513 19.9034 28.257 19.6115L39.9785 12.8959L31.8079 9.9248L24.913 13.8714C24.2748 14.236 23.776 14.7999 23.4943 15.4753C23.2125 16.1506 23.1636 16.8996 23.3552 17.6054C23.5468 18.3113 23.9681 18.9344 24.5535 19.3777C25.139 19.821 25.8556 20.0597 26.5919 20.0565Z" fill="#FBBC04"/>
<path d="M38.3029 13.3474C39.0375 13.3478 39.7516 13.1075 40.3346 12.6638C40.9176 12.2201 41.3369 11.5978 41.5274 10.8935C41.7179 10.1891 41.6691 9.44197 41.3884 8.76799C41.1077 8.094 40.6108 7.53081 39.9749 7.16573L28.2569 0.4432C27.4907 0.00427723 26.5803 -0.114466 25.7259 0.113092C24.8715 0.340651 24.1432 0.895871 23.7011 1.65661C23.259 2.41735 23.1394 3.32129 23.3686 4.16958C23.5978 5.01787 24.157 5.74102 24.9232 6.17994L36.6446 12.8956C37.148 13.1878 37.7198 13.3436 38.3029 13.3474Z" fill="#34A853"/>
<path d="M54.8027 16.6644C53.6108 15.9931 52.6243 15.0137 51.9482 13.8303C51.2515 12.6151 50.8945 11.2373 50.9139 9.83919C50.894 8.44106 51.2511 7.06307 51.9482 5.84812C52.6235 4.66409 53.6102 3.68448 54.8027 3.01398C56.002 2.32956 57.3634 1.97509 58.7466 1.98711C59.8231 1.9796 60.8909 2.17954 61.8907 2.57585C62.8159 2.93217 63.6429 3.50108 64.3039 4.23594L63.0146 5.5161C62.5234 4.91228 61.8866 4.44134 61.1633 4.14695C60.3987 3.8312 59.5782 3.67059 58.7501 3.67459C57.7076 3.67262 56.6825 3.93916 55.7749 4.44816C54.8516 4.95846 54.0845 5.7071 53.5547 6.61484C52.9835 7.59325 52.6937 8.70854 52.717 9.83919C52.6937 10.9698 52.9835 12.0851 53.5547 13.0635C54.0857 13.9695 54.8526 14.7168 55.7749 15.2268C56.6164 15.6743 57.5467 15.9326 58.4999 15.9834C59.4531 16.0343 60.4059 15.8765 61.2909 15.5212C61.9582 15.2168 62.5635 14.7933 63.0766 14.2718C63.4584 13.8527 63.7599 13.3678 63.9661 12.8411C64.1966 12.2568 64.3316 11.6398 64.366 11.0132H58.7811V9.35657H66.0587C66.1275 9.71657 66.1633 10.082 66.1656 10.4485C66.1668 11.3656 66.0166 12.2768 65.7209 13.1457C65.4319 14.0099 64.9471 14.7968 64.3039 15.4459C62.8836 16.9451 61.0311 17.6947 58.7466 17.6947C57.3633 17.704 56.0023 17.3485 54.8027 16.6644Z" fill="#656C73"/>
<path d="M70.1249 16.9691C69.3132 16.4928 68.6508 15.8019 68.2115 14.9736C67.7466 14.1047 67.5094 13.1335 67.522 12.1497C67.5094 11.1658 67.7466 10.1947 68.2115 9.32581C68.6508 8.49748 69.3132 7.80661 70.1249 7.33027C70.9719 6.85452 71.9286 6.60449 72.9018 6.60449C73.875 6.60449 74.8317 6.85452 75.6788 7.33027C76.4949 7.80425 77.1613 8.49548 77.6024 9.32581C78.0674 10.1947 78.3045 11.1658 78.2919 12.1497C78.3045 13.1335 78.0674 14.1047 77.6024 14.9736C77.1613 15.8039 76.4949 16.4951 75.6788 16.9691C74.8317 17.4448 73.875 17.6949 72.9018 17.6949C71.9286 17.6949 70.9719 17.4448 70.1249 16.9691ZM74.6721 15.5999C75.2308 15.2719 75.6886 14.7984 75.9959 14.2308C76.3346 13.5993 76.5055 12.8924 76.4924 12.1771C76.5078 11.456 76.3369 10.7431 75.9959 10.1062C75.688 9.539 75.2304 9.0657 74.6721 8.73708C74.1404 8.40287 73.5258 8.22159 72.8966 8.21338C72.2748 8.2129 71.665 8.38351 71.135 8.70627C70.5767 9.03489 70.1191 9.50819 69.8111 10.0754C69.4702 10.7122 69.2993 11.4252 69.3147 12.1463C69.3016 12.8616 69.4725 13.5685 69.8111 14.2C70.1185 14.7676 70.5763 15.2411 71.135 15.5691C71.6632 15.8988 72.2727 16.0777 72.8966 16.086C73.5225 16.0848 74.1363 15.9144 74.6721 15.5931V15.5999Z" fill="#656C73"/>
<path d="M82.121 16.9691C81.3093 16.4928 80.6469 15.8019 80.2076 14.9736C79.7426 14.1047 79.5055 13.1335 79.5181 12.1497C79.5055 11.1658 79.7426 10.1947 80.2076 9.32581C80.6469 8.49748 81.3093 7.80661 82.121 7.33027C82.968 6.85452 83.9247 6.60449 84.8979 6.60449C85.8711 6.60449 86.8278 6.85452 87.6748 7.33027C88.491 7.80425 89.1574 8.49548 89.5985 9.32581C90.0635 10.1947 90.3006 11.1658 90.288 12.1497C90.3006 13.1335 90.0635 14.1047 89.5985 14.9736C89.1602 15.8025 88.4976 16.4936 87.6852 16.9691C86.8381 17.4448 85.8815 17.6949 84.9083 17.6949C83.935 17.6949 82.9784 17.4448 82.1313 16.9691H82.121ZM86.6716 15.5999C87.2285 15.2707 87.6849 14.7975 87.992 14.2308C88.3307 13.5993 88.5016 12.8924 88.4884 12.1771C88.5039 11.456 88.333 10.7431 87.992 10.1062C87.6843 9.53995 87.2281 9.06686 86.6716 8.73708C86.1385 8.40325 85.5229 8.22203 84.8927 8.21338C84.274 8.21263 83.667 8.38077 83.138 8.69943C82.5797 9.02804 82.1221 9.50135 81.8141 10.0686C81.4732 10.7054 81.3022 11.4184 81.3177 12.1394C81.3046 12.8548 81.4754 13.5616 81.8141 14.1931C82.1215 14.7608 82.5793 15.2342 83.138 15.5623C83.6637 15.8929 84.2706 16.074 84.8927 16.086C85.5198 16.0854 86.1349 15.915 86.6716 15.5931V15.5999Z" fill="#656C73"/>
<path d="M93.607 21.3264C92.8645 20.8053 92.2974 20.074 91.9798 19.2281L93.6483 18.5436C93.8553 19.1518 94.2527 19.6783 94.7826 20.0462C95.3488 20.4385 96.0263 20.6411 96.7166 20.6247C97.8313 20.6247 98.6885 20.3029 99.2884 19.6594C99.8883 19.0194 100.185 18.1226 100.185 16.969V15.8463H100.095C99.729 16.4018 99.2274 16.8563 98.6368 17.1676C97.9755 17.5257 97.2319 17.7073 96.4787 17.6947C95.601 17.6979 94.7411 17.4482 94.0034 16.9759C93.2305 16.4871 92.6023 15.8031 92.1832 14.994C91.7187 14.1176 91.4817 13.1399 91.4937 12.1496C91.4822 11.1583 91.7191 10.1797 92.1832 9.3018C92.6036 8.49357 93.2315 7.8099 94.0034 7.31996C94.7421 6.85012 95.6015 6.60174 96.4787 6.60457C97.2314 6.59248 97.9746 6.77282 98.6368 7.12828C99.2276 7.44076 99.7292 7.89642 100.095 8.45293H100.178V6.94002H101.902V16.9382C101.929 17.9542 101.692 18.9601 101.212 19.858C100.792 20.6256 100.146 21.2477 99.3608 21.6413C98.5401 22.0482 97.6339 22.2558 96.7166 22.2471C95.606 22.2902 94.5124 21.9664 93.607 21.3264ZM98.4714 15.5999C99.0102 15.2668 99.4467 14.7932 99.7331 14.2307C100.062 13.583 100.224 12.8645 100.205 12.1394C100.227 11.4159 100.071 10.698 99.7504 10.048C99.4674 9.48319 99.0301 9.00876 98.4886 8.67884C97.9682 8.36891 97.3717 8.20781 96.7649 8.21333C96.1567 8.20837 95.5594 8.37323 95.0411 8.68911C94.5044 9.0238 94.0695 9.49706 93.7828 10.0583C93.4523 10.7056 93.2889 11.4242 93.307 12.1496C93.2893 12.8751 93.4527 13.5936 93.7828 14.241C94.069 14.8025 94.5041 15.2759 95.0411 15.6102C95.5577 15.9214 96.1503 16.086 96.7545 16.086C97.3587 16.086 97.9514 15.9214 98.4679 15.6102L98.4714 15.5999Z" fill="#656C73"/>
<path d="M104.33 2.31934H106.126V17.356H104.33V2.31934Z" fill="#656C73"/>
<path d="M110.394 16.9794C109.599 16.5051 108.951 15.8215 108.522 15.0044C108.056 14.1248 107.819 13.1434 107.833 12.1497C107.823 11.1853 108.041 10.2321 108.47 9.36688C108.872 8.54089 109.497 7.84262 110.277 7.3508C111.084 6.8468 112.023 6.58749 112.976 6.60461C113.914 6.58526 114.84 6.82207 115.652 7.28919C116.418 7.74307 117.033 8.41249 117.417 9.21285C117.841 10.1044 118.051 11.0816 118.03 12.0675C118.036 12.2091 118.023 12.3508 117.989 12.4885H109.663C109.669 13.1895 109.867 13.8757 110.236 14.4738C110.56 14.986 111.015 15.4031 111.556 15.6821C112.063 15.9433 112.625 16.0817 113.197 16.086C114.525 16.086 115.548 15.4425 116.265 14.1555L117.851 14.9119C117.413 15.7357 116.768 16.4335 115.979 16.9383C115.134 17.4315 114.174 17.6958 113.193 17.7048C112.213 17.7138 111.248 17.4672 110.394 16.9896V16.9794ZM116.138 10.9927C116.108 10.5544 115.991 10.1262 115.793 9.73312C115.555 9.28755 115.197 8.91656 114.759 8.66176C114.208 8.34396 113.578 8.18842 112.942 8.21337C112.187 8.20139 111.455 8.47136 110.891 8.96982C110.301 9.49634 109.913 10.2083 109.791 10.9859L116.138 10.9927Z" fill="#656C73"/>
<path d="M124.919 2.31911H129.511C130.924 2.28644 132.323 2.6153 133.572 3.2741C134.701 3.88583 135.626 4.80973 136.237 5.93367C136.874 7.13646 137.195 8.48015 137.168 9.83917C137.194 11.1982 136.874 12.5417 136.237 13.7447C135.626 14.8676 134.7 15.7903 133.572 16.4008C132.323 17.0596 130.924 17.3885 129.511 17.3558H124.919V2.31911ZM129.511 15.6683C131.301 15.6683 132.718 15.1583 133.761 14.1383C134.805 13.1183 135.327 11.6898 135.327 9.85287C135.327 8.02733 134.805 6.59885 133.761 5.56742C132.718 4.536 131.301 4.02485 129.511 4.03397H126.718V15.6718L129.511 15.6683Z" fill="#656C73"/>
<path d="M141.234 16.9794C140.438 16.5051 139.791 15.8215 139.362 15.0044C138.896 14.1248 138.659 13.1434 138.672 12.1497C138.662 11.1856 138.879 10.2324 139.307 9.36688C139.71 8.54 140.338 7.84164 141.12 7.3508C141.928 6.8468 142.866 6.58749 143.82 6.60461C144.758 6.58526 145.683 6.82207 146.495 7.28919C147.262 7.74307 147.876 8.41249 148.26 9.21285C148.684 10.1044 148.894 11.0816 148.874 12.0675C148.88 12.2091 148.866 12.3508 148.832 12.4885H140.503C140.508 13.1898 140.705 13.8764 141.075 14.4738C141.399 14.986 141.855 15.4031 142.396 15.6821C142.903 15.9433 143.465 16.0817 144.037 16.086C145.361 16.086 146.383 15.4425 147.105 14.1555L148.691 14.9119C148.252 15.7357 147.608 16.4335 146.819 16.9383C145.974 17.4315 145.013 17.6958 144.033 17.7048C143.053 17.7138 142.088 17.4672 141.234 16.9896V16.9794ZM146.981 10.9927C146.946 10.5532 146.822 10.125 146.619 9.73312C146.382 9.28658 146.024 8.91526 145.585 8.66176C145.038 8.34648 144.413 8.19103 143.782 8.21337C143.021 8.19706 142.282 8.46732 141.713 8.96982C141.124 9.49634 140.736 10.2083 140.613 10.9859L146.981 10.9927Z" fill="#656C73"/>
<path d="M149.307 6.94043H151.251L154.468 15.258H154.509L157.767 6.94043H159.67L155.378 17.3562H153.557L149.307 6.94043Z" fill="#656C73"/>
<path d="M162.955 16.9794C162.159 16.5051 161.512 15.8216 161.083 15.0044C160.619 14.1242 160.382 13.1433 160.394 12.1497C160.383 11.1856 160.6 10.2325 161.028 9.36691C161.431 8.5414 162.058 7.84342 162.838 7.35084C163.644 6.8473 164.581 6.588 165.534 6.60465C166.472 6.58495 167.397 6.82178 168.209 7.28923C168.977 7.74291 169.592 8.41228 169.978 9.21288C170.4 10.105 170.61 11.0818 170.591 12.0676C170.597 12.2093 170.582 12.3511 170.546 12.4886H162.228C162.231 13.1895 162.428 13.8761 162.796 14.4738C163.122 14.9858 163.579 15.4027 164.12 15.6821C164.626 15.9433 165.188 16.0817 165.758 16.086C167.084 16.086 168.107 15.4425 168.826 14.1555L170.412 14.912C169.973 15.7357 169.329 16.4336 168.54 16.9383C167.695 17.4315 166.734 17.6958 165.754 17.7048C164.774 17.7138 163.809 17.4672 162.955 16.9897V16.9794ZM168.699 10.9928C168.67 10.5541 168.553 10.1257 168.354 9.73316C168.117 9.28683 167.759 8.91559 167.32 8.6618C166.77 8.3441 166.141 8.18854 165.506 8.2134C164.751 8.20076 164.019 8.47082 163.455 8.96986C162.866 9.49638 162.477 10.2084 162.355 10.9859L168.699 10.9928Z" fill="#656C73"/>
<path d="M172.424 2.31934H174.217V17.356H172.424V2.31934Z" fill="#656C73"/>
<path d="M178.536 16.9691C177.727 16.4918 177.067 15.801 176.629 14.9736C176.165 14.1047 175.927 13.1335 175.94 12.1497C175.927 11.1658 176.165 10.1947 176.629 9.32581C177.069 8.49748 177.731 7.80661 178.543 7.33027C179.39 6.85452 180.347 6.60449 181.32 6.60449C182.293 6.60449 183.25 6.85452 184.097 7.33027C184.913 7.80425 185.579 8.49548 186.02 9.32581C186.485 10.1947 186.722 11.1658 186.71 12.1497C186.722 13.1335 186.485 14.1047 186.02 14.9736C185.579 15.8039 184.913 16.4951 184.097 16.9691C183.25 17.4448 182.293 17.6949 181.32 17.6949C180.347 17.6949 179.39 17.4448 178.543 16.9691H178.536ZM183.087 15.5999C183.643 15.2707 184.1 14.7975 184.407 14.2308C184.746 13.5993 184.917 12.8924 184.903 12.1771C184.919 11.456 184.748 10.7431 184.407 10.1062C184.099 9.53995 183.643 9.06686 183.087 8.73708C182.554 8.40325 181.938 8.22203 181.308 8.21338C180.689 8.21263 180.082 8.38077 179.553 8.69943C178.995 9.0273 178.538 9.50086 178.233 10.0686C177.889 10.7045 177.717 11.4179 177.733 12.1394C177.719 12.8552 177.891 13.5625 178.233 14.1931C178.538 14.7613 178.995 15.235 179.553 15.5623C180.079 15.8929 180.686 16.074 181.308 16.086C181.935 16.0854 182.55 15.915 183.087 15.5931V15.5999Z" fill="#656C73"/>
<path d="M188.351 6.93989H190.075V8.47334H190.158C190.525 7.91544 191.026 7.45676 191.616 7.13842C192.291 6.77279 193.05 6.58871 193.819 6.60445C194.693 6.60438 195.548 6.85648 196.28 7.3301C197.051 7.8219 197.678 8.5051 198.101 9.31194C198.565 10.1861 198.802 11.1614 198.79 12.1495C198.802 13.1365 198.565 14.1109 198.101 14.9836C197.679 15.7921 197.052 16.4767 196.28 16.9689C195.538 17.4468 194.672 17.699 193.788 17.6946C193.015 17.7104 192.252 17.5251 191.575 17.1572C190.976 16.8393 190.476 16.3661 190.127 15.788H190.044L190.127 17.2393V21.9047H188.351V6.93989ZM195.246 15.5929C195.786 15.2591 196.225 14.7859 196.515 14.2238C196.84 13.5882 197.004 12.883 196.991 12.17C197.006 11.4514 196.843 10.7401 196.515 10.0992C196.224 9.53749 195.786 9.06437 195.246 8.73005C194.733 8.39834 194.135 8.21903 193.522 8.2132C192.915 8.20939 192.318 8.3729 191.799 8.68555C191.254 9.01513 190.814 9.4894 190.526 10.0547C190.2 10.7032 190.038 11.4212 190.054 12.1461C190.04 12.8664 190.202 13.5794 190.526 14.2238C190.813 14.7895 191.254 15.2639 191.799 15.5929C192.316 15.9128 192.913 16.0834 193.522 16.0858C194.132 16.0856 194.73 15.9148 195.246 15.5929Z" fill="#656C73"/>
<path d="M202.979 16.9791C202.184 16.5049 201.536 15.8213 201.107 15.0041C200.643 14.124 200.406 13.143 200.418 12.1495C200.407 11.1854 200.624 10.2322 201.052 9.36666C201.456 8.54115 202.082 7.84317 202.862 7.35059C203.678 6.84123 204.626 6.5817 205.589 6.6044C206.527 6.5847 207.453 6.82152 208.264 7.28897C209.032 7.74265 209.648 8.41203 210.033 9.21263C210.456 10.1047 210.666 11.0816 210.647 12.0673C210.652 12.2091 210.637 12.3508 210.602 12.4883H202.252C202.255 13.1892 202.452 13.8758 202.821 14.4736C203.147 14.9855 203.604 15.4025 204.145 15.6819C204.651 15.9431 205.212 16.0815 205.782 16.0858C207.111 16.0858 208.133 15.4423 208.851 14.1553L210.436 14.9117C209.998 15.7355 209.353 16.4333 208.564 16.9381C207.719 17.4312 206.759 17.6955 205.779 17.7046C204.799 17.7136 203.833 17.467 202.979 16.9894V16.9791ZM208.723 10.9925C208.695 10.5539 208.578 10.1254 208.378 9.73291C208.141 9.28658 207.783 8.91534 207.344 8.66155C206.795 8.34384 206.166 8.18829 205.531 8.21315C204.769 8.19617 204.03 8.46651 203.462 8.96961C202.873 9.49612 202.485 10.2081 202.362 10.9857L208.723 10.9925Z" fill="#656C73"/>
<path d="M212.445 6.93962H214.169V8.65106H214.255C214.473 8.03901 214.898 7.52115 215.458 7.18607C215.997 6.81689 216.634 6.61226 217.289 6.59733C217.707 6.5933 218.123 6.66402 218.516 6.80613V8.72636C218.058 8.49795 217.549 8.38955 217.037 8.41146C216.544 8.41191 216.062 8.56243 215.658 8.84274C215.221 9.13191 214.865 9.52645 214.624 9.9894C214.369 10.4692 214.238 11.0044 214.244 11.5468V17.3657H212.445V6.93962Z" fill="#656C73"/>
<path d="M226.398 17.2224C225.678 16.9066 225.036 16.4395 224.515 15.8532C223.956 15.2141 223.554 14.4548 223.34 13.6352L225.064 12.9506C225.277 13.8009 225.742 14.5684 226.398 15.155C227.014 15.7174 227.822 16.0258 228.659 16.0175C229.466 16.0432 230.258 15.7945 230.904 15.3124C231.198 15.0833 231.433 14.7869 231.587 14.4483C231.741 14.1098 231.811 13.7392 231.79 13.3682C231.799 13.042 231.736 12.7177 231.605 12.4184C231.474 12.119 231.278 11.852 231.031 11.6362C230.275 11.0592 229.417 10.6284 228.501 10.3664L227.549 10.0241C226.583 9.70648 225.69 9.19894 224.926 8.53169C224.581 8.20245 224.312 7.80327 224.137 7.36141C223.962 6.91955 223.886 6.44542 223.912 5.97138C223.909 5.26611 224.115 4.57552 224.505 3.98611C224.912 3.3653 225.477 2.86227 226.143 2.52797C226.871 2.15548 227.681 1.96736 228.501 1.98031C229.293 1.96249 230.079 2.1277 230.797 2.46293C231.395 2.74291 231.928 3.14397 232.362 3.6404C232.715 4.04037 232.984 4.5057 233.155 5.00955L231.483 5.72151C231.293 5.10472 230.901 4.56886 230.368 4.19964C229.836 3.83042 229.194 3.64917 228.546 3.6849C227.827 3.66624 227.123 3.89612 226.556 4.33525C226.298 4.5241 226.088 4.77127 225.945 5.05634C225.802 5.34142 225.729 5.65623 225.732 5.9748C225.725 6.25142 225.784 6.52583 225.904 6.77566C226.023 7.0255 226.201 7.24368 226.422 7.41241C227.065 7.86916 227.78 8.2162 228.539 8.43928L229.511 8.78156C230.625 9.14524 231.651 9.73505 232.524 10.5135C232.896 10.8835 233.186 11.3269 233.375 11.8151C233.564 12.3033 233.647 12.8254 233.62 13.3477C233.651 14.2195 233.386 15.0763 232.869 15.7813C232.385 16.4292 231.73 16.9315 230.976 17.2326C230.225 17.5391 229.42 17.6961 228.608 17.6947C227.846 17.6948 227.092 17.5338 226.398 17.2224Z" fill="#656C73"/>
<path d="M237.994 17.4795C237.653 17.3472 237.34 17.1508 237.073 16.9011C236.795 16.6355 236.581 16.3099 236.449 15.9495C236.307 15.5331 236.24 15.0952 236.25 14.6557V8.55609H234.388V6.94049H236.25V3.83252H238.025V6.94049H240.607V8.55609H238.025V14.2312C237.982 14.7012 238.104 15.1714 238.37 15.5627C238.501 15.7239 238.669 15.8512 238.861 15.9334C239.053 16.0157 239.261 16.0506 239.469 16.0351C239.87 16.0442 240.265 15.9423 240.611 15.7407V17.4521C240.402 17.5325 240.186 17.5922 239.966 17.6301C239.697 17.6719 239.425 17.6903 239.152 17.6849C238.757 17.6904 238.363 17.6207 237.994 17.4795Z" fill="#656C73"/>
<path d="M243.403 16.5793C242.734 15.8399 242.397 14.8096 242.397 13.4987V6.94043H244.2V13.2009C244.2 15.1177 245.067 16.0761 246.802 16.0761C247.359 16.0824 247.903 15.9134 248.357 15.5935C248.813 15.2719 249.177 14.8377 249.412 14.3338C249.659 13.8222 249.786 13.2617 249.784 12.6943V6.94043H251.56V17.3562H249.867V15.8023H249.784C249.443 16.3661 248.958 16.8302 248.378 17.1474C247.766 17.5068 247.068 17.696 246.358 17.6951C245.058 17.6951 244.072 17.322 243.403 16.5793Z" fill="#656C73"/>
<path d="M255.789 16.9795C255.016 16.4893 254.389 15.8042 253.972 14.9943C253.508 14.1175 253.271 13.14 253.282 12.1498C253.272 11.1586 253.508 10.1802 253.972 9.302C254.39 8.49335 255.017 7.80944 255.789 7.32016C256.533 6.84723 257.4 6.59875 258.285 6.60478C259.053 6.59233 259.811 6.7762 260.487 7.13875C261.083 7.44939 261.586 7.90969 261.946 8.47367H262.032L261.946 7.04633V2.31934H263.725V17.356H262.032V15.802H261.946C261.595 16.382 261.09 16.8555 260.487 17.1712C259.812 17.5364 259.053 17.7215 258.285 17.7086C257.399 17.7088 256.533 17.4557 255.789 16.9795ZM260.27 15.6104C260.814 15.2812 261.254 14.8067 261.539 14.2412C261.867 13.5979 262.032 12.8845 262.018 12.1635C262.034 11.4379 261.869 10.7196 261.539 10.0722C261.253 9.50708 260.814 9.03279 260.27 8.703C259.751 8.39034 259.154 8.22683 258.547 8.23064C257.937 8.22727 257.339 8.39583 256.823 8.71669C256.283 9.05101 255.845 9.52413 255.554 10.0858C255.226 10.7267 255.063 11.4381 255.078 12.1567C255.065 12.8696 255.229 13.5748 255.554 14.2104C255.844 14.7725 256.283 15.2458 256.823 15.5796C257.34 15.8978 257.938 16.0651 258.547 16.0622C259.157 16.0727 259.759 15.9138 260.284 15.6035L260.27 15.6104Z" fill="#656C73"/>
<path d="M268.004 16.9794C267.209 16.5051 266.561 15.8215 266.132 15.0044C265.666 14.1248 265.429 13.1434 265.443 12.1497C265.432 11.1856 265.649 10.2324 266.077 9.36688C266.479 8.54089 267.104 7.84262 267.884 7.3508C268.691 6.8468 269.629 6.58749 270.583 6.60461C271.521 6.58526 272.447 6.82207 273.258 7.28919C274.025 7.74307 274.64 8.41249 275.024 9.21285C275.448 10.1044 275.658 11.0816 275.637 12.0675C275.643 12.2091 275.629 12.3508 275.596 12.4885H267.274C267.28 13.1895 267.478 13.8757 267.846 14.4738C268.17 14.986 268.626 15.4031 269.166 15.6821C269.674 15.9433 270.236 16.0817 270.807 16.086C272.133 16.086 273.156 15.4425 273.876 14.1555L275.461 14.9119C275.023 15.7357 274.378 16.4335 273.589 16.9383C272.744 17.4315 271.784 17.6958 270.804 17.7048C269.824 17.7138 268.858 17.4672 268.004 16.9896V16.9794ZM273.748 10.9927C273.718 10.5544 273.601 10.1262 273.403 9.73312C273.165 9.28755 272.807 8.91656 272.369 8.66176C271.819 8.34396 271.188 8.18842 270.552 8.21337C269.791 8.19706 269.052 8.46732 268.484 8.96982C267.895 9.49634 267.506 10.2083 267.384 10.9859L273.748 10.9927Z" fill="#656C73"/>
<path d="M277.472 6.93994H279.195V8.49393H279.278C279.607 7.92981 280.083 7.46486 280.657 7.14874C281.273 6.79115 281.974 6.60327 282.688 6.6045C283.97 6.6045 284.949 6.97417 285.618 7.71693C286.287 8.4597 286.621 9.47629 286.621 10.7633V17.3558H284.846V11.0371C284.846 9.15911 283.964 8.2201 282.202 8.2201C281.654 8.21391 281.119 8.38449 280.678 8.70615C280.229 9.02964 279.872 9.46378 279.644 9.96576C279.397 10.4764 279.27 11.0357 279.271 11.6019V17.3558H277.475L277.472 6.93994Z" fill="#656C73"/>
<path d="M291.32 17.4795C290.978 17.3488 290.665 17.1522 290.4 16.9011C290.121 16.6355 289.908 16.3099 289.776 15.9495C289.632 15.5333 289.564 15.0954 289.572 14.6557V8.55609H287.711V6.94049H289.572V3.83252H291.351V6.94049H293.93V8.55609H291.351V14.2312C291.311 14.701 291.432 15.1706 291.696 15.5627C291.829 15.7262 292.001 15.8548 292.195 15.9372C292.39 16.0195 292.602 16.0532 292.813 16.0351C293.212 16.0446 293.606 15.9439 293.951 15.7441V17.4556C293.742 17.5364 293.526 17.596 293.306 17.6336C293.037 17.6754 292.765 17.6937 292.492 17.6883C292.092 17.6945 291.694 17.6236 291.32 17.4795Z" fill="#656C73"/>
<path d="M303.553 16.6647C302.372 15.9924 301.4 15.0123 300.74 13.8305C300.049 12.6132 299.692 11.2368 299.706 9.83947C299.692 8.44204 300.048 7.06557 300.74 5.84839C301.401 4.66451 302.378 3.68406 303.563 3.01425C304.773 2.32517 306.147 1.97058 307.542 1.98739C308.61 1.97541 309.669 2.19379 310.644 2.62747C311.573 3.05104 312.397 3.67144 313.058 4.44501L311.789 5.68409C311.282 5.04347 310.635 4.52604 309.896 4.17118C309.148 3.83949 308.336 3.67474 307.518 3.68856C306.473 3.68188 305.444 3.94365 304.532 4.44844C303.617 4.95782 302.86 5.70589 302.343 6.61169C301.787 7.59543 301.507 8.70852 301.529 9.83604C301.507 10.9636 301.787 12.0767 302.343 13.0604C302.861 13.9667 303.618 14.7158 304.532 15.2271C305.45 15.7377 306.486 16.002 307.538 15.9938C308.441 15.9974 309.334 15.7967 310.147 15.4071C310.961 15.0175 311.674 14.4491 312.234 13.745L313.523 15.0046C312.82 15.8421 311.938 16.5133 310.941 16.9693C309.772 17.4948 308.496 17.7409 307.214 17.688C305.932 17.6351 304.681 17.2846 303.56 16.6647H303.553Z" fill="#656C73"/>
<path d="M315.27 2.31934H317.069V17.356H315.27V2.31934Z" fill="#656C73"/>
<path d="M320.389 16.5793C319.721 15.8399 319.386 14.813 319.386 13.4987V6.94043H321.182V13.2009C321.182 15.1177 322.05 16.0761 323.785 16.0761C324.342 16.0829 324.886 15.9139 325.34 15.5935C325.797 15.2721 326.162 14.838 326.398 14.3338C326.644 13.8219 326.77 13.2614 326.767 12.6943V6.94043H328.546V17.3562H326.854V15.8023H326.767C326.426 16.3661 325.941 16.8302 325.361 17.1474C324.749 17.5073 324.051 17.6965 323.341 17.6951C322.063 17.6951 321.079 17.3232 320.389 16.5793Z" fill="#656C73"/>
<path d="M334.235 17.1575C333.637 16.8396 333.137 16.3664 332.788 15.7884H332.701V17.3423H330.978V2.31934H332.801V7.04633L332.715 8.47367H332.801C333.169 7.91577 333.67 7.45709 334.26 7.13875C334.933 6.7731 335.692 6.589 336.459 6.60478C337.345 6.59863 338.213 6.85096 338.955 7.33043C339.725 7.82223 340.353 8.50543 340.775 9.31227C341.239 10.1864 341.476 11.1618 341.465 12.1498C341.477 13.1369 341.24 14.1112 340.775 14.984C340.354 15.7924 339.726 16.477 338.955 16.9693C338.212 17.4472 337.345 17.6994 336.459 17.6949C335.683 17.7127 334.916 17.5274 334.235 17.1575ZM337.897 15.5933C338.437 15.2595 338.875 14.7862 339.165 14.2241C339.491 13.5885 339.654 12.8833 339.641 12.1704C339.657 11.4517 339.493 10.7404 339.165 10.0995C338.875 9.53782 338.436 9.0647 337.897 8.73038C337.38 8.41004 336.782 8.24153 336.173 8.24434C335.566 8.24159 334.969 8.40502 334.449 8.71669C333.907 9.04803 333.468 9.52192 333.181 10.0858C332.851 10.7336 332.688 11.4519 332.705 12.1772C332.69 12.898 332.854 13.6113 333.181 14.2549C333.467 14.8197 333.906 15.2938 334.449 15.6241C334.969 15.9357 335.566 16.0992 336.173 16.0964C336.784 16.0926 337.381 15.9182 337.897 15.5933Z" fill="#656C73"/>
<path d="M344.019 16.8533C343.278 16.3395 342.711 15.6152 342.392 14.7756L343.977 14.091C344.219 14.6996 344.633 15.2253 345.17 15.6039C345.664 15.946 346.251 16.1289 346.853 16.1276C347.445 16.1519 348.031 15.9992 348.535 15.6895C348.73 15.5832 348.893 15.4286 349.01 15.2409C349.127 15.0531 349.192 14.8386 349.2 14.6181C349.206 14.4201 349.164 14.2237 349.077 14.0451C348.991 13.8665 348.863 13.7109 348.704 13.5913C348.19 13.2495 347.61 13.0165 347.001 12.9067L345.556 12.5473C344.812 12.3876 344.118 12.0492 343.536 11.5615C343.262 11.3296 343.045 11.0391 342.901 10.7119C342.756 10.3846 342.688 10.0291 342.702 9.67209C342.687 9.07098 342.885 8.48374 343.26 8.01199C343.655 7.53572 344.17 7.17289 344.753 6.96117C345.403 6.72391 346.091 6.60787 346.784 6.61888C347.646 6.60848 348.496 6.82206 349.249 7.23842C349.963 7.6237 350.519 8.24316 350.824 8.99093L349.238 9.67551C349.034 9.19573 348.669 8.80127 348.204 8.55965C347.728 8.32369 347.202 8.20622 346.67 8.21736C346.146 8.21043 345.63 8.34914 345.181 8.61784C344.985 8.71148 344.819 8.85685 344.701 9.03799C344.583 9.21914 344.518 9.42906 344.512 9.6447C344.506 9.81309 344.542 9.9803 344.618 10.131C344.694 10.2817 344.807 10.4111 344.946 10.5073C345.369 10.7743 345.836 10.9665 346.325 11.0755L347.89 11.452C348.764 11.6283 349.573 12.0391 350.228 12.6397C350.477 12.8856 350.673 13.1786 350.806 13.5014C350.939 13.8243 351.005 14.1703 351 14.5189C351.006 15.1063 350.821 15.6799 350.473 16.155C350.093 16.6666 349.581 17.0664 348.99 17.3119C348.309 17.6019 347.573 17.7454 346.832 17.733C345.823 17.7483 344.837 17.4398 344.019 16.8533Z" fill="#656C73"/>
<path d="M55.5365 36.7901L58.6425 27.8486H60.1557L56.2533 38.3901H55.1745L55.5365 36.7901ZM52.6333 27.8486L55.7103 36.7901L56.094 38.3901H55.0153L51.1201 27.8486H52.6333ZM64.3042 38.5349C63.7588 38.5349 63.2641 38.4432 62.82 38.2598C62.3808 38.0716 62.0019 37.8085 61.6833 37.4707C61.3696 37.1328 61.1283 36.7322 60.9593 36.2688C60.7904 35.8054 60.7059 35.2986 60.7059 34.7484V34.4443C60.7059 33.8072 60.8001 33.2401 60.9883 32.7429C61.1765 32.2409 61.4323 31.8162 61.7557 31.4687C62.0791 31.1211 62.446 30.8581 62.8562 30.6795C63.2665 30.5009 63.6912 30.4116 64.1305 30.4116C64.6904 30.4116 65.173 30.5081 65.5785 30.7012C65.9887 30.8943 66.3242 31.1646 66.5848 31.5121C66.8455 31.8548 67.0386 32.2602 67.164 32.7284C67.2895 33.1918 67.3523 33.6986 67.3523 34.2488V34.8498H61.5023V33.7565H66.0129V33.6551C65.9936 33.3076 65.9212 32.9698 65.7957 32.6415C65.675 32.3133 65.4819 32.043 65.2165 31.8307C64.951 31.6183 64.589 31.5121 64.1305 31.5121C63.8264 31.5121 63.5464 31.5773 63.2906 31.7076C63.0348 31.8331 62.8152 32.0213 62.6318 32.2723C62.4484 32.5233 62.306 32.8298 62.2046 33.1918C62.1033 33.5538 62.0526 33.9713 62.0526 34.4443V34.7484C62.0526 35.1201 62.1033 35.47 62.2046 35.7982C62.3108 36.1216 62.4628 36.4064 62.6607 36.6525C62.8635 36.8987 63.1072 37.0918 63.392 37.2317C63.6816 37.3717 64.0098 37.4417 64.3766 37.4417C64.8496 37.4417 65.2503 37.3452 65.5785 37.1521C65.9067 36.959 66.1939 36.7008 66.44 36.3774L67.2509 37.0218C67.082 37.2776 66.8672 37.5213 66.6066 37.753C66.3459 37.9847 66.0249 38.1729 65.6436 38.3177C65.2672 38.4625 64.8207 38.5349 64.3042 38.5349ZM70.3714 27.2694V38.3901H69.0247V27.2694H70.3714ZM73.9769 27.2694V38.3901H72.6303V27.2694H73.9769ZM75.7725 34.5602V34.3936C75.7725 33.8289 75.8545 33.3052 76.0186 32.8225C76.1827 32.335 76.4192 31.9127 76.7281 31.5555C77.0371 31.1935 77.4111 30.9136 77.8503 30.7157C78.2896 30.513 78.7819 30.4116 79.3273 30.4116C79.8776 30.4116 80.3723 30.513 80.8115 30.7157C81.2556 30.9136 81.6321 31.1935 81.941 31.5555C82.2547 31.9127 82.4936 32.335 82.6577 32.8225C82.8218 33.3052 82.9039 33.8289 82.9039 34.3936V34.5602C82.9039 35.1249 82.8218 35.6486 82.6577 36.1312C82.4936 36.6139 82.2547 37.0362 81.941 37.3983C81.6321 37.7554 81.258 38.0354 80.8188 38.2381C80.3844 38.436 79.892 38.5349 79.3418 38.5349C78.7916 38.5349 78.2968 38.436 77.8576 38.2381C77.4184 38.0354 77.0419 37.7554 76.7281 37.3983C76.4192 37.0362 76.1827 36.6139 76.0186 36.1312C75.8545 35.6486 75.7725 35.1249 75.7725 34.5602ZM77.1119 34.3936V34.5602C77.1119 34.9511 77.1577 35.3204 77.2494 35.6679C77.3411 36.0106 77.4787 36.3147 77.6621 36.5801C77.8503 36.8456 78.0844 37.0556 78.3644 37.21C78.6443 37.3596 78.9701 37.4345 79.3418 37.4345C79.7086 37.4345 80.0296 37.3596 80.3047 37.21C80.5847 37.0556 80.8164 36.8456 80.9998 36.5801C81.1832 36.3147 81.3207 36.0106 81.4124 35.6679C81.509 35.3204 81.5572 34.9511 81.5572 34.5602V34.3936C81.5572 34.0075 81.509 33.6431 81.4124 33.3004C81.3207 32.9529 81.1808 32.6464 80.9925 32.3809C80.8091 32.1106 80.5774 31.8982 80.2975 31.7438C80.0224 31.5893 79.699 31.5121 79.3273 31.5121C78.9605 31.5121 78.6371 31.5893 78.3572 31.7438C78.082 31.8982 77.8503 32.1106 77.6621 32.3809C77.4787 32.6464 77.3411 32.9529 77.2494 33.3004C77.1577 33.6431 77.1119 34.0075 77.1119 34.3936ZM85.923 31.7872V38.3901H84.5836V30.5564H85.8868L85.923 31.7872ZM88.3701 30.513L88.3629 31.7583C88.2519 31.7341 88.1457 31.7196 88.0443 31.7148C87.9478 31.7052 87.8368 31.7003 87.7113 31.7003C87.4024 31.7003 87.1297 31.7486 86.8932 31.8451C86.6567 31.9417 86.4563 32.0768 86.2922 32.2506C86.1281 32.4243 85.9978 32.6319 85.9013 32.8732C85.8096 33.1097 85.7492 33.3704 85.7203 33.6551L85.3438 33.8724C85.3438 33.3993 85.3896 32.9553 85.4814 32.5402C85.5779 32.1251 85.7251 31.7583 85.923 31.4397C86.1209 31.1163 86.3719 30.8653 86.676 30.6867C86.9849 30.5033 87.3517 30.4116 87.7764 30.4116C87.873 30.4116 87.984 30.4237 88.1095 30.4478C88.235 30.4671 88.3219 30.4888 88.3701 30.513ZM92.7142 38.5349C92.1687 38.5349 91.674 38.4432 91.2299 38.2598C90.7907 38.0716 90.4118 37.8085 90.0933 37.4707C89.7795 37.1328 89.5382 36.7322 89.3693 36.2688C89.2003 35.8054 89.1159 35.2986 89.1159 34.7484V34.4443C89.1159 33.8072 89.21 33.2401 89.3982 32.7429C89.5865 32.2409 89.8423 31.8162 90.1657 31.4687C90.489 31.1211 90.8559 30.8581 91.2661 30.6795C91.6764 30.5009 92.1012 30.4116 92.5404 30.4116C93.1003 30.4116 93.583 30.5081 93.9884 30.7012C94.3987 30.8943 94.7341 31.1646 94.9948 31.5121C95.2554 31.8548 95.4485 32.2602 95.574 32.7284C95.6995 33.1918 95.7622 33.6986 95.7622 34.2488V34.8498H89.9123V33.7565H94.4228V33.6551C94.4035 33.3076 94.3311 32.9698 94.2056 32.6415C94.0849 32.3133 93.8919 32.043 93.6264 31.8307C93.3609 31.6183 92.9989 31.5121 92.5404 31.5121C92.2363 31.5121 91.9564 31.5773 91.7006 31.7076C91.4447 31.8331 91.2251 32.0213 91.0417 32.2723C90.8583 32.5233 90.7159 32.8298 90.6145 33.1918C90.5132 33.5538 90.4625 33.9713 90.4625 34.4443V34.7484C90.4625 35.1201 90.5132 35.47 90.6145 35.7982C90.7207 36.1216 90.8728 36.4064 91.0707 36.6525C91.2734 36.8987 91.5171 37.0918 91.8019 37.2317C92.0915 37.3717 92.4197 37.4417 92.7866 37.4417C93.2596 37.4417 93.6602 37.3452 93.9884 37.1521C94.3166 36.959 94.6038 36.7008 94.85 36.3774L95.6609 37.0218C95.4919 37.2776 95.2771 37.5213 95.0165 37.753C94.7558 37.9847 94.4349 38.1729 94.0536 38.3177C93.6771 38.4625 93.2306 38.5349 92.7142 38.5349ZM102.705 27.8486V38.3901H101.308V27.8486H102.705ZM106.383 32.2289V38.3901H105.044V30.5564H106.311L106.383 32.2289ZM106.065 34.1764L105.507 34.1547C105.512 33.6189 105.592 33.1242 105.746 32.6705C105.901 32.212 106.118 31.8138 106.398 31.4759C106.678 31.138 107.011 30.8774 107.397 30.694C107.788 30.5057 108.22 30.4116 108.693 30.4116C109.079 30.4116 109.427 30.4647 109.735 30.5709C110.044 30.6723 110.307 30.8364 110.525 31.0632C110.747 31.2901 110.916 31.5845 111.031 31.9465C111.147 32.3037 111.205 32.7405 111.205 33.2569V38.3901H109.859V33.2425C109.859 32.8322 109.798 32.504 109.678 32.2578C109.557 32.0068 109.381 31.8258 109.149 31.7148C108.917 31.599 108.633 31.5411 108.295 31.5411C107.962 31.5411 107.658 31.611 107.382 31.751C107.112 31.891 106.878 32.0841 106.68 32.3302C106.487 32.5764 106.335 32.8587 106.224 33.1773C106.118 33.491 106.065 33.8241 106.065 34.1764ZM117.801 36.3122C117.801 36.1192 117.757 35.9406 117.671 35.7765C117.589 35.6075 117.417 35.4555 117.157 35.3204C116.901 35.1804 116.515 35.0597 115.998 34.9584C115.564 34.8667 115.17 34.758 114.818 34.6326C114.47 34.5071 114.174 34.355 113.927 34.1764C113.686 33.9978 113.5 33.7879 113.37 33.5465C113.24 33.3052 113.175 33.0229 113.175 32.6995C113.175 32.3906 113.242 32.0985 113.377 31.8234C113.517 31.5483 113.713 31.3045 113.964 31.0922C114.219 30.8798 114.526 30.7133 114.883 30.5926C115.24 30.4719 115.639 30.4116 116.078 30.4116C116.705 30.4116 117.241 30.5226 117.685 30.7447C118.129 30.9667 118.469 31.2635 118.706 31.6352C118.942 32.002 119.061 32.4099 119.061 32.8587H117.721C117.721 32.6415 117.656 32.4316 117.526 32.2289C117.4 32.0213 117.214 31.85 116.968 31.7148C116.727 31.5797 116.43 31.5121 116.078 31.5121C115.706 31.5121 115.404 31.57 115.173 31.6859C114.946 31.7969 114.779 31.9393 114.673 32.113C114.572 32.2868 114.521 32.4702 114.521 32.6633C114.521 32.8081 114.545 32.9384 114.594 33.0542C114.647 33.1652 114.738 33.269 114.869 33.3655C114.999 33.4573 115.182 33.5441 115.419 33.6262C115.655 33.7082 115.957 33.7903 116.324 33.8724C116.966 34.0172 117.494 34.1909 117.909 34.3936C118.325 34.5964 118.634 34.8449 118.836 35.1394C119.039 35.4338 119.14 35.791 119.14 36.2109C119.14 36.5536 119.068 36.8673 118.923 37.1521C118.783 37.4369 118.578 37.683 118.308 37.8906C118.042 38.0933 117.724 38.2526 117.352 38.3684C116.985 38.4794 116.573 38.5349 116.114 38.5349C115.424 38.5349 114.84 38.4119 114.362 38.1657C113.884 37.9195 113.522 37.601 113.276 37.21C113.03 36.819 112.907 36.4064 112.907 35.972H114.253C114.273 36.3388 114.379 36.6308 114.572 36.848C114.765 37.0604 115.001 37.2124 115.281 37.3041C115.561 37.391 115.839 37.4345 116.114 37.4345C116.481 37.4345 116.787 37.3862 117.033 37.2897C117.284 37.1931 117.475 37.0604 117.605 36.8914C117.736 36.7225 117.801 36.5294 117.801 36.3122ZM124.179 30.5564V31.5845H119.944V30.5564H124.179ZM121.377 28.6523H122.717V36.4498C122.717 36.7153 122.758 36.9156 122.84 37.0507C122.922 37.1859 123.028 37.2752 123.159 37.3186C123.289 37.3621 123.429 37.3838 123.578 37.3838C123.689 37.3838 123.805 37.3741 123.926 37.3548C124.051 37.3307 124.146 37.3114 124.208 37.2969L124.216 38.3901C124.109 38.4239 123.969 38.4553 123.796 38.4843C123.627 38.518 123.422 38.5349 123.18 38.5349C122.852 38.5349 122.55 38.4698 122.275 38.3395C122 38.2091 121.781 37.9919 121.616 37.6879C121.457 37.3789 121.377 36.9638 121.377 36.4426V28.6523ZM127.206 30.5564V38.3901H125.859V30.5564H127.206ZM125.758 28.4785C125.758 28.2613 125.823 28.0779 125.953 27.9283C126.088 27.7786 126.286 27.7038 126.547 27.7038C126.803 27.7038 126.998 27.7786 127.133 27.9283C127.273 28.0779 127.343 28.2613 127.343 28.4785C127.343 28.6861 127.273 28.8647 127.133 29.0143C126.998 29.1591 126.803 29.2315 126.547 29.2315C126.286 29.2315 126.088 29.1591 125.953 29.0143C125.823 28.8647 125.758 28.6861 125.758 28.4785ZM132.636 30.5564V31.5845H128.4V30.5564H132.636ZM129.834 28.6523H131.173V36.4498C131.173 36.7153 131.214 36.9156 131.296 37.0507C131.378 37.1859 131.485 37.2752 131.615 37.3186C131.745 37.3621 131.885 37.3838 132.035 37.3838C132.146 37.3838 132.262 37.3741 132.382 37.3548C132.508 37.3307 132.602 37.3114 132.665 37.2969L132.672 38.3901C132.566 38.4239 132.426 38.4553 132.252 38.4843C132.083 38.518 131.878 38.5349 131.637 38.5349C131.308 38.5349 131.007 38.4698 130.732 38.3395C130.456 38.2091 130.237 37.9919 130.073 37.6879C129.913 37.3789 129.834 36.9638 129.834 36.4426V28.6523ZM139 36.5801V30.5564H140.346V38.3901H139.065L139 36.5801ZM139.253 34.9294L139.811 34.9149C139.811 35.4362 139.755 35.9189 139.644 36.3629C139.538 36.8022 139.364 37.1835 139.123 37.5069C138.881 37.8302 138.565 38.0836 138.174 38.2671C137.783 38.4456 137.308 38.5349 136.748 38.5349C136.367 38.5349 136.017 38.4794 135.698 38.3684C135.385 38.2574 135.114 38.0861 134.887 37.8544C134.661 37.6227 134.484 37.321 134.359 36.9494C134.238 36.5777 134.178 36.1312 134.178 35.61V30.5564H135.517V35.6244C135.517 35.9768 135.556 36.2688 135.633 36.5005C135.715 36.7273 135.824 36.9083 135.959 37.0435C136.099 37.1738 136.253 37.2655 136.422 37.3186C136.596 37.3717 136.775 37.3983 136.958 37.3983C137.528 37.3983 137.979 37.2897 138.312 37.0724C138.645 36.8504 138.884 36.5536 139.029 36.1819C139.178 35.8054 139.253 35.3879 139.253 34.9294ZM145.668 30.5564V31.5845H141.432V30.5564H145.668ZM142.866 28.6523H144.205V36.4498C144.205 36.7153 144.246 36.9156 144.328 37.0507C144.41 37.1859 144.517 37.2752 144.647 37.3186C144.777 37.3621 144.917 37.3838 145.067 37.3838C145.178 37.3838 145.294 37.3741 145.414 37.3548C145.54 37.3307 145.634 37.3114 145.697 37.2969L145.704 38.3901C145.598 38.4239 145.458 38.4553 145.284 38.4843C145.115 38.518 144.91 38.5349 144.669 38.5349C144.34 38.5349 144.039 38.4698 143.764 38.3395C143.489 38.2091 143.269 37.9919 143.105 37.6879C142.946 37.3789 142.866 36.9638 142.866 36.4426V28.6523ZM150.49 38.5349C149.944 38.5349 149.45 38.4432 149.005 38.2598C148.566 38.0716 148.187 37.8085 147.869 37.4707C147.555 37.1328 147.314 36.7322 147.145 36.2688C146.976 35.8054 146.891 35.2986 146.891 34.7484V34.4443C146.891 33.8072 146.986 33.2401 147.174 32.7429C147.362 32.2409 147.618 31.8162 147.941 31.4687C148.265 31.1211 148.631 30.8581 149.042 30.6795C149.452 30.5009 149.877 30.4116 150.316 30.4116C150.876 30.4116 151.358 30.5081 151.764 30.7012C152.174 30.8943 152.51 31.1646 152.77 31.5121C153.031 31.8548 153.224 32.2602 153.349 32.7284C153.475 33.1918 153.538 33.6986 153.538 34.2488V34.8498H147.688V33.7565H152.198V33.6551C152.179 33.3076 152.107 32.9698 151.981 32.6415C151.86 32.3133 151.667 32.043 151.402 31.8307C151.136 31.6183 150.774 31.5121 150.316 31.5121C150.012 31.5121 149.732 31.5773 149.476 31.7076C149.22 31.8331 149.001 32.0213 148.817 32.2723C148.634 32.5233 148.491 32.8298 148.39 33.1918C148.289 33.5538 148.238 33.9713 148.238 34.4443V34.7484C148.238 35.1201 148.289 35.47 148.39 35.7982C148.496 36.1216 148.648 36.4064 148.846 36.6525C149.049 36.8987 149.293 37.0918 149.577 37.2317C149.867 37.3717 150.195 37.4417 150.562 37.4417C151.035 37.4417 151.436 37.3452 151.764 37.1521C152.092 36.959 152.379 36.7008 152.625 36.3774L153.436 37.0218C153.267 37.2776 153.053 37.5213 152.792 37.753C152.531 37.9847 152.21 38.1729 151.829 38.3177C151.453 38.4625 151.006 38.5349 150.49 38.5349ZM158.425 34.5602V34.3936C158.425 33.8289 158.507 33.3052 158.671 32.8225C158.835 32.335 159.072 31.9127 159.38 31.5555C159.689 31.1935 160.063 30.9136 160.503 30.7157C160.942 30.513 161.434 30.4116 161.98 30.4116C162.53 30.4116 163.025 30.513 163.464 30.7157C163.908 30.9136 164.284 31.1935 164.593 31.5555C164.907 31.9127 165.146 32.335 165.31 32.8225C165.474 33.3052 165.556 33.8289 165.556 34.3936V34.5602C165.556 35.1249 165.474 35.6486 165.31 36.1312C165.146 36.6139 164.907 37.0362 164.593 37.3983C164.284 37.7554 163.91 38.0354 163.471 38.2381C163.037 38.436 162.544 38.5349 161.994 38.5349C161.444 38.5349 160.949 38.436 160.51 38.2381C160.071 38.0354 159.694 37.7554 159.38 37.3983C159.072 37.0362 158.835 36.6139 158.671 36.1312C158.507 35.6486 158.425 35.1249 158.425 34.5602ZM159.764 34.3936V34.5602C159.764 34.9511 159.81 35.3204 159.902 35.6679C159.993 36.0106 160.131 36.3147 160.314 36.5801C160.503 36.8456 160.737 37.0556 161.017 37.21C161.297 37.3596 161.622 37.4345 161.994 37.4345C162.361 37.4345 162.682 37.3596 162.957 37.21C163.237 37.0556 163.469 36.8456 163.652 36.5801C163.835 36.3147 163.973 36.0106 164.065 35.6679C164.161 35.3204 164.21 34.9511 164.21 34.5602V34.3936C164.21 34.0075 164.161 33.6431 164.065 33.3004C163.973 32.9529 163.833 32.6464 163.645 32.3809C163.461 32.1106 163.23 31.8982 162.95 31.7438C162.675 31.5893 162.351 31.5121 161.98 31.5121C161.613 31.5121 161.289 31.5893 161.009 31.7438C160.734 31.8982 160.503 32.1106 160.314 32.3809C160.131 32.6464 159.993 32.9529 159.902 33.3004C159.81 33.6431 159.764 34.0075 159.764 34.3936ZM169.234 38.3901H167.895V29.731C167.895 29.1663 167.996 28.6909 168.199 28.3048C168.406 27.9138 168.703 27.6194 169.089 27.4215C169.475 27.2188 169.934 27.1174 170.465 27.1174C170.619 27.1174 170.774 27.127 170.928 27.1464C171.088 27.1657 171.242 27.1946 171.392 27.2332L171.319 28.3265C171.218 28.3023 171.102 28.2855 170.972 28.2758C170.846 28.2661 170.721 28.2613 170.595 28.2613C170.31 28.2613 170.064 28.3192 169.857 28.4351C169.654 28.5461 169.5 28.7102 169.393 28.9274C169.287 29.1446 169.234 29.4125 169.234 29.731V38.3901ZM170.899 30.5564V31.5845H166.657V30.5564H170.899ZM179.877 27.8486V38.3901H178.501V27.8486H179.877ZM183.265 27.8486V28.9926H175.12V27.8486H183.265ZM187.153 38.5349C186.608 38.5349 186.113 38.4432 185.669 38.2598C185.23 38.0716 184.851 37.8085 184.532 37.4707C184.219 37.1328 183.977 36.7322 183.808 36.2688C183.639 35.8054 183.555 35.2986 183.555 34.7484V34.4443C183.555 33.8072 183.649 33.2401 183.837 32.7429C184.026 32.2409 184.281 31.8162 184.605 31.4687C184.928 31.1211 185.295 30.8581 185.705 30.6795C186.116 30.5009 186.54 30.4116 186.979 30.4116C187.539 30.4116 188.022 30.5081 188.427 30.7012C188.838 30.8943 189.173 31.1646 189.434 31.5121C189.695 31.8548 189.888 32.2602 190.013 32.7284C190.139 33.1918 190.201 33.6986 190.201 34.2488V34.8498H184.351V33.7565H188.862V33.6551C188.843 33.3076 188.77 32.9698 188.645 32.6415C188.524 32.3133 188.331 32.043 188.065 31.8307C187.8 31.6183 187.438 31.5121 186.979 31.5121C186.675 31.5121 186.395 31.5773 186.14 31.7076C185.884 31.8331 185.664 32.0213 185.481 32.2723C185.297 32.5233 185.155 32.8298 185.054 33.1918C184.952 33.5538 184.902 33.9713 184.902 34.4443V34.7484C184.902 35.1201 184.952 35.47 185.054 35.7982C185.16 36.1216 185.312 36.4064 185.51 36.6525C185.712 36.8987 185.956 37.0918 186.241 37.2317C186.531 37.3717 186.859 37.4417 187.226 37.4417C187.699 37.4417 188.099 37.3452 188.427 37.1521C188.756 36.959 189.043 36.7008 189.289 36.3774L190.1 37.0218C189.931 37.2776 189.716 37.5213 189.456 37.753C189.195 37.9847 188.874 38.1729 188.493 38.3177C188.116 38.4625 187.67 38.5349 187.153 38.5349ZM194.9 37.4345C195.219 37.4345 195.513 37.3693 195.783 37.239C196.054 37.1086 196.276 36.9301 196.449 36.7032C196.623 36.4715 196.722 36.2085 196.746 35.914H198.021C197.996 36.3774 197.84 36.8094 197.55 37.21C197.265 37.6058 196.891 37.9268 196.428 38.1729C195.964 38.4143 195.455 38.5349 194.9 38.5349C194.311 38.5349 193.797 38.4312 193.358 38.2236C192.924 38.0161 192.562 37.7313 192.272 37.3693C191.987 37.0073 191.772 36.5922 191.628 36.124C191.488 35.651 191.418 35.1514 191.418 34.6253V34.3212C191.418 33.7951 191.488 33.298 191.628 32.8298C191.772 32.3568 191.987 31.9393 192.272 31.5773C192.562 31.2153 192.924 30.9305 193.358 30.7229C193.797 30.5154 194.311 30.4116 194.9 30.4116C195.513 30.4116 196.049 30.5371 196.507 30.7881C196.966 31.0343 197.326 31.3721 197.586 31.8017C197.852 32.2264 197.996 32.7091 198.021 33.2497H196.746C196.722 32.9263 196.63 32.6343 196.471 32.3737C196.317 32.113 196.104 31.9055 195.834 31.751C195.569 31.5917 195.257 31.5121 194.9 31.5121C194.49 31.5121 194.145 31.5942 193.865 31.7583C193.59 31.9175 193.37 32.1347 193.206 32.4099C193.047 32.6802 192.931 32.9818 192.858 33.3149C192.791 33.6431 192.757 33.9785 192.757 34.3212V34.6253C192.757 34.968 192.791 35.3059 192.858 35.6389C192.926 35.972 193.039 36.2736 193.199 36.5439C193.363 36.8142 193.582 37.0314 193.858 37.1955C194.137 37.3548 194.485 37.4345 194.9 37.4345ZM200.866 27.2694V38.3901H199.526V27.2694H200.866ZM200.547 34.1764L199.99 34.1547C199.995 33.6189 200.074 33.1242 200.229 32.6705C200.383 32.212 200.6 31.8138 200.88 31.4759C201.16 31.138 201.493 30.8774 201.879 30.694C202.27 30.5057 202.702 30.4116 203.175 30.4116C203.562 30.4116 203.909 30.4647 204.218 30.5709C204.527 30.6723 204.79 30.8364 205.007 31.0632C205.229 31.2901 205.398 31.5845 205.514 31.9465C205.63 32.3037 205.688 32.7405 205.688 33.2569V38.3901H204.341V33.2425C204.341 32.8322 204.281 32.504 204.16 32.2578C204.039 32.0068 203.863 31.8258 203.632 31.7148C203.4 31.599 203.115 31.5411 202.777 31.5411C202.444 31.5411 202.14 31.611 201.865 31.751C201.595 31.891 201.361 32.0841 201.163 32.3302C200.97 32.5764 200.818 32.8587 200.707 33.1773C200.6 33.491 200.547 33.8241 200.547 34.1764ZM209.033 32.2289V38.3901H207.693V30.5564H208.96L209.033 32.2289ZM208.714 34.1764L208.157 34.1547C208.161 33.6189 208.241 33.1242 208.396 32.6705C208.55 32.212 208.767 31.8138 209.047 31.4759C209.327 31.138 209.66 30.8774 210.046 30.694C210.437 30.5057 210.869 30.4116 211.342 30.4116C211.728 30.4116 212.076 30.4647 212.385 30.5709C212.694 30.6723 212.957 30.8364 213.174 31.0632C213.396 31.2901 213.565 31.5845 213.681 31.9465C213.797 32.3037 213.855 32.7405 213.855 33.2569V38.3901H212.508V33.2425C212.508 32.8322 212.448 32.504 212.327 32.2578C212.206 32.0068 212.03 31.8258 211.798 31.7148C211.567 31.599 211.282 31.5411 210.944 31.5411C210.611 31.5411 210.307 31.611 210.032 31.751C209.761 31.891 209.527 32.0841 209.33 32.3302C209.136 32.5764 208.984 32.8587 208.873 33.1773C208.767 33.491 208.714 33.8241 208.714 34.1764ZM215.534 34.5602V34.3936C215.534 33.8289 215.616 33.3052 215.78 32.8225C215.944 32.335 216.181 31.9127 216.49 31.5555C216.799 31.1935 217.173 30.9136 217.612 30.7157C218.051 30.513 218.544 30.4116 219.089 30.4116C219.639 30.4116 220.134 30.513 220.573 30.7157C221.017 30.9136 221.394 31.1935 221.703 31.5555C222.016 31.9127 222.255 32.335 222.419 32.8225C222.584 33.3052 222.666 33.8289 222.666 34.3936V34.5602C222.666 35.1249 222.584 35.6486 222.419 36.1312C222.255 36.6139 222.016 37.0362 221.703 37.3983C221.394 37.7554 221.02 38.0354 220.581 38.2381C220.146 38.436 219.654 38.5349 219.104 38.5349C218.553 38.5349 218.059 38.436 217.619 38.2381C217.18 38.0354 216.804 37.7554 216.49 37.3983C216.181 37.0362 215.944 36.6139 215.78 36.1312C215.616 35.6486 215.534 35.1249 215.534 34.5602ZM216.874 34.3936V34.5602C216.874 34.9511 216.919 35.3204 217.011 35.6679C217.103 36.0106 217.24 36.3147 217.424 36.5801C217.612 36.8456 217.846 37.0556 218.126 37.21C218.406 37.3596 218.732 37.4345 219.104 37.4345C219.47 37.4345 219.791 37.3596 220.066 37.21C220.346 37.0556 220.578 36.8456 220.762 36.5801C220.945 36.3147 221.083 36.0106 221.174 35.6679C221.271 35.3204 221.319 34.9511 221.319 34.5602V34.3936C221.319 34.0075 221.271 33.6431 221.174 33.3004C221.083 32.9529 220.943 32.6464 220.754 32.3809C220.571 32.1106 220.339 31.8982 220.059 31.7438C219.784 31.5893 219.461 31.5121 219.089 31.5121C218.722 31.5121 218.399 31.5893 218.119 31.7438C217.844 31.8982 217.612 32.1106 217.424 32.3809C217.24 32.6464 217.103 32.9529 217.011 33.3004C216.919 33.6431 216.874 34.0075 216.874 34.3936ZM225.801 27.2694V38.3901H224.454V27.2694H225.801ZM227.596 34.5602V34.3936C227.596 33.8289 227.678 33.3052 227.842 32.8225C228.006 32.335 228.243 31.9127 228.552 31.5555C228.861 31.1935 229.235 30.9136 229.674 30.7157C230.113 30.513 230.606 30.4116 231.151 30.4116C231.701 30.4116 232.196 30.513 232.635 30.7157C233.079 30.9136 233.456 31.1935 233.765 31.5555C234.078 31.9127 234.317 32.335 234.481 32.8225C234.646 33.3052 234.728 33.8289 234.728 34.3936V34.5602C234.728 35.1249 234.646 35.6486 234.481 36.1312C234.317 36.6139 234.078 37.0362 233.765 37.3983C233.456 37.7554 233.082 38.0354 232.642 38.2381C232.208 38.436 231.716 38.5349 231.165 38.5349C230.615 38.5349 230.12 38.436 229.681 38.2381C229.242 38.0354 228.866 37.7554 228.552 37.3983C228.243 37.0362 228.006 36.6139 227.842 36.1312C227.678 35.6486 227.596 35.1249 227.596 34.5602ZM228.936 34.3936V34.5602C228.936 34.9511 228.981 35.3204 229.073 35.6679C229.165 36.0106 229.302 36.3147 229.486 36.5801C229.674 36.8456 229.908 37.0556 230.188 37.21C230.468 37.3596 230.794 37.4345 231.165 37.4345C231.532 37.4345 231.853 37.3596 232.128 37.21C232.408 37.0556 232.64 36.8456 232.823 36.5801C233.007 36.3147 233.144 36.0106 233.236 35.6679C233.333 35.3204 233.381 34.9511 233.381 34.5602V34.3936C233.381 34.0075 233.333 33.6431 233.236 33.3004C233.144 32.9529 233.004 32.6464 232.816 32.3809C232.633 32.1106 232.401 31.8982 232.121 31.7438C231.846 31.5893 231.523 31.5121 231.151 31.5121C230.784 31.5121 230.461 31.5893 230.181 31.7438C229.906 31.8982 229.674 32.1106 229.486 32.3809C229.302 32.6464 229.165 32.9529 229.073 33.3004C228.981 33.6431 228.936 34.0075 228.936 34.3936ZM241.483 30.5564H242.699V38.2236C242.699 38.9138 242.559 39.5027 242.279 39.9902C241.999 40.4777 241.608 40.8469 241.106 41.0979C240.609 41.3537 240.035 41.4816 239.383 41.4816C239.113 41.4816 238.794 41.4382 238.427 41.3513C238.065 41.2693 237.708 41.1269 237.356 40.9242C237.008 40.7263 236.716 40.4584 236.48 40.1205L237.182 39.3241C237.51 39.7199 237.853 39.995 238.21 40.1495C238.572 40.3039 238.929 40.3811 239.282 40.3811C239.706 40.3811 240.073 40.3015 240.382 40.1422C240.691 39.9829 240.93 39.7464 241.099 39.4327C241.273 39.1238 241.359 38.7425 241.359 38.2888V32.2795L241.483 30.5564ZM236.089 34.5602V34.4081C236.089 33.8096 236.159 33.2666 236.299 32.7791C236.443 32.2868 236.649 31.8644 236.914 31.5121C237.184 31.1597 237.51 30.8895 237.891 30.7012C238.273 30.5081 238.702 30.4116 239.18 30.4116C239.673 30.4116 240.102 30.4985 240.469 30.6723C240.841 30.8412 241.154 31.0898 241.41 31.418C241.671 31.7414 241.876 32.1323 242.026 32.5909C242.175 33.0494 242.279 33.5683 242.337 34.1475V34.8136C242.284 35.3879 242.18 35.9044 242.026 36.3629C241.876 36.8215 241.671 37.2124 241.41 37.5358C241.154 37.8592 240.841 38.1078 240.469 38.2815C240.097 38.4505 239.663 38.5349 239.166 38.5349C238.698 38.5349 238.273 38.436 237.891 38.2381C237.515 38.0402 237.192 37.7627 236.921 37.4055C236.651 37.0483 236.443 36.6284 236.299 36.1457C236.159 35.6582 236.089 35.1297 236.089 34.5602ZM237.428 34.4081V34.5602C237.428 34.9511 237.467 35.3179 237.544 35.6606C237.626 36.0033 237.749 36.305 237.913 36.5656C238.082 36.8263 238.297 37.0314 238.558 37.181C238.818 37.3259 239.13 37.3983 239.492 37.3983C239.936 37.3983 240.302 37.3041 240.592 37.1159C240.882 36.9276 241.111 36.6791 241.28 36.3702C241.454 36.0613 241.589 35.7258 241.685 35.3638V33.6189C241.632 33.3535 241.55 33.0977 241.439 32.8515C241.333 32.6005 241.193 32.3785 241.019 32.1854C240.85 31.9875 240.64 31.8307 240.389 31.7148C240.138 31.599 239.844 31.5411 239.506 31.5411C239.139 31.5411 238.823 31.6183 238.558 31.7727C238.297 31.9224 238.082 32.1299 237.913 32.3954C237.749 32.656 237.626 32.9601 237.544 33.3076C237.467 33.6503 237.428 34.0172 237.428 34.4081ZM246.934 37.5793L249.114 30.5564H250.547L247.405 39.5992C247.332 39.7923 247.236 39.9998 247.115 40.2219C246.999 40.4487 246.85 40.6635 246.666 40.8662C246.483 41.069 246.261 41.2331 246 41.3586C245.744 41.4889 245.438 41.554 245.081 41.554C244.975 41.554 244.839 41.5396 244.675 41.5106C244.511 41.4816 244.395 41.4575 244.328 41.4382L244.321 40.3522C244.359 40.357 244.42 40.3618 244.502 40.3667C244.588 40.3763 244.649 40.3811 244.683 40.3811C244.987 40.3811 245.245 40.3401 245.457 40.2581C245.67 40.1808 245.848 40.0481 245.993 39.8599C246.143 39.6765 246.271 39.423 246.377 39.0997L246.934 37.5793ZM245.334 30.5564L247.369 36.638L247.716 38.0499L246.753 38.5422L243.872 30.5564H245.334Z" fill="#656C73"/>
</svg>
