<svg width="33" height="25" viewBox="0 0 33 25" fill="none" xmlns="http://www.w3.org/2000/svg">
<path d="M29.5832 3.14478L29.583 3.14498L29.582 3.14573L29.2125 3.42051V3.42072L17.0841 12.4483L17.084 12.4484C16.8861 12.5957 16.6374 12.679 16.3769 12.679C16.1166 12.679 15.868 12.5958 15.6701 12.4486C15.67 12.4485 15.6699 12.4484 15.6699 12.4484L3.17921 3.14223L3.17855 3.14173L2.94152 2.9648L3.21836 2.62392L4.07629 3.26355L4.32082 3.44586H4.32208L15.8332 12.0205L16.3824 12.4296L16.9317 12.0205L28.4428 3.44586H28.4477L28.6922 3.26355L29.5479 2.62562L29.8237 2.96528L29.5832 3.14478ZM4.9319 1.60702L4.00962 0.919421H28.756L27.8331 1.60702H4.9319ZM2.22727 0.919421L0.919421 2.5298V1.12131C0.919421 1.04543 0.993346 0.919421 1.17017 0.919421H2.22727ZM0.919421 23.5474V3.75082L1.07364 3.86593L1.71347 4.34354V22.1458V23.0652H2.63289H30.132H31.0514V22.1458V4.34454L31.6936 3.86689L31.8454 3.75396V23.5474C31.8454 23.6233 31.7715 23.7493 31.5947 23.7493H1.17017C0.993346 23.7493 0.919421 23.6233 0.919421 23.5474ZM31.8454 2.53331L30.5347 0.919421H31.5947C31.7715 0.919421 31.8454 1.04544 31.8454 1.12131V2.53331Z" stroke="white" stroke-width="1.83884"/>
</svg>
