<svg width="30" height="28" viewBox="0 0 30 28" fill="none" xmlns="http://www.w3.org/2000/svg">
<path d="M28.1438 11.0286H25.9602C25.9579 9.08695 25.1519 7.22547 23.7192 5.85252C22.2864 4.47957 20.3438 3.70728 18.3175 3.70506V1.61263C20.9227 1.6154 23.4204 2.60832 25.2626 4.37356C27.1047 6.13879 28.1409 8.53217 28.1438 11.0286ZM25.9602 27.7681H25.7746C4.32047 26.5859 1.27431 9.23956 0.848502 3.94569C0.781952 3.11578 1.06215 2.29452 1.62747 1.66256C2.19279 1.03059 2.99692 0.639688 3.863 0.575823C3.94962 0.569546 4.0366 0.566407 4.12394 0.566407H9.8778C10.3151 0.566002 10.7425 0.691441 11.1046 0.926476C11.4667 1.16151 11.7468 1.49531 11.9086 1.88464L13.5681 5.7975C13.7279 6.17785 13.7676 6.5948 13.6822 6.99656C13.5968 7.39832 13.39 7.76719 13.0877 8.05733L10.7622 10.3067C11.124 12.2854 12.1121 14.1097 13.5925 15.5321C15.073 16.9544 16.9741 17.9061 19.0381 18.258L21.4073 16.0086C21.7147 15.7221 22.1032 15.5286 22.5246 15.4524C22.9459 15.3761 23.3813 15.4203 23.7766 15.5796L27.8927 17.1594C28.2929 17.3194 28.6343 17.5899 28.8735 17.9364C29.1126 18.283 29.2387 18.6899 29.2356 19.1054V24.6294C29.2356 25.4619 28.8906 26.2602 28.2763 26.8488C27.662 27.4374 26.8289 27.7681 25.9602 27.7681ZM4.12394 2.65884C3.98056 2.65843 3.8385 2.68508 3.70587 2.73728C3.57324 2.78948 3.45264 2.8662 3.35095 2.96305C3.24926 3.05991 3.16848 3.17502 3.11321 3.30179C3.05795 3.42857 3.02928 3.56453 3.02885 3.70193C3.02885 3.73122 3.02994 3.76016 3.03213 3.78876C3.53436 9.98238 6.75521 24.6294 25.8947 25.6757C26.1837 25.6922 26.4677 25.5982 26.6843 25.4142C26.9009 25.2301 27.0324 24.9712 27.0498 24.6943L27.052 24.6294V19.1054L22.9359 17.5256L19.8024 20.5073L19.2783 20.4446C9.77953 19.3042 8.49119 10.2021 8.49119 10.1079L8.42568 9.60574L11.5264 6.60309L9.88871 2.65884H4.12394Z" fill="white"/>
</svg>
