<svg width="537" height="542" viewBox="0 0 537 542" fill="none" xmlns="http://www.w3.org/2000/svg">
<g filter="url(#filter0_f_324_3273)">
<rect x="35" y="35" width="467" height="472" rx="20.5714" fill="#AAAAAA" fill-opacity="0.3"/>
</g>
<rect x="47.2857" y="4.28571" width="442.429" height="476.429" rx="22.2857" fill="white" stroke="#1E1E1E" stroke-width="3.42857"/>
<mask id="mask0_324_3273" style="mask-type:alpha" maskUnits="userSpaceOnUse" x="49" y="6" width="439" height="473">
<rect x="50.7143" y="7.71429" width="435.571" height="469.571" rx="18.8571" fill="#E44141" stroke="black" stroke-width="3.42857"/>
</mask>
<g mask="url(#mask0_324_3273)">
<path d="M262.248 -49.3423H465.286L554 5.49951L262.248 482.086V-49.3423Z" fill="#6A9DFF" stroke="#1E1E1E" stroke-width="2.74286"/>
<path d="M483.333 -4.29834L666.872 82.5227L624.714 168.371L262.999 482.086L483.333 -4.29834Z" fill="#FFBE00" stroke="#1E1E1E" stroke-width="2.74286"/>
<path d="M636.977 156.56L700.961 257.515L749.856 341.515L264.713 480.372L636.977 156.56Z" fill="#F85F53" stroke="#1E1E1E" stroke-width="2.74286"/>
<path d="M677.856 360.372L571.571 463.229L562.999 482.087L262.999 482.087L677.856 360.372Z" fill="#6A9DFF" stroke="#1E1E1E" stroke-width="2.74286"/>
<path d="M-150.143 360.372L-43.8568 463.229L-35.2854 482.087L264.715 482.087L-150.143 360.372Z" fill="#6A9DFF" stroke="#1E1E1E" stroke-width="2.74286"/>
<path d="M-105.474 160.146L-169.457 261.101L-218.353 345.101L266.79 483.958L-105.474 160.146Z" fill="#FFBE00" stroke="#1E1E1E" stroke-width="2.74286"/>
<path d="M262.037 -49.3423H58.9991L5.99976 -27.0005L262.037 482.086V-49.3423Z" fill="#45D26B" stroke="#1E1E1E" stroke-width="2.74286"/>
<path d="M43.6807 -4.29785L-139.858 82.5232L-97.6995 168.372L264.015 482.086L43.6807 -4.29785Z" fill="#F85F53" stroke="#1E1E1E" stroke-width="2.74286"/>
</g>
<path d="M75.6615 218.644H92.0416C95.7535 218.644 99.0986 219.205 102.077 220.327C105.055 221.449 107.58 223.025 109.652 225.053C111.724 227.082 113.299 229.521 114.378 232.369C115.5 235.218 116.061 238.369 116.061 241.822C116.061 245.275 115.5 248.426 114.378 251.274C113.299 254.123 111.724 256.562 109.652 258.59C107.58 260.619 105.055 262.194 102.077 263.317C99.0986 264.439 95.7535 265 92.0416 265H75.6615V218.644ZM91.5236 255.418C94.027 255.418 96.1851 255.094 97.998 254.447C99.8108 253.756 101.3 252.807 102.465 251.598C103.674 250.39 104.559 248.965 105.12 247.325C105.681 245.642 105.961 243.807 105.961 241.822C105.961 239.836 105.681 238.024 105.12 236.383C104.559 234.7 103.674 233.254 102.465 232.046C101.3 230.837 99.8108 229.909 97.998 229.262C96.1851 228.571 94.027 228.226 91.5236 228.226H85.7615V255.418H91.5236ZM133.244 228.226V237.031H151.631V246.613H133.244V255.418H153.703V265H123.144V218.644H153.703V228.226H133.244ZM157.827 218.644H168.704L177.509 244.153L179.257 250.627H179.905L181.782 244.153L190.976 218.644H201.853L184.89 265H174.272L157.827 218.644ZM213.538 266.036C211.639 266.036 209.848 265.755 208.165 265.194C206.525 264.676 205.014 263.921 203.633 262.928C202.252 261.892 201.043 260.684 200.007 259.303C199.014 257.878 198.259 256.303 197.741 254.576L206.935 250.821C207.366 252.461 208.122 253.821 209.201 254.9C210.28 255.936 211.726 256.454 213.538 256.454C215.308 256.454 216.689 255.936 217.682 254.9C218.675 253.821 219.171 252.181 219.171 249.98V218.644H229.271V250.109C229.271 252.742 228.839 255.051 227.976 257.037C227.156 259.022 226.012 260.684 224.545 262.022C223.12 263.36 221.459 264.353 219.56 265C217.66 265.691 215.653 266.036 213.538 266.036ZM250.67 218.644H262.324L279.675 265H268.539L264.979 254.641H248.016L244.455 265H233.319L250.67 218.644ZM261.741 245.448L258.375 235.736L256.821 230.039H256.173L254.62 235.736L251.253 245.448H261.741ZM285.129 218.644H295.099L308.307 241.304H308.954L322.162 218.644H332.132V265H322.162V244.476L322.809 236.707H322.162L311.609 255.159H305.652L295.099 236.707H294.452L295.099 244.476V265H285.129V218.644ZM356.16 266.036C351.844 266.036 348.11 264.892 344.959 262.604C341.852 260.274 339.65 256.95 338.355 252.634L347.873 248.879C348.434 251.08 349.362 252.893 350.657 254.317C351.952 255.742 353.786 256.454 356.16 256.454C356.937 256.454 357.67 256.368 358.361 256.195C359.095 256.022 359.721 255.763 360.239 255.418C360.8 255.03 361.253 254.555 361.598 253.994C361.944 253.433 362.116 252.785 362.116 252.051C362.116 251.318 361.965 250.649 361.663 250.044C361.404 249.397 360.951 248.814 360.303 248.296C359.656 247.735 358.793 247.196 357.714 246.678C356.635 246.117 355.275 245.534 353.635 244.93L350.786 243.894C349.578 243.462 348.326 242.879 347.031 242.146C345.779 241.369 344.636 240.441 343.6 239.362C342.564 238.283 341.722 237.052 341.075 235.671C340.427 234.247 340.103 232.672 340.103 230.945C340.103 229.089 340.47 227.341 341.204 225.701C341.938 224.061 342.974 222.658 344.312 221.493C345.65 220.284 347.268 219.334 349.168 218.644C351.067 217.953 353.16 217.608 355.448 217.608C357.865 217.608 359.937 217.932 361.663 218.579C363.389 219.183 364.857 219.982 366.066 220.975C367.274 221.924 368.224 223.003 368.914 224.212C369.648 225.42 370.209 226.586 370.598 227.708L361.857 231.398C361.382 230.017 360.627 228.916 359.591 228.096C358.555 227.233 357.217 226.801 355.577 226.801C353.851 226.801 352.469 227.168 351.434 227.902C350.441 228.593 349.944 229.499 349.944 230.621C349.944 231.787 350.462 232.823 351.498 233.729C352.534 234.635 354.369 235.542 357.001 236.448L359.85 237.419C363.778 238.757 366.821 240.549 368.979 242.793C371.137 245.037 372.216 248.059 372.216 251.857C372.216 254.274 371.72 256.368 370.727 258.137C369.777 259.907 368.526 261.374 366.972 262.54C365.461 263.705 363.735 264.568 361.792 265.129C359.893 265.734 358.016 266.036 356.16 266.036ZM378.039 234.571L381.406 229.456C380.327 228.981 379.463 228.247 378.816 227.255C378.168 226.219 377.845 225.075 377.845 223.823C377.845 222.097 378.449 220.629 379.658 219.421C380.866 218.212 382.334 217.608 384.06 217.608C385.787 217.608 387.254 218.212 388.463 219.421C389.671 220.629 390.275 222.097 390.275 223.823C390.275 224.6 390.146 225.291 389.887 225.895C389.671 226.499 389.304 227.168 388.786 227.902L382.377 237.419L378.039 234.571ZM409.963 256.713H426.602V265H396.561V256.454C399.151 253.907 401.546 251.555 403.748 249.397C404.697 248.49 405.647 247.562 406.596 246.613C407.503 245.663 408.344 244.8 409.121 244.023C409.941 243.203 410.654 242.491 411.258 241.887C411.905 241.239 412.38 240.743 412.682 240.398C413.934 239.016 414.819 237.808 415.337 236.772C415.855 235.693 416.114 234.527 416.114 233.276C416.114 232.024 415.639 230.967 414.689 230.103C413.783 229.197 412.51 228.744 410.869 228.744C409.229 228.744 407.913 229.219 406.92 230.168C405.971 231.075 405.258 232.283 404.784 233.794L395.978 230.168C396.367 228.83 396.971 227.535 397.791 226.284C398.611 225.032 399.647 223.931 400.899 222.982C402.151 221.989 403.618 221.19 405.301 220.586C407.028 219.982 408.927 219.68 410.999 219.68C413.33 219.68 415.423 220.025 417.279 220.716C419.135 221.363 420.689 222.269 421.941 223.435C423.235 224.6 424.228 225.981 424.919 227.578C425.609 229.175 425.955 230.902 425.955 232.758C425.955 235.434 425.329 237.916 424.077 240.203C422.869 242.448 421.164 244.671 418.962 246.872L409.639 256.065L409.963 256.713ZM446.002 256.713H462.641V265H432.6V256.454C435.19 253.907 437.585 251.555 439.786 249.397C440.736 248.49 441.686 247.562 442.635 246.613C443.541 245.663 444.383 244.8 445.16 244.023C445.98 243.203 446.692 242.491 447.297 241.887C447.944 241.239 448.419 240.743 448.721 240.398C449.973 239.016 450.857 237.808 451.375 236.772C451.893 235.693 452.152 234.527 452.152 233.276C452.152 232.024 451.678 230.967 450.728 230.103C449.822 229.197 448.548 228.744 446.908 228.744C445.268 228.744 443.952 229.219 442.959 230.168C442.009 231.075 441.297 232.283 440.822 233.794L432.017 230.168C432.406 228.83 433.01 227.535 433.83 226.284C434.65 225.032 435.686 223.931 436.938 222.982C438.189 221.989 439.657 221.19 441.34 220.586C443.067 219.982 444.966 219.68 447.038 219.68C449.368 219.68 451.462 220.025 453.318 220.716C455.174 221.363 456.728 222.269 457.979 223.435C459.274 224.6 460.267 225.981 460.957 227.578C461.648 229.175 461.993 230.902 461.993 232.758C461.993 235.434 461.367 237.916 460.116 240.203C458.907 242.448 457.202 244.671 455.001 246.872L445.678 256.065L446.002 256.713Z" fill="white"/>
<path d="M75.6615 218.644V217.144H74.1615V218.644H75.6615ZM102.077 220.327L102.606 218.923L102.077 220.327ZM109.652 225.053L108.602 226.125L109.652 225.053ZM114.378 232.369L112.975 232.901L112.979 232.91L112.982 232.919L114.378 232.369ZM114.378 251.274L112.982 250.725L112.979 250.734L112.975 250.743L114.378 251.274ZM109.652 258.59L108.602 257.519L109.652 258.59ZM75.6615 265H74.1615V266.5H75.6615V265ZM97.998 254.447L98.5025 255.859L98.5173 255.854L98.5319 255.849L97.998 254.447ZM102.465 251.598L101.405 250.537L101.395 250.547L101.385 250.557L102.465 251.598ZM105.12 247.325L106.539 247.811L106.543 247.799L105.12 247.325ZM105.12 236.383L103.697 236.858L103.7 236.869L105.12 236.383ZM102.465 232.046L101.385 233.087L101.395 233.097L101.405 233.106L102.465 232.046ZM97.998 229.262L97.464 230.663L97.4786 230.669L97.4934 230.674L97.998 229.262ZM85.7615 228.226V226.726H84.2615V228.226H85.7615ZM85.7615 255.418H84.2615V256.918H85.7615V255.418ZM75.6615 220.144H92.0416V217.144H75.6615V220.144ZM92.0416 220.144C95.6024 220.144 98.7643 220.682 101.548 221.731L102.606 218.923C99.4329 217.728 95.9047 217.144 92.0416 217.144V220.144ZM101.548 221.731C104.351 222.787 106.693 224.256 108.602 226.125L110.701 223.982C108.467 221.794 105.759 220.112 102.606 218.923L101.548 221.731ZM108.602 226.125C110.511 227.994 111.969 230.245 112.975 232.901L115.781 231.838C114.629 228.796 112.936 226.17 110.701 223.982L108.602 226.125ZM112.982 232.919C114.027 235.572 114.561 238.533 114.561 241.822H117.561C117.561 238.205 116.973 234.864 115.774 231.82L112.982 232.919ZM114.561 241.822C114.561 245.111 114.027 248.072 112.982 250.725L115.774 251.824C116.973 248.779 117.561 245.439 117.561 241.822H114.561ZM112.975 250.743C111.969 253.399 110.511 255.65 108.602 257.519L110.701 259.662C112.936 257.474 114.629 254.848 115.781 251.806L112.975 250.743ZM108.602 257.519C106.693 259.388 104.351 260.857 101.548 261.913L102.606 264.72C105.759 263.532 108.467 261.85 110.701 259.662L108.602 257.519ZM101.548 261.913C98.7643 262.962 95.6024 263.5 92.0416 263.5V266.5C95.9047 266.5 99.4329 265.916 102.606 264.72L101.548 261.913ZM92.0416 263.5H75.6615V266.5H92.0416V263.5ZM77.1615 265V218.644H74.1615V265H77.1615ZM91.5236 256.918C94.1501 256.918 96.4873 256.579 98.5025 255.859L97.4935 253.034C95.883 253.609 93.904 253.918 91.5236 253.918V256.918ZM98.5319 255.849C100.519 255.092 102.204 254.03 103.545 252.639L101.385 250.557C100.395 251.584 99.1025 252.421 97.464 253.045L98.5319 255.849ZM103.526 252.659C104.899 251.286 105.905 249.664 106.539 247.811L103.7 246.84C103.212 248.266 102.449 249.493 101.405 250.537L103.526 252.659ZM106.543 247.799C107.161 245.946 107.461 243.95 107.461 241.822H104.461C104.461 243.665 104.201 245.337 103.697 246.851L106.543 247.799ZM107.461 241.822C107.461 239.695 107.161 237.715 106.539 235.898L103.7 236.869C104.201 238.332 104.461 239.978 104.461 241.822H107.461ZM106.543 235.909C105.911 234.014 104.905 232.365 103.526 230.985L101.405 233.106C102.442 234.144 103.206 235.387 103.697 236.858L106.543 235.909ZM103.545 231.004C102.197 229.607 100.501 228.563 98.5025 227.849L97.4934 230.674C99.1205 231.255 100.403 232.068 101.385 233.087L103.545 231.004ZM98.5319 227.86C96.5071 227.089 94.1591 226.726 91.5236 226.726V229.726C93.895 229.726 95.8632 230.054 97.464 230.663L98.5319 227.86ZM91.5236 226.726H85.7615V229.726H91.5236V226.726ZM84.2615 228.226V255.418H87.2615V228.226H84.2615ZM85.7615 256.918H91.5236V253.918H85.7615V256.918ZM133.244 228.226V226.726H131.744V228.226H133.244ZM133.244 237.031H131.744V238.531H133.244V237.031ZM151.631 237.031H153.131V235.531H151.631V237.031ZM151.631 246.613V248.113H153.131V246.613H151.631ZM133.244 246.613V245.113H131.744V246.613H133.244ZM133.244 255.418H131.744V256.918H133.244V255.418ZM153.703 255.418H155.203V253.918H153.703V255.418ZM153.703 265V266.5H155.203V265H153.703ZM123.144 265H121.644V266.5H123.144V265ZM123.144 218.644V217.144H121.644V218.644H123.144ZM153.703 218.644H155.203V217.144H153.703V218.644ZM153.703 228.226V229.726H155.203V228.226H153.703ZM131.744 228.226V237.031H134.744V228.226H131.744ZM133.244 238.531H151.631V235.531H133.244V238.531ZM150.131 237.031V246.613H153.131V237.031H150.131ZM151.631 245.113H133.244V248.113H151.631V245.113ZM131.744 246.613V255.418H134.744V246.613H131.744ZM133.244 256.918H153.703V253.918H133.244V256.918ZM152.203 255.418V265H155.203V255.418H152.203ZM153.703 263.5H123.144V266.5H153.703V263.5ZM124.644 265V218.644H121.644V265H124.644ZM123.144 220.144H153.703V217.144H123.144V220.144ZM152.203 218.644V228.226H155.203V218.644H152.203ZM153.703 226.726H133.244V229.726H153.703V226.726ZM157.827 218.644V217.144H155.704L156.414 219.145L157.827 218.644ZM168.704 218.644L170.122 218.154L169.773 217.144H168.704V218.644ZM177.509 244.153L178.957 243.762L178.944 243.712L178.927 243.663L177.509 244.153ZM179.257 250.627L177.809 251.018L178.109 252.127H179.257V250.627ZM179.905 250.627V252.127H181.032L181.345 251.045L179.905 250.627ZM181.782 244.153L180.371 243.644L180.355 243.689L180.342 243.735L181.782 244.153ZM190.976 218.644V217.144H189.922L189.565 218.135L190.976 218.644ZM201.853 218.644L203.261 219.159L203.999 217.144H201.853V218.644ZM184.89 265V266.5H185.938L186.299 265.515L184.89 265ZM174.272 265L172.858 265.502L173.213 266.5H174.272V265ZM157.827 220.144H168.704V217.144H157.827V220.144ZM167.286 219.133L176.091 244.642L178.927 243.663L170.122 218.154L167.286 219.133ZM176.061 244.544L177.809 251.018L180.706 250.236L178.957 243.762L176.061 244.544ZM179.257 252.127H179.905V249.127H179.257V252.127ZM181.345 251.045L183.223 244.57L180.342 243.735L178.464 250.209L181.345 251.045ZM183.194 244.661L192.387 219.152L189.565 218.135L180.371 243.644L183.194 244.661ZM190.976 220.144H201.853V217.144H190.976V220.144ZM200.444 218.128L183.481 264.485L186.299 265.515L203.261 219.159L200.444 218.128ZM184.89 263.5H174.272V266.5H184.89V263.5ZM175.686 264.498L159.241 218.142L156.414 219.145L172.858 265.502L175.686 264.498ZM208.165 265.194L208.639 263.771L208.628 263.767L208.616 263.764L208.165 265.194ZM203.633 262.928L202.733 264.128L202.745 264.137L202.757 264.146L203.633 262.928ZM200.007 259.303L198.776 260.16L198.791 260.182L198.807 260.203L200.007 259.303ZM197.741 254.576L197.174 253.188L195.913 253.703L196.304 255.007L197.741 254.576ZM206.935 250.821L208.385 250.439L207.95 248.786L206.367 249.433L206.935 250.821ZM209.201 254.9L208.14 255.961L208.151 255.972L208.162 255.982L209.201 254.9ZM217.682 254.9L218.765 255.938L218.776 255.927L218.786 255.916L217.682 254.9ZM219.171 218.644V217.144H217.671V218.644H219.171ZM229.271 218.644H230.771V217.144H229.271V218.644ZM227.976 257.037L226.601 256.438L226.595 256.451L226.59 256.464L227.976 257.037ZM224.545 262.022L223.534 260.913L223.526 260.921L223.518 260.929L224.545 262.022ZM219.56 265L219.076 263.58L219.061 263.585L219.047 263.59L219.56 265ZM213.538 264.536C211.789 264.536 210.159 264.278 208.639 263.771L207.69 266.617C209.537 267.233 211.489 267.536 213.538 267.536V264.536ZM208.616 263.764C207.126 263.293 205.759 262.609 204.508 261.71L202.757 264.146C204.269 265.233 205.923 266.059 207.713 266.625L208.616 263.764ZM204.533 261.728C203.265 260.778 202.158 259.67 201.207 258.403L198.807 260.203C199.928 261.697 201.238 263.007 202.733 264.128L204.533 261.728ZM201.238 258.445C200.339 257.156 199.652 255.725 199.178 254.145L196.304 255.007C196.866 256.88 197.689 258.601 198.776 260.16L201.238 258.445ZM198.308 255.965L207.502 252.21L206.367 249.433L197.174 253.188L198.308 255.965ZM205.484 251.203C205.975 253.071 206.853 254.674 208.14 255.961L210.261 253.839C209.39 252.968 208.757 251.852 208.385 250.439L205.484 251.203ZM208.162 255.982C209.577 257.341 211.425 257.954 213.538 257.954V254.954C212.026 254.954 210.982 254.531 210.239 253.818L208.162 255.982ZM213.538 257.954C215.615 257.954 217.426 257.335 218.765 255.938L216.599 253.862C215.953 254.537 215.001 254.954 213.538 254.954V257.954ZM218.786 255.916C220.135 254.449 220.671 252.373 220.671 249.98H217.671C217.671 251.989 217.214 253.193 216.578 253.884L218.786 255.916ZM220.671 249.98V218.644H217.671V249.98H220.671ZM219.171 220.144H229.271V217.144H219.171V220.144ZM227.771 218.644V250.109H230.771V218.644H227.771ZM227.771 250.109C227.771 252.58 227.366 254.678 226.601 256.438L229.352 257.635C230.313 255.424 230.771 252.904 230.771 250.109H227.771ZM226.59 256.464C225.847 258.262 224.825 259.736 223.534 260.913L225.555 263.13C227.199 261.632 228.465 259.782 229.363 257.609L226.59 256.464ZM223.518 260.929C222.253 262.116 220.778 263 219.076 263.58L220.044 266.42C222.139 265.705 223.988 264.603 225.572 263.115L223.518 260.929ZM219.047 263.59C217.32 264.218 215.487 264.536 213.538 264.536V267.536C215.82 267.536 218.001 267.163 220.072 266.41L219.047 263.59ZM250.67 218.644V217.144H249.63L249.265 218.118L250.67 218.644ZM262.324 218.644L263.729 218.118L263.364 217.144H262.324V218.644ZM279.675 265V266.5H281.838L281.08 264.474L279.675 265ZM268.539 265L267.121 265.488L267.469 266.5H268.539V265ZM264.979 254.641L266.397 254.153L266.049 253.141H264.979V254.641ZM248.016 254.641V253.141H246.945L246.597 254.153L248.016 254.641ZM244.455 265V266.5H245.525L245.873 265.488L244.455 265ZM233.319 265L231.914 264.474L231.156 266.5H233.319V265ZM261.741 245.448V246.948H263.849L263.159 244.956L261.741 245.448ZM258.375 235.736L256.928 236.131L256.941 236.18L256.957 236.227L258.375 235.736ZM256.821 230.039L258.268 229.644L257.967 228.539H256.821V230.039ZM256.173 230.039V228.539H255.028L254.726 229.644L256.173 230.039ZM254.62 235.736L256.037 236.227L256.053 236.18L256.067 236.131L254.62 235.736ZM251.253 245.448L249.836 244.956L249.145 246.948H251.253V245.448ZM250.67 220.144H262.324V217.144H250.67V220.144ZM260.919 219.17L278.27 265.526L281.08 264.474L263.729 218.118L260.919 219.17ZM279.675 263.5H268.539V266.5H279.675V263.5ZM269.958 264.512L266.397 254.153L263.56 255.129L267.121 265.488L269.958 264.512ZM264.979 253.141H248.016V256.141H264.979V253.141ZM246.597 254.153L243.036 264.512L245.873 265.488L249.434 255.129L246.597 254.153ZM244.455 263.5H233.319V266.5H244.455V263.5ZM234.724 265.526L252.075 219.17L249.265 218.118L231.914 264.474L234.724 265.526ZM263.159 244.956L259.792 235.245L256.957 236.227L260.324 245.939L263.159 244.956ZM259.822 235.341L258.268 229.644L255.374 230.433L256.928 236.131L259.822 235.341ZM256.821 228.539H256.173V231.539H256.821V228.539ZM254.726 229.644L253.172 235.341L256.067 236.131L257.621 230.433L254.726 229.644ZM253.202 235.245L249.836 244.956L252.67 245.939L256.037 236.227L253.202 235.245ZM251.253 246.948H261.741V243.948H251.253V246.948ZM285.129 218.644V217.144H283.629V218.644H285.129ZM295.099 218.644L296.395 217.888L295.961 217.144H295.099V218.644ZM308.307 241.304L307.011 242.059L307.445 242.804H308.307V241.304ZM308.954 241.304V242.804H309.816L310.25 242.059L308.954 241.304ZM322.162 218.644V217.144H321.3L320.866 217.888L322.162 218.644ZM332.132 218.644H333.632V217.144H332.132V218.644ZM332.132 265V266.5H333.632V265H332.132ZM322.162 265H320.662V266.5H322.162V265ZM322.162 244.476L320.667 244.352L320.662 244.414V244.476H322.162ZM322.809 236.707L324.304 236.832L324.44 235.207H322.809V236.707ZM322.162 236.707V235.207H321.292L320.86 235.962L322.162 236.707ZM311.609 255.159V256.659H312.479L312.911 255.904L311.609 255.159ZM305.652 255.159L304.35 255.904L304.782 256.659H305.652V255.159ZM295.099 236.707L296.401 235.962L295.969 235.207H295.099V236.707ZM294.452 236.707V235.207H292.822L292.957 236.832L294.452 236.707ZM295.099 244.476H296.599V244.414L296.594 244.352L295.099 244.476ZM295.099 265V266.5H296.599V265H295.099ZM285.129 265H283.629V266.5H285.129V265ZM285.129 220.144H295.099V217.144H285.129V220.144ZM293.803 219.399L307.011 242.059L309.603 240.549L296.395 217.888L293.803 219.399ZM308.307 242.804H308.954V239.804H308.307V242.804ZM310.25 242.059L323.458 219.399L320.866 217.888L307.658 240.549L310.25 242.059ZM322.162 220.144H332.132V217.144H322.162V220.144ZM330.632 218.644V265H333.632V218.644H330.632ZM332.132 263.5H322.162V266.5H332.132V263.5ZM323.662 265V244.476H320.662V265H323.662ZM323.657 244.601L324.304 236.832L321.315 236.583L320.667 244.352L323.657 244.601ZM322.809 235.207H322.162V238.207H322.809V235.207ZM320.86 235.962L310.307 254.414L312.911 255.904L323.464 237.452L320.86 235.962ZM311.609 253.659H305.652V256.659H311.609V253.659ZM306.955 254.414L296.401 235.962L293.797 237.452L304.35 255.904L306.955 254.414ZM295.099 235.207H294.452V238.207H295.099V235.207ZM292.957 236.832L293.604 244.601L296.594 244.352L295.947 236.583L292.957 236.832ZM293.599 244.476V265H296.599V244.476H293.599ZM295.099 263.5H285.129V266.5H295.099V263.5ZM286.629 265V218.644H283.629V265H286.629ZM344.959 262.604L344.059 263.804L344.069 263.811L344.078 263.818L344.959 262.604ZM338.355 252.634L337.805 251.239L336.523 251.745L336.919 253.065L338.355 252.634ZM347.873 248.879L349.326 248.508L348.906 246.859L347.322 247.484L347.873 248.879ZM358.361 256.195L358.018 254.735L358.007 254.737L357.997 254.74L358.361 256.195ZM360.239 255.418L361.071 256.666L361.082 256.659L361.092 256.651L360.239 255.418ZM361.598 253.994L360.321 253.207L361.598 253.994ZM361.663 250.044L360.27 250.601L360.293 250.659L360.321 250.715L361.663 250.044ZM360.303 248.296L359.321 249.43L359.343 249.449L359.366 249.468L360.303 248.296ZM357.714 246.678L357.022 248.008L357.043 248.02L357.065 248.03L357.714 246.678ZM353.635 244.93L354.153 243.522L354.147 243.52L353.635 244.93ZM350.786 243.894L351.299 242.484L351.291 242.481L350.786 243.894ZM347.031 242.146L346.24 243.42L346.265 243.436L346.292 243.451L347.031 242.146ZM341.075 235.671L339.709 236.292L339.713 236.3L339.716 236.308L341.075 235.671ZM341.204 225.701L339.835 225.088L341.204 225.701ZM344.312 221.493L345.297 222.624L345.307 222.615L345.317 222.606L344.312 221.493ZM349.168 218.644L349.68 220.053V220.053L349.168 218.644ZM361.663 218.579L361.136 219.984L361.152 219.989L361.167 219.995L361.663 218.579ZM366.066 220.975L365.113 222.134L365.126 222.144L365.139 222.154L366.066 220.975ZM368.914 224.212L367.612 224.956L367.622 224.973L367.632 224.99L368.914 224.212ZM370.598 227.708L371.181 229.09L372.474 228.544L372.015 227.217L370.598 227.708ZM361.857 231.398L360.439 231.886L360.961 233.405L362.441 232.78L361.857 231.398ZM359.591 228.096L358.631 229.249L358.645 229.261L358.66 229.272L359.591 228.096ZM351.434 227.902L352.29 229.133L352.301 229.126L351.434 227.902ZM357.001 236.448L356.513 237.867L356.517 237.868L357.001 236.448ZM359.85 237.419L359.366 238.839L359.366 238.839L359.85 237.419ZM368.979 242.793L367.898 243.833L368.979 242.793ZM370.727 258.137L369.419 257.403L369.412 257.416L369.405 257.428L370.727 258.137ZM366.972 262.54L366.072 261.34L366.064 261.346L366.056 261.352L366.972 262.54ZM361.792 265.129L361.376 263.688L361.357 263.694L361.338 263.7L361.792 265.129ZM356.16 264.536C352.124 264.536 348.707 263.472 345.84 261.391L344.078 263.818C347.513 266.312 351.563 267.536 356.16 267.536V264.536ZM345.859 261.404C343.048 259.296 341.01 256.263 339.792 252.203L336.919 253.065C338.29 257.637 340.656 261.252 344.059 263.804L345.859 261.404ZM338.906 254.029L348.423 250.274L347.322 247.484L337.805 251.239L338.906 254.029ZM346.419 249.249C347.03 251.646 348.059 253.69 349.547 255.326L351.767 253.308C350.664 252.096 349.838 250.515 349.326 248.508L346.419 249.249ZM349.547 255.326C351.19 257.134 353.469 257.954 356.16 257.954V254.954C354.102 254.954 352.713 254.349 351.767 253.308L349.547 255.326ZM356.16 257.954C357.048 257.954 357.905 257.855 358.725 257.65L357.997 254.74C357.436 254.88 356.825 254.954 356.16 254.954V257.954ZM358.705 257.655C359.577 257.45 360.376 257.129 361.071 256.666L359.407 254.17C359.065 254.397 358.613 254.595 358.018 254.735L358.705 257.655ZM361.092 256.651C361.818 256.149 362.418 255.524 362.876 254.78L360.321 253.207C360.088 253.585 359.782 253.91 359.385 254.185L361.092 256.651ZM362.876 254.78C363.383 253.956 363.616 253.03 363.616 252.051H360.616C360.616 252.54 360.504 252.909 360.321 253.207L362.876 254.78ZM363.616 252.051C363.616 251.105 363.42 250.204 363.005 249.373L360.321 250.715C360.511 251.094 360.616 251.53 360.616 252.051H363.616ZM363.056 249.487C362.684 248.557 362.052 247.774 361.24 247.125L359.366 249.468C359.85 249.854 360.124 250.236 360.27 250.601L363.056 249.487ZM361.286 247.163C360.506 246.487 359.518 245.88 358.363 245.325L357.065 248.03C358.067 248.511 358.805 248.983 359.321 249.43L361.286 247.163ZM358.406 245.347C357.252 244.747 355.83 244.14 354.153 243.522L353.116 246.337C354.72 246.928 356.017 247.486 357.022 248.008L358.406 245.347ZM354.147 243.52L351.299 242.484L350.273 245.303L353.122 246.339L354.147 243.52ZM351.291 242.481C350.175 242.083 349.002 241.538 347.771 240.841L346.292 243.451C347.65 244.22 348.98 244.841 350.282 245.306L351.291 242.481ZM347.822 240.871C346.678 240.161 345.632 239.313 344.682 238.323L342.518 240.4C343.639 241.569 344.88 242.576 346.24 243.42L347.822 240.871ZM344.682 238.323C343.761 237.364 343.012 236.271 342.433 235.035L339.716 236.308C340.432 237.834 341.366 239.201 342.518 240.4L344.682 238.323ZM342.44 235.051C341.89 233.841 341.603 232.48 341.603 230.945H338.603C338.603 232.863 338.964 234.653 339.709 236.292L342.44 235.051ZM341.603 230.945C341.603 229.293 341.929 227.754 342.573 226.313L339.835 225.088C339.012 226.928 338.603 228.885 338.603 230.945H341.603ZM342.573 226.313C343.219 224.869 344.125 223.644 345.297 222.624L343.327 220.361C341.822 221.672 340.656 223.252 339.835 225.088L342.573 226.313ZM345.317 222.606C346.495 221.542 347.941 220.686 349.68 220.053L348.655 217.234C346.596 217.983 344.804 219.026 343.306 220.379L345.317 222.606ZM349.68 220.053C351.395 219.43 353.312 219.108 355.448 219.108V216.108C353.008 216.108 350.739 216.476 348.655 217.234L349.68 220.053ZM355.448 219.108C357.738 219.108 359.622 219.416 361.136 219.984L362.19 217.175C360.251 216.448 357.992 216.108 355.448 216.108V219.108ZM361.167 219.995C362.755 220.551 364.062 221.27 365.113 222.134L367.018 219.815C365.652 218.694 364.023 217.816 362.159 217.163L361.167 219.995ZM365.139 222.154C366.211 222.997 367.027 223.932 367.612 224.956L370.217 223.468C369.421 222.074 368.337 220.852 366.992 219.795L365.139 222.154ZM367.632 224.99C368.321 226.124 368.832 227.194 369.18 228.199L372.015 227.217C371.586 225.978 370.975 224.716 370.196 223.433L367.632 224.99ZM370.014 226.326L361.274 230.016L362.441 232.78L371.181 229.09L370.014 226.326ZM363.276 230.911C362.718 229.288 361.807 227.937 360.522 226.92L358.66 229.272C359.448 229.896 360.047 230.746 360.439 231.886L363.276 230.911ZM360.551 226.944C359.191 225.81 357.489 225.301 355.577 225.301V228.301C356.945 228.301 357.92 228.656 358.631 229.249L360.551 226.944ZM355.577 225.301C353.65 225.301 351.933 225.71 350.567 226.678L352.301 229.126C353.006 228.626 354.052 228.301 355.577 228.301V225.301ZM350.577 226.671C349.218 227.616 348.444 228.965 348.444 230.621H351.444C351.444 230.033 351.664 229.569 352.29 229.133L350.577 226.671ZM348.444 230.621C348.444 232.299 349.214 233.723 350.511 234.858L352.486 232.6C351.711 231.922 351.444 231.275 351.444 230.621H348.444ZM350.511 234.858C351.777 235.966 353.846 236.948 356.513 237.867L357.49 235.03C354.891 234.135 353.291 233.305 352.486 232.6L350.511 234.858ZM356.517 237.868L359.366 238.839L360.334 236L357.486 235.028L356.517 237.868ZM359.366 238.839C363.14 240.125 365.951 241.809 367.898 243.833L370.06 241.753C367.69 239.289 364.416 237.39 360.334 235.999L359.366 238.839ZM367.898 243.833C369.731 245.739 370.716 248.356 370.716 251.857H373.716C373.716 247.761 372.544 244.336 370.06 241.753L367.898 243.833ZM370.716 251.857C370.716 254.066 370.264 255.897 369.419 257.403L372.035 258.871C373.176 256.838 373.716 254.482 373.716 251.857H370.716ZM369.405 257.428C368.555 259.012 367.445 260.31 366.072 261.34L367.872 263.74C369.606 262.439 371 260.802 372.049 258.846L369.405 257.428ZM366.056 261.352C364.703 262.396 363.148 263.176 361.376 263.688L362.209 266.571C364.321 265.96 366.22 265.015 367.888 263.727L366.056 261.352ZM361.338 263.7C359.575 264.261 357.85 264.536 356.16 264.536V267.536C358.181 267.536 360.212 267.206 362.247 266.559L361.338 263.7ZM378.039 234.571L376.786 233.746L375.96 235L377.216 235.824L378.039 234.571ZM381.406 229.456L382.659 230.281L383.635 228.798L382.01 228.083L381.406 229.456ZM378.816 227.255L377.544 228.05L377.552 228.062L377.56 228.074L378.816 227.255ZM379.658 219.421L380.718 220.481L379.658 219.421ZM389.887 225.895L388.508 225.304L388.49 225.347L388.474 225.391L389.887 225.895ZM388.786 227.902L387.561 227.037L387.551 227.051L387.542 227.064L388.786 227.902ZM382.377 237.419L381.553 238.673L382.793 239.487L383.621 238.257L382.377 237.419ZM379.292 235.395L382.659 230.281L380.153 228.631L376.786 233.746L379.292 235.395ZM382.01 228.083C381.199 227.726 380.562 227.185 380.072 226.435L377.56 228.074C378.365 229.309 379.454 230.236 380.802 230.829L382.01 228.083ZM380.088 226.46C379.593 225.668 379.345 224.801 379.345 223.823H376.345C376.345 225.349 376.744 226.769 377.544 228.05L380.088 226.46ZM379.345 223.823C379.345 222.49 379.794 221.405 380.718 220.481L378.597 218.36C377.104 219.853 376.345 221.703 376.345 223.823H379.345ZM380.718 220.481C381.642 219.557 382.727 219.108 384.06 219.108V216.108C381.94 216.108 380.09 216.867 378.597 218.36L380.718 220.481ZM384.06 219.108C385.393 219.108 386.478 219.557 387.402 220.481L389.523 218.36C388.03 216.867 386.18 216.108 384.06 216.108V219.108ZM387.402 220.481C388.326 221.405 388.775 222.49 388.775 223.823H391.775C391.775 221.703 391.016 219.853 389.523 218.36L387.402 220.481ZM388.775 223.823C388.775 224.433 388.674 224.917 388.508 225.304L391.266 226.486C391.618 225.664 391.775 224.767 391.775 223.823H388.775ZM388.474 225.391C388.319 225.827 388.029 226.374 387.561 227.037L390.012 228.767C390.58 227.963 391.024 227.172 391.3 226.4L388.474 225.391ZM387.542 227.064L381.133 236.581L383.621 238.257L390.031 228.74L387.542 227.064ZM383.2 236.166L378.862 233.317L377.216 235.824L381.553 238.673L383.2 236.166ZM409.963 256.713L408.621 257.384L409.036 258.213H409.963V256.713ZM426.602 256.713H428.102V255.213H426.602V256.713ZM426.602 265V266.5H428.102V265H426.602ZM396.561 265H395.061V266.5H396.561V265ZM396.561 256.454L395.509 255.384L395.061 255.825V256.454H396.561ZM403.748 249.397L402.712 248.312L402.705 248.319L402.698 248.326L403.748 249.397ZM406.596 246.613L407.657 247.674L407.669 247.661L407.681 247.649L406.596 246.613ZM409.121 244.023L410.182 245.084V245.084L409.121 244.023ZM412.682 240.398L411.571 239.39L411.562 239.4L411.553 239.41L412.682 240.398ZM415.337 236.772L416.678 237.443L416.684 237.432L416.689 237.421L415.337 236.772ZM414.689 230.103L413.629 231.164L413.654 231.189L413.68 231.213L414.689 230.103ZM406.92 230.168L407.956 231.253L407.957 231.252L406.92 230.168ZM404.784 233.794L404.212 235.181L405.724 235.803L406.215 234.243L404.784 233.794ZM395.978 230.168L394.538 229.75L394.163 231.043L395.407 231.555L395.978 230.168ZM397.791 226.284L396.537 225.461L397.791 226.284ZM400.899 222.982L401.806 224.177L401.818 224.167L401.831 224.157L400.899 222.982ZM405.302 220.586L404.806 219.17L404.795 219.174L405.302 220.586ZM417.279 220.716L416.756 222.121L416.77 222.127L416.785 222.132L417.279 220.716ZM421.941 223.435L420.918 224.533L420.928 224.541L420.937 224.55L421.941 223.435ZM424.077 240.203L422.761 239.483L422.756 239.492L424.077 240.203ZM418.962 246.872L420.016 247.94L420.023 247.933L418.962 246.872ZM409.639 256.065L408.586 254.997L407.811 255.762L408.298 256.736L409.639 256.065ZM409.963 258.213H426.602V255.213H409.963V258.213ZM425.102 256.713V265H428.102V256.713H425.102ZM426.602 263.5H396.561V266.5H426.602V263.5ZM398.061 265V256.454H395.061V265H398.061ZM397.613 257.523C400.202 254.977 402.597 252.625 404.798 250.468L402.698 248.326C400.496 250.484 398.1 252.837 395.509 255.384L397.613 257.523ZM404.783 250.482C405.742 249.567 406.699 248.631 407.657 247.674L405.536 245.552C404.594 246.494 403.653 247.414 402.712 248.312L404.783 250.482ZM407.681 247.649C408.581 246.706 409.415 245.851 410.182 245.084L408.061 242.963C407.274 243.749 406.424 244.621 405.511 245.577L407.681 247.649ZM410.182 245.084C411.002 244.264 411.714 243.552 412.319 242.947L410.197 240.826C409.593 241.43 408.881 242.142 408.061 242.963L410.182 245.084ZM412.319 242.947C412.971 242.295 413.475 241.77 413.811 241.385L411.553 239.41C411.285 239.716 410.839 240.184 410.197 240.826L412.319 242.947ZM413.794 241.405C415.089 239.976 416.074 238.652 416.678 237.443L413.995 236.101C413.564 236.964 412.779 238.057 411.571 239.39L413.794 241.405ZM416.689 237.421C417.309 236.13 417.614 234.742 417.614 233.276H414.614C414.614 234.313 414.401 235.256 413.984 236.123L416.689 237.421ZM417.614 233.276C417.614 231.589 416.952 230.133 415.698 228.993L413.68 231.213C414.326 231.8 414.614 232.459 414.614 233.276H417.614ZM415.75 229.043C414.489 227.782 412.791 227.244 410.869 227.244V230.244C412.228 230.244 413.076 230.612 413.629 231.164L415.75 229.043ZM410.869 227.244C408.923 227.244 407.208 227.817 405.883 229.084L407.957 231.252C408.618 230.62 409.536 230.244 410.869 230.244V227.244ZM405.884 229.083C404.717 230.197 403.888 231.641 403.353 233.344L406.215 234.243C406.629 232.925 407.224 231.952 407.956 231.253L405.884 229.083ZM405.355 232.407L396.55 228.781L395.407 231.555L404.212 235.181L405.355 232.407ZM397.419 230.586C397.763 229.402 398.302 228.242 399.046 227.106L396.537 225.461C395.641 226.829 394.971 228.259 394.538 229.75L397.419 230.586ZM399.046 227.106C399.768 226.004 400.683 225.028 401.806 224.177L399.992 221.787C398.611 222.834 397.455 224.059 396.537 225.461L399.046 227.106ZM401.831 224.157C402.94 223.277 404.26 222.554 405.808 221.998L404.795 219.174C402.976 219.827 401.361 220.701 399.967 221.806L401.831 224.157ZM405.797 222.002C407.345 221.46 409.074 221.18 410.999 221.18V218.18C408.78 218.18 406.711 218.503 404.806 219.17L405.797 222.002ZM410.999 221.18C413.182 221.18 415.094 221.503 416.756 222.121L417.802 219.31C415.752 218.547 413.477 218.18 410.999 218.18V221.18ZM416.785 222.132C418.474 222.721 419.84 223.528 420.918 224.533L422.963 222.337C421.538 221.01 419.796 220.005 417.773 219.299L416.785 222.132ZM420.937 224.55C422.072 225.571 422.937 226.775 423.542 228.174L426.296 226.983C425.519 225.188 424.399 223.629 422.944 222.32L420.937 224.55ZM423.542 228.174C424.146 229.57 424.455 231.093 424.455 232.758H427.455C427.455 230.711 427.073 228.78 426.296 226.983L423.542 228.174ZM424.455 232.758C424.455 235.189 423.889 237.422 422.761 239.483L425.393 240.923C426.769 238.409 427.455 235.679 427.455 232.758H424.455ZM422.756 239.492C421.63 241.583 420.022 243.691 417.902 245.811L420.023 247.933C422.306 245.65 424.107 243.312 425.398 240.914L422.756 239.492ZM417.909 245.804L408.586 254.997L410.693 257.133L420.016 247.94L417.909 245.804ZM408.298 256.736L408.621 257.384L411.305 256.042L410.981 255.395L408.298 256.736ZM446.002 256.713L444.66 257.384L445.075 258.213H446.002V256.713ZM462.641 256.713H464.141V255.213H462.641V256.713ZM462.641 265V266.5H464.141V265H462.641ZM432.6 265H431.1V266.5H432.6V265ZM432.6 256.454L431.548 255.384L431.1 255.825V256.454H432.6ZM439.786 249.397L438.751 248.312L438.743 248.319L438.736 248.326L439.786 249.397ZM442.635 246.613L443.696 247.674L443.708 247.661L443.72 247.649L442.635 246.613ZM445.16 244.023L446.221 245.084V245.084L445.16 244.023ZM448.721 240.398L447.609 239.39L447.601 239.4L447.592 239.41L448.721 240.398ZM451.375 236.772L452.717 237.443L452.722 237.432L452.728 237.421L451.375 236.772ZM450.728 230.103L449.667 231.164L449.693 231.189L449.719 231.213L450.728 230.103ZM442.959 230.168L443.995 231.253L443.996 231.252L442.959 230.168ZM440.822 233.794L440.251 235.181L441.763 235.803L442.253 234.243L440.822 233.794ZM432.017 230.168L430.577 229.75L430.201 231.043L431.446 231.555L432.017 230.168ZM433.83 226.284L432.575 225.461L433.83 226.284ZM436.938 222.982L437.844 224.177L437.857 224.167L437.87 224.157L436.938 222.982ZM441.34 220.586L440.845 219.17L440.833 219.174L441.34 220.586ZM453.318 220.716L452.795 222.121L452.809 222.127L452.824 222.132L453.318 220.716ZM457.979 223.435L456.957 224.533L456.966 224.541L456.976 224.55L457.979 223.435ZM460.116 240.203L458.8 239.483L458.795 239.492L460.116 240.203ZM455.001 246.872L456.054 247.94L456.062 247.933L455.001 246.872ZM445.678 256.065L444.625 254.997L443.849 255.762L444.336 256.736L445.678 256.065ZM446.002 258.213H462.641V255.213H446.002V258.213ZM461.141 256.713V265H464.141V256.713H461.141ZM462.641 263.5H432.6V266.5H462.641V263.5ZM434.1 265V256.454H431.1V265H434.1ZM433.652 257.523C436.241 254.977 438.636 252.625 440.836 250.468L438.736 248.326C436.534 250.484 434.138 252.837 431.548 255.384L433.652 257.523ZM440.822 250.482C441.78 249.567 442.738 248.631 443.696 247.674L441.574 245.552C440.633 246.494 439.692 247.414 438.751 248.312L440.822 250.482ZM443.72 247.649C444.62 246.706 445.453 245.851 446.221 245.084L444.099 242.963C443.313 243.749 442.463 244.621 441.55 245.577L443.72 247.649ZM446.221 245.084C447.041 244.264 447.753 243.552 448.357 242.947L446.236 240.826C445.632 241.43 444.919 242.142 444.099 242.963L446.221 245.084ZM448.357 242.947C449.01 242.295 449.514 241.77 449.85 241.385L447.592 239.41C447.324 239.716 446.878 240.184 446.236 240.826L448.357 242.947ZM449.832 241.405C451.127 239.976 452.113 238.652 452.717 237.443L450.034 236.101C449.602 236.964 448.818 238.057 447.609 239.39L449.832 241.405ZM452.728 237.421C453.347 236.13 453.652 234.742 453.652 233.276H450.652C450.652 234.313 450.439 235.256 450.023 236.123L452.728 237.421ZM453.652 233.276C453.652 231.589 452.99 230.133 451.737 228.993L449.719 231.213C450.365 231.8 450.652 232.459 450.652 233.276H453.652ZM451.789 229.043C450.528 227.782 448.83 227.244 446.908 227.244V230.244C448.267 230.244 449.115 230.612 449.667 231.164L451.789 229.043ZM446.908 227.244C444.961 227.244 443.247 227.817 441.922 229.084L443.996 231.252C444.656 230.62 445.575 230.244 446.908 230.244V227.244ZM441.923 229.083C440.756 230.197 439.926 231.641 439.391 233.344L442.253 234.243C442.668 232.925 443.263 231.952 443.995 231.253L441.923 229.083ZM441.393 232.407L432.588 228.781L431.446 231.555L440.251 235.181L441.393 232.407ZM433.458 230.586C433.802 229.402 434.34 228.242 435.085 227.106L432.575 225.461C431.68 226.829 431.01 228.259 430.577 229.75L433.458 230.586ZM435.085 227.106C435.806 226.004 436.722 225.028 437.844 224.177L436.031 221.787C434.65 222.834 433.494 224.059 432.575 225.461L435.085 227.106ZM437.87 224.157C438.979 223.277 440.299 222.554 441.847 221.998L440.833 219.174C439.015 219.827 437.4 220.701 436.006 221.806L437.87 224.157ZM441.836 222.002C443.383 221.46 445.112 221.18 447.038 221.18V218.18C444.819 218.18 442.75 218.503 440.845 219.17L441.836 222.002ZM447.038 221.18C449.221 221.18 451.133 221.503 452.795 222.121L453.841 219.31C451.791 218.547 449.516 218.18 447.038 218.18V221.18ZM452.824 222.132C454.513 222.721 455.879 223.528 456.957 224.533L459.001 222.337C457.577 221.01 455.835 220.005 453.812 219.299L452.824 222.132ZM456.976 224.55C458.111 225.571 458.976 226.775 459.581 228.174L462.334 226.983C461.558 225.188 460.438 223.629 458.983 222.32L456.976 224.55ZM459.581 228.174C460.185 229.57 460.493 231.093 460.493 232.758H463.493C463.493 230.711 463.111 228.78 462.334 226.983L459.581 228.174ZM460.493 232.758C460.493 235.189 459.928 237.422 458.8 239.483L461.432 240.923C462.807 238.409 463.493 235.679 463.493 232.758H460.493ZM458.795 239.492C457.669 241.583 456.06 243.691 453.94 245.811L456.062 247.933C458.344 245.65 460.145 243.312 461.436 240.914L458.795 239.492ZM453.948 245.804L444.625 254.997L446.731 257.133L456.054 247.94L453.948 245.804ZM444.336 256.736L444.66 257.384L447.343 256.042L447.02 255.395L444.336 256.736Z" fill="#1E1E1E"/>
<defs>
<filter id="filter0_f_324_3273" x="0" y="0" width="537" height="542" filterUnits="userSpaceOnUse" color-interpolation-filters="sRGB">
<feFlood flood-opacity="0" result="BackgroundImageFix"/>
<feBlend mode="normal" in="SourceGraphic" in2="BackgroundImageFix" result="shape"/>
<feGaussianBlur stdDeviation="17.5" result="effect1_foregroundBlur_324_3273"/>
</filter>
</defs>
</svg>
