<svg width="448" height="73" viewBox="0 0 448 73" fill="none" xmlns="http://www.w3.org/2000/svg">
<path d="M11.144 26.976C13 24.416 15.528 22.336 18.728 20.736C21.992 19.072 25.608 18.24 29.576 18.24C34.248 18.24 38.472 19.36 42.248 21.6C46.024 23.84 49 27.04 51.176 31.2C53.352 35.296 54.44 40 54.44 45.312C54.44 50.624 53.352 55.392 51.176 59.616C49 63.776 45.992 67.04 42.152 69.408C38.376 71.712 34.184 72.864 29.576 72.864C25.48 72.864 21.832 72.064 18.632 70.464C15.496 68.864 13 66.816 11.144 64.32V72H0.2V0.959999H11.144V26.976ZM43.304 45.312C43.304 41.664 42.536 38.528 41 35.904C39.528 33.216 37.544 31.2 35.048 29.856C32.616 28.448 29.992 27.744 27.176 27.744C24.424 27.744 21.8 28.448 19.304 29.856C16.872 31.264 14.888 33.312 13.352 36C11.88 38.688 11.144 41.856 11.144 45.504C11.144 49.152 11.88 52.352 13.352 55.104C14.888 57.792 16.872 59.84 19.304 61.248C21.8 62.656 24.424 63.36 27.176 63.36C29.992 63.36 32.616 62.656 35.048 61.248C37.544 59.776 39.528 57.664 41 54.912C42.536 52.16 43.304 48.96 43.304 45.312ZM76.2065 0.959999V72H65.2625V0.959999H76.2065ZM138.479 19.104V72H127.535V65.76C125.807 67.936 123.535 69.664 120.719 70.944C117.967 72.16 115.023 72.768 111.887 72.768C107.727 72.768 103.983 71.904 100.655 70.176C97.391 68.448 94.799 65.888 92.879 62.496C91.023 59.104 90.095 55.008 90.095 50.208V19.104H100.943V48.576C100.943 53.312 102.127 56.96 104.495 59.52C106.863 62.016 110.095 63.264 114.191 63.264C118.287 63.264 121.519 62.016 123.887 59.52C126.319 56.96 127.535 53.312 127.535 48.576V19.104H138.479ZM201.399 44.256C201.399 46.24 201.271 48.032 201.015 49.632H160.599C160.919 53.856 162.487 57.248 165.303 59.808C168.119 62.368 171.575 63.648 175.671 63.648C181.559 63.648 185.719 61.184 188.151 56.256H199.959C198.359 61.12 195.447 65.12 191.223 68.256C187.063 71.328 181.879 72.864 175.671 72.864C170.615 72.864 166.071 71.744 162.039 69.504C158.071 67.2 154.935 64 152.631 59.904C150.391 55.744 149.271 50.944 149.271 45.504C149.271 40.064 150.359 35.296 152.535 31.2C154.775 27.04 157.879 23.84 161.847 21.6C165.879 19.36 170.487 18.24 175.671 18.24C180.663 18.24 185.111 19.328 189.015 21.504C192.919 23.68 195.959 26.752 198.135 30.72C200.311 34.624 201.399 39.136 201.399 44.256ZM189.975 40.8C189.911 36.768 188.471 33.536 185.655 31.104C182.839 28.672 179.351 27.456 175.191 27.456C171.415 27.456 168.183 28.672 165.495 31.104C162.807 33.472 161.207 36.704 160.695 40.8H189.975Z" fill="#3D5AFF"/>
<path d="M223.113 0.959999V72H212.169V0.959999H223.113ZM285.961 44.256C285.961 46.24 285.833 48.032 285.577 49.632H245.161C245.481 53.856 247.049 57.248 249.865 59.808C252.681 62.368 256.137 63.648 260.233 63.648C266.121 63.648 270.281 61.184 272.713 56.256H284.521C282.921 61.12 280.009 65.12 275.785 68.256C271.625 71.328 266.441 72.864 260.233 72.864C255.177 72.864 250.633 71.744 246.601 69.504C242.633 67.2 239.497 64 237.193 59.904C234.953 55.744 233.833 50.944 233.833 45.504C233.833 40.064 234.921 35.296 237.097 31.2C239.337 27.04 242.441 23.84 246.409 21.6C250.441 19.36 255.049 18.24 260.233 18.24C265.225 18.24 269.673 19.328 273.577 21.504C277.481 23.68 280.521 26.752 282.697 30.72C284.873 34.624 285.961 39.136 285.961 44.256ZM274.537 40.8C274.473 36.768 273.033 33.536 270.217 31.104C267.401 28.672 263.913 27.456 259.753 27.456C255.977 27.456 252.745 28.672 250.057 31.104C247.369 33.472 245.769 36.704 245.257 40.8H274.537ZM293.083 45.312C293.083 40 294.171 35.296 296.347 31.2C298.587 27.104 301.595 23.936 305.371 21.696C309.211 19.392 313.435 18.24 318.043 18.24C322.203 18.24 325.819 19.072 328.891 20.736C332.027 22.336 334.523 24.352 336.379 26.784V19.104H347.419V72H336.379V64.128C334.523 66.624 331.995 68.704 328.795 70.368C325.595 72.032 321.947 72.864 317.851 72.864C313.307 72.864 309.147 71.712 305.371 69.408C301.595 67.04 298.587 63.776 296.347 59.616C294.171 55.392 293.083 50.624 293.083 45.312ZM336.379 45.504C336.379 41.856 335.611 38.688 334.075 36C332.603 33.312 330.651 31.264 328.219 29.856C325.787 28.448 323.163 27.744 320.347 27.744C317.531 27.744 314.907 28.448 312.475 29.856C310.043 31.2 308.059 33.216 306.523 35.904C305.051 38.528 304.315 41.664 304.315 45.312C304.315 48.96 305.051 52.16 306.523 54.912C308.059 57.664 310.043 59.776 312.475 61.248C314.971 62.656 317.595 63.36 320.347 63.36C323.163 63.36 325.787 62.656 328.219 61.248C330.651 59.84 332.603 57.792 334.075 55.104C335.611 52.352 336.379 49.152 336.379 45.504ZM372.738 26.784C374.338 24.096 376.45 22.016 379.074 20.544C381.762 19.008 384.93 18.24 388.578 18.24V29.568H385.794C381.506 29.568 378.242 30.656 376.002 32.832C373.826 35.008 372.738 38.784 372.738 44.16V72H361.794V19.104H372.738V26.784ZM425.326 18.24C429.486 18.24 433.198 19.104 436.462 20.832C439.79 22.56 442.382 25.12 444.238 28.512C446.094 31.904 447.022 36 447.022 40.8V72H436.174V42.432C436.174 37.696 434.99 34.08 432.622 31.584C430.254 29.024 427.022 27.744 422.926 27.744C418.83 27.744 415.566 29.024 413.134 31.584C410.766 34.08 409.582 37.696 409.582 42.432V72H398.638V19.104H409.582V25.152C411.374 22.976 413.646 21.28 416.398 20.064C419.214 18.848 422.19 18.24 425.326 18.24Z" fill="#31343C"/>
</svg>