<svg width="69" height="69" viewBox="0 0 69 69" fill="none" xmlns="http://www.w3.org/2000/svg">
<rect width="69" height="69" rx="11.129" fill="#F0C14B"/>
<rect x="22.4526" y="27.1863" width="23.8515" height="6.44636" fill="white"/>
<rect x="27.6089" y="35.5667" width="13.5374" height="15.4713" fill="white"/>
<path d="M49.7072 25.4379C49.5217 25.2031 49.2851 25.0137 49.0154 24.884C48.7457 24.7543 48.45 24.6877 48.1508 24.6893H26.4791V23.7042C26.4815 22.8466 26.7637 22.0131 27.2829 21.3304C27.802 20.6477 28.5297 20.1531 29.3555 19.9215C29.886 20.4334 30.5887 20.7285 31.3257 20.749H33.2958C34.0796 20.749 34.8313 20.4376 35.3855 19.8834C35.9397 19.3292 36.251 18.5775 36.251 17.7937C36.251 17.01 35.9397 16.2583 35.3855 15.7041C34.8313 15.1499 34.0796 14.8385 33.2958 14.8385H31.3257C30.8815 14.8391 30.4433 14.9405 30.044 15.135C29.6447 15.3295 29.2948 15.6121 29.0206 15.9615C27.2046 16.289 25.5612 17.2434 24.3767 18.6583C23.1922 20.0732 22.5417 21.8589 22.5388 23.7042V24.6893H20.5686C20.2693 24.6877 19.9737 24.7543 19.704 24.884C19.4343 25.0137 19.1977 25.2031 19.0122 25.4379C18.8148 25.6719 18.6747 25.9486 18.6029 26.2461C18.531 26.5436 18.5295 26.8538 18.5984 27.152L19.8199 32.0577C20.1116 33.1876 20.7312 34.2059 21.6007 34.9843C22.4702 35.7626 23.5507 36.2662 24.7059 36.4314L26.2427 50.2225H24.5089C23.9864 50.2225 23.4853 50.4301 23.1158 50.7996C22.7463 51.169 22.5388 51.6701 22.5388 52.1927C22.5388 52.7152 22.7463 53.2163 23.1158 53.5858C23.4853 53.9553 23.9864 54.1628 24.5089 54.1628H44.2105C44.733 54.1628 45.2341 53.9553 45.6036 53.5858C45.9731 53.2163 46.1806 52.7152 46.1806 52.1927C46.1806 51.6701 45.9731 51.169 45.6036 50.7996C45.2341 50.4301 44.733 50.2225 44.2105 50.2225H42.4767L44.0135 36.4314C45.1605 36.254 46.23 35.7427 47.0884 34.9614C47.9467 34.1801 48.5561 33.1633 48.8403 32.038L50.1209 27.152C50.1899 26.8538 50.1884 26.5436 50.1165 26.2461C50.0447 25.9486 49.9046 25.6719 49.7072 25.4379ZM38.497 50.3013H30.2224L28.6856 36.5102H40.0337L38.497 50.3013ZM45.0182 31.0923C44.9104 31.5294 44.656 31.9164 44.2976 32.1889C43.9391 32.4613 43.4981 32.6027 43.0481 32.5896H25.6122C25.1621 32.6027 24.7212 32.4613 24.3627 32.1889C24.0043 31.9164 23.7499 31.5294 23.642 31.0923L23.0904 28.6296H45.629L45.0182 31.0923Z" fill="white"/>
</svg>
