<?xml version="1.0" encoding="UTF-8"?>
<svg width="300px" height="350px" viewBox="0 0 350 350" version="1.1" xmlns="http://www.w3.org/2000/svg" xmlns:xlink="http://www.w3.org/1999/xlink">
    <!-- Generator: Sketch 43.1 (39012) - http://www.bohemiancoding.com/sketch -->
    <title>Artboard</title>
    <desc>Created with Sketch.</desc>
    <defs></defs>
    <g id="Page-1" stroke="none" stroke-width="1" fill="none" fill-rule="evenodd">
        <g id="Artboard" fill-rule="nonzero" fill="#000000">
            <g id="HashiCorp_VerticalLogo_Black" transform="translate(24.000000, 25.000000)">
                <path d="M88.6725664,68.2300885 L88.6725664,77.5221239 L88.6725664,164.60177 L59.2035398,148.672566 L59.2035398,42.7433628 L132.743363,0 L132.743363,35.5752212 L88.6725664,62.1238938 L88.6725664,68.2300885 Z M215.044248,26.8141593 L215.044248,114.159292 L215.044248,129.292035 L170.973451,155.840708 L170.973451,191.150442 L241.59292,148.672566 L241.59292,42.7433628 L215.044248,26.8141593 Z M197.522124,16.1946903 L170.973451,0.265486726 L170.973451,84.4247788 L132.743363,84.4247788 L132.743363,56.8141593 L106.19469,72.7433628 L106.19469,175.486726 L132.743363,191.415929 L132.743363,108.053097 L170.973451,108.053097 L170.973451,134.867257 L197.522124,118.938053 L197.522124,16.1946903 Z" id="Shape"></path>
                <path d="M29.7345133,282.477876 L29.7345133,260.973451 L10.0884956,260.973451 L10.0884956,282.477876 L0,282.477876 L0,230.707965 L10.0884956,230.707965 L10.0884956,252.477876 L29.7345133,252.477876 L29.7345133,230.707965 L39.8230088,230.707965 L39.8230088,282.477876 L29.7345133,282.477876 Z M74.6017699,282.477876 L66.6371681,282.477876 L65.840708,279.823009 C62.3893805,281.946903 58.1415929,283.00885 54.159292,283.00885 C46.9911504,283.00885 44.0707965,278.230088 44.0707965,271.858407 C44.0707965,264.159292 47.5221239,261.238938 55.4867257,261.238938 L64.7787611,261.238938 L64.7787611,257.522124 C64.7787611,253.274336 63.4513274,251.946903 57.3451327,251.946903 C53.8938053,251.946903 49.9115044,252.477876 46.460177,253.00885 L45.1327434,245.840708 C48.8495575,244.778761 54.159292,243.982301 58.4070796,243.982301 C70.619469,243.982301 74.3362832,248.230088 74.3362832,257.522124 L74.6017699,282.477876 L74.6017699,282.477876 Z M64.7787611,268.40708 L57.6106195,268.40708 C54.4247788,268.40708 53.6283186,269.20354 53.6283186,272.123894 C53.6283186,274.778761 54.4247788,275.840708 57.6106195,275.840708 C60.5309735,275.840708 63.1858407,275.044248 65.0442478,273.982301 L64.7787611,268.40708 L64.7787611,268.40708 Z M92.920354,283.274336 C88.6725664,283.274336 83.0973451,282.477876 79.380531,281.150442 L80.7079646,273.982301 C83.8938053,274.778761 88.4070796,275.575221 92.3893805,275.575221 C96.6371681,275.575221 97.4336283,274.778761 97.4336283,271.858407 C97.4336283,269.469027 96.9026549,268.40708 90.5309735,267.079646 C80.9734513,264.955752 79.9115044,262.566372 79.9115044,255.39823 C79.9115044,247.964602 83.3628319,244.513274 94.5132743,244.513274 C98.2300885,244.513274 102.743363,245.044248 106.19469,245.840708 L105.132743,253.274336 C102.212389,252.743363 97.4336283,252.212389 94.5132743,252.212389 C90.2654867,252.212389 89.4690265,253.00885 89.4690265,255.39823 C89.4690265,258.318584 89.7345133,258.584071 95.0442478,259.911504 C105.929204,262.566372 106.99115,264.159292 106.99115,271.59292 C106.99115,278.761062 104.867257,283.274336 92.920354,283.274336 Z M135.663717,282.477876 L135.663717,256.460177 C135.663717,254.336283 134.867257,253.539823 132.477876,253.539823 C130.088496,253.539823 125.840708,254.867257 122.389381,256.725664 L122.389381,282.743363 L112.566372,282.743363 L112.566372,230.176991 L122.389381,231.504425 L122.389381,247.964602 C126.637168,245.840708 132.477876,244.247788 136.725664,244.247788 C143.097345,244.247788 145.486726,248.495575 145.486726,255.39823 L145.486726,282.477876 L135.663717,282.477876 L135.663717,282.477876 Z M152.389381,239.734513 L152.389381,230.707965 L162.212389,230.707965 L162.212389,239.734513 L152.389381,239.734513 Z M152.389381,282.477876 L152.389381,245.044248 L162.212389,245.044248 L162.212389,282.477876 L152.389381,282.477876 L152.389381,282.477876 Z M168.849558,245.309735 C168.849558,236.017699 174.424779,230.442478 187.699115,230.442478 C192.743363,230.442478 197.787611,230.973451 202.035398,232.035398 L200.973451,240.265487 C196.725664,239.469027 191.681416,238.938053 187.964602,238.938053 C181.061947,238.938053 178.672566,241.327434 178.672566,246.637168 L178.672566,266.283186 C178.672566,271.59292 180.79646,273.982301 187.964602,273.982301 C191.681416,273.982301 196.725664,273.451327 200.973451,272.654867 L202.035398,280.884956 C197.522124,281.946903 192.477876,282.477876 187.699115,282.477876 C174.424779,282.477876 168.849558,277.168142 168.849558,267.610619 L168.849558,245.309735 Z M221.681416,283.274336 C208.40708,283.274336 204.690265,276.106195 204.690265,268.672566 L204.690265,259.115044 C204.690265,251.415929 208.40708,244.513274 221.681416,244.513274 C234.955752,244.513274 238.672566,251.681416 238.672566,259.115044 L238.672566,268.672566 C238.672566,276.106195 234.955752,283.274336 221.681416,283.274336 Z M221.681416,252.212389 C216.371681,252.212389 214.513274,254.336283 214.513274,258.584071 L214.513274,268.672566 C214.513274,272.920354 216.637168,275.044248 221.681416,275.044248 C226.99115,275.044248 228.849558,272.920354 228.849558,268.672566 L228.849558,258.584071 C228.849558,254.60177 226.99115,252.212389 221.681416,252.212389 Z M264.159292,253.00885 C260.442478,254.60177 257.256637,256.19469 253.80531,258.318584 L253.80531,282.477876 L243.982301,282.477876 L243.982301,245.044248 L252.212389,245.044248 L252.743363,249.292035 C254.867257,247.964602 259.646018,245.309735 262.831858,244.513274 L264.159292,253.00885 Z M301.061947,270 C301.061947,278.230088 297.345133,283.274336 288.318584,283.274336 C284.867257,283.274336 280.884956,282.743363 277.964602,282.212389 L277.964602,297.345133 L268.141593,298.672566 L268.141593,245.044248 L275.840708,245.044248 L276.902655,248.230088 C280.353982,245.840708 284.336283,244.247788 289.115044,244.247788 C296.814159,244.247788 301.061947,248.761062 301.061947,257.256637 L301.061947,270 Z M277.964602,274.247788 C280.619469,274.778761 283.80531,275.309735 286.460177,275.309735 C289.911504,275.309735 291.238938,273.716814 291.238938,270.265487 L291.238938,256.99115 C291.238938,253.80531 289.911504,252.212389 286.460177,252.212389 C283.274336,252.212389 279.823009,253.80531 277.699115,255.663717 L277.699115,274.247788 L277.964602,274.247788 Z" id="Shape"></path>
            </g>
        </g>
    </g>
</svg>