<svg width="136" height="35" viewBox="0 0 136 35" fill="none" xmlns="http://www.w3.org/2000/svg"><path d="M17.5 35C27.1643 35 35 27.165 35 17.5014C35.0029 7.83501 27.1672 0 17.5 0C7.83565 0 0 7.83501 0 17.4986C0 27.165 7.83565 35 17.5 35Z" fill="#499557"></path><path d="M22.9467 29.9064C22.3858 29.9064 21.9279 30.3614 21.9279 30.9251C21.9279 31.486 22.3829 31.9438 22.9467 31.9438C23.5076 31.9438 23.9655 31.4888 23.9655 30.9251C23.9626 30.3614 23.5076 29.9064 22.9467 29.9064Z" fill="white"></path><path fill-rule="evenodd" clip-rule="evenodd" d="M21.4809 4.318L21.2549 4.2207L21.4809 4.32658C21.4838 4.32658 21.4809 4.32086 21.4809 4.318Z" fill="white"></path><path fill-rule="evenodd" clip-rule="evenodd" d="M17.3025 11.5492C18.0609 8.8364 20.0441 5.51696 21.2289 4.25501L21.2547 4.22067C21.2718 4.19491 21.3005 4.18061 21.3262 4.18061C21.4493 4.18347 21.475 4.26645 21.4808 4.31796L21.4922 4.32369L21.4836 4.32655L21.4092 4.36089C19.7665 6.43553 18.3385 8.99379 17.6946 11.6751C18.7391 11.8582 19.3745 11.0141 19.6835 10.3387C19.6921 10.3216 19.6778 10.2929 19.6578 10.2901L19.1255 10.1556C19.0911 10.147 19.0911 10.0926 19.1255 10.084L19.7694 9.91522C20.1643 9.82651 20.6308 8.97662 20.8368 8.57027C20.8426 8.5531 20.8368 8.53021 20.8197 8.52163L20.296 8.23833C20.2645 8.22116 20.2731 8.17537 20.3103 8.17251L21.309 8.0838C21.3176 8.0838 21.3319 8.07522 21.3348 8.06663L21.9301 7.02788C21.9444 7.00499 21.9358 6.98209 21.9129 6.97351L21.3319 6.73314C21.2976 6.71597 21.3005 6.66732 21.3405 6.6616L22.139 6.59006C22.1476 6.59006 22.1619 6.58147 22.1647 6.57289L22.7342 5.59995C22.7428 5.58278 22.74 5.55989 22.7199 5.5513L22.139 5.19647C22.1075 5.1793 22.1218 5.12493 22.1619 5.13065L22.8229 5.18502C22.8373 5.18502 22.8544 5.17644 22.8573 5.15927L23.7445 2.45507C23.7502 2.43218 23.7359 2.40929 23.7101 2.41501C22.3908 2.35206 21.3548 2.69831 20.9771 2.89576C20.9628 2.90434 20.9599 2.91865 20.9599 2.9301L21.0229 3.59112C21.0286 3.63118 20.9742 3.64835 20.957 3.61401L20.7166 3.19336C20.7081 3.17905 20.6909 3.17047 20.6766 3.17619C20.0012 3.31355 19.1083 4.40667 18.7305 4.95609C18.722 4.96468 18.722 4.97899 18.7248 4.98757L19.0368 5.77451C19.0511 5.80885 19.011 5.83746 18.9795 5.81457L18.5445 5.45401C18.5302 5.44543 18.5131 5.4397 18.4987 5.45401C18.2755 5.66291 17.7261 6.73314 17.4599 7.27398C17.4542 7.28828 17.4542 7.29973 17.4656 7.30831L17.9235 7.98651C17.9464 8.01799 17.9063 8.05805 17.8749 8.03516L17.271 7.63167C17.2567 7.62309 17.2367 7.62309 17.2252 7.6374C17.0392 7.85488 16.9591 8.69332 16.9419 9.11683C16.9419 9.12542 16.9476 9.134 16.9562 9.14259L17.3683 9.53749C17.3941 9.56038 17.3769 9.6033 17.3426 9.60044L16.8818 9.56038C16.8646 9.55466 16.8475 9.56896 16.8418 9.58613C16.5928 10.7365 16.9705 11.3288 17.3025 11.5492Z" fill="white"></path><path d="M20.116 24.578H14.7587V25.5996H20.116V24.578Z" fill="white"></path><path fill-rule="evenodd" clip-rule="evenodd" d="M8.16737 12.3704V23.3417C8.16737 23.6107 8.38487 23.8282 8.65388 23.8282H26.3513C26.6204 23.8282 26.8379 23.6107 26.8379 23.3417V12.3704C26.8379 12.1015 26.6204 11.884 26.3513 11.884H8.65388C8.38487 11.884 8.16737 12.1015 8.16737 12.3704ZM12.5603 19.4986C11.6903 19.4986 10.9863 18.7947 10.9863 17.9248C10.9863 17.0548 11.6903 16.3509 12.5603 16.3509C13.4303 16.3509 14.1343 17.0548 14.1343 17.9248C14.1343 18.7918 13.4303 19.4986 12.5603 19.4986ZM22.4478 19.4986C21.5778 19.4986 20.8738 18.7947 20.8738 17.9248C20.8738 17.0548 21.5778 16.3509 22.4478 16.3509C23.3178 16.3509 24.0218 17.0548 24.0218 17.9248C24.0218 18.7918 23.3178 19.4986 22.4478 19.4986Z" fill="white"></path><path d="M6.03293 30.7132C6.63963 31.2397 7.28068 31.7262 7.95607 32.164V29.1307C7.40374 29.1307 6.53947 29.6315 6.03293 30.7132Z" fill="white"></path><path d="M8.71466 32.6306C11.2989 34.1329 14.2981 35 17.5033 35C17.9755 35 18.442 34.9771 18.9027 34.9399V29.9064H8.71466V32.6306V32.6306ZM10.1942 30.7677H10.8868H17.4232C17.6235 30.7677 17.7866 30.9308 17.7866 31.1311C17.7866 31.3314 17.6235 31.4945 17.4232 31.4945H10.1942C9.99389 31.4945 9.83077 31.3314 9.83077 31.1311C9.83077 30.928 9.99389 30.7677 10.1942 30.7677Z" fill="white"></path><path d="M25.8026 26.3638H9.2041C8.93509 26.3638 8.71759 26.5813 8.71759 26.8502V28.6845V29.1481H19.4265H19.6612V29.3827V34.8627C22.0537 34.5679 24.2945 33.7924 26.2891 32.6306V28.6845V26.8502C26.2891 26.5813 26.0716 26.3638 25.8026 26.3638ZM22.9465 32.6965C21.9649 32.6965 21.1722 31.9009 21.1722 30.9223C21.1722 29.9407 21.9678 29.1481 22.9465 29.1481C23.9281 29.1481 24.7209 29.9436 24.7209 30.9223C24.7209 31.9038 23.9253 32.6965 22.9465 32.6965Z" fill="white"></path><path d="M28.9702 30.7132C28.4636 29.6315 27.5993 29.1307 27.047 29.1307V32.1669C27.7224 31.7233 28.3634 31.2397 28.9702 30.7132Z" fill="white"></path><path d="M51.2443 26.3225C52.1952 26.5705 53.1832 26.9054 54.2085 27.3271C56.35 28.2035 57.8961 28.6417 58.847 28.6417C59.1694 28.6417 59.6573 28.559 60.3104 28.3937V29.0386C59.3844 29.5181 58.6981 29.9729 58.2517 30.4028C57.5323 30.3119 56.8833 30.1879 56.3045 30.0308C55.7257 29.8819 54.8451 29.5884 53.6628 29.1502C51.7115 28.4391 50.401 28.0836 49.7312 28.0836C49.5411 28.0836 49.3385 28.1249 49.1235 28.2076C48.9168 28.2903 48.3918 28.5673 47.5484 29.0386V28.22C48.9623 27.2692 49.9752 26.6367 50.587 26.3225C48.7184 26.3225 47.1226 25.9545 45.7997 25.2187C44.4768 24.4745 43.4433 23.4162 42.6991 22.0437C41.955 20.6711 41.5829 19.063 41.5829 17.2191C41.5829 14.5237 42.4593 12.345 44.2122 10.6831C45.9651 9.02119 48.3008 8.19023 51.2195 8.19023C54.0803 8.19023 56.321 8.96331 57.9416 10.5095C59.5704 12.0474 60.3849 14.0979 60.3849 16.661C60.3849 18.6289 59.9053 20.3569 58.9462 21.8452C57.9953 23.3252 56.7468 24.4621 55.2007 25.2559C54.0927 25.8264 52.774 26.1819 51.2443 26.3225ZM44.1998 16.2146C44.1998 18.0749 44.5181 19.6955 45.1548 21.0763C45.7914 22.4571 46.6431 23.4947 47.7097 24.1893C48.7763 24.8755 49.9958 25.2187 51.3684 25.2187C52.6417 25.2187 53.7537 24.9251 54.7046 24.3381C55.6554 23.751 56.4037 22.8787 56.9494 21.7212C57.4951 20.5636 57.768 19.1498 57.768 17.4796C57.768 15.7267 57.4662 14.2302 56.8626 12.9899C56.259 11.7497 55.4322 10.8195 54.3821 10.1994C53.3321 9.57103 52.0877 9.25684 50.649 9.25684C49.3344 9.25684 48.2016 9.53382 47.2508 10.0878C46.2999 10.6418 45.5517 11.4521 45.006 12.5187C44.4685 13.5853 44.1998 14.8172 44.1998 16.2146ZM70.8777 26.0868L71.0266 23.8544L70.2948 24.6481C69.7243 25.2683 69.1414 25.7065 68.5461 25.9628C67.9591 26.2108 67.2315 26.3349 66.3633 26.3349C65.6191 26.3349 64.9784 26.1778 64.4409 25.8636C63.9035 25.5494 63.5108 25.1442 63.2627 24.6481C63.0229 24.1438 62.903 23.35 62.903 22.2669C62.903 21.7047 62.9154 21.0515 62.9402 20.3073L62.9774 18.3105C62.9774 16.9132 62.9361 16.136 62.8534 15.9789C62.779 15.8218 62.5186 15.7433 62.0721 15.7433H60.9683V15.0611C62.0927 14.9619 63.1304 14.7552 64.0813 14.441L65.1107 14.0565C65.2512 14.0565 65.3215 14.1599 65.3215 14.3666L65.2347 15.6316C65.1189 17.3845 65.061 19.0133 65.061 20.5182C65.061 22.023 65.1231 22.9862 65.2471 23.4079C65.3711 23.8213 65.6316 24.1686 66.0284 24.4497C66.4253 24.7226 66.909 24.859 67.4795 24.859C68.2484 24.859 68.9512 24.6109 69.5879 24.1148C70.2328 23.6188 70.6545 23.1185 70.8529 22.6142C70.9604 22.3248 71.0142 21.4525 71.0142 19.9973C71.0142 17.5499 70.9687 16.2187 70.8777 16.0037C70.7951 15.8301 70.423 15.7433 69.7615 15.7433H68.7817V15.0611C69.6334 14.9619 70.3568 14.8462 70.9522 14.7139C71.5475 14.5816 72.1759 14.3831 72.8373 14.1186C72.92 14.0772 72.9944 14.0565 73.0606 14.0565C73.2011 14.0565 73.2714 14.1351 73.2714 14.2922L73.2218 15.4456C73.0978 18.2733 73.0358 20.7621 73.0358 22.9118C73.0358 24.119 73.0978 24.8094 73.2218 24.983C73.4037 25.2393 73.7964 25.3675 74.4 25.3675H75.1193V26.0868C74.0858 26.0289 73.2094 26 72.49 26C71.9526 26 71.4152 26.0289 70.8777 26.0868ZM78.9894 8.5499C79.3697 8.5499 79.6963 8.69046 79.9692 8.97158C80.242 9.24443 80.3784 9.57516 80.3784 9.96377C80.3784 10.3524 80.242 10.6831 79.9692 10.956C79.6963 11.2288 79.3697 11.3652 78.9894 11.3652C78.6008 11.3652 78.27 11.2288 77.9972 10.956C77.7243 10.6831 77.5879 10.3524 77.5879 9.96377C77.5879 9.57516 77.7243 9.24443 77.9972 8.97158C78.27 8.69046 78.6008 8.5499 78.9894 8.5499ZM79.9816 14.0441L80.2792 14.2302C80.2213 14.8503 80.1841 15.5324 80.1676 16.2766C80.1097 18.6909 80.0808 20.4727 80.0808 21.622C80.0808 22.6968 80.118 23.6146 80.1924 24.3753C80.2255 24.6729 80.304 24.8797 80.428 24.9954C80.5521 25.1112 80.8497 25.198 81.321 25.2559L82.1644 25.3675V26.0868C80.9572 26.0289 79.8575 26 78.8653 26C77.8897 26 76.9058 26.0289 75.9136 26.0868V25.3675L76.9802 25.2559C77.3936 25.2228 77.6458 25.1484 77.7367 25.0326C77.836 24.9086 77.898 24.5076 77.9228 23.8296C77.9641 22.7795 77.9848 21.3326 77.9848 19.4888C77.9848 18.2072 77.9641 17.2191 77.9228 16.5246C77.9062 16.2683 77.8318 16.0864 77.6995 15.9789C77.5755 15.8714 77.2903 15.8177 76.8438 15.8177H75.9136V15.0859C76.9223 14.9371 77.6623 14.8007 78.1336 14.6767C78.6132 14.5526 79.2292 14.3418 79.9816 14.0441ZM87.101 7.66934C86.9604 10.0919 86.8902 12.283 86.8902 14.2426V20.6174C86.8902 23.1475 86.9439 24.582 87.0514 24.921C87.1093 25.0946 87.3821 25.2063 87.8699 25.2559L88.9241 25.3675V26.0868C88.0229 26.0289 87.163 26 86.3445 26C85.435 26 84.2443 26.0289 82.7726 26.0868V25.3675L83.8392 25.2807C84.3105 25.2393 84.5792 25.1194 84.6453 24.921C84.7528 24.5985 84.8066 23.1309 84.8066 20.5182V14.1806L84.7942 11.7993L84.757 10.1746C84.757 9.76947 84.7115 9.52142 84.6205 9.43047C84.4882 9.29818 84.2113 9.23203 83.7896 9.23203H82.7726V8.48789C84.4924 8.33079 85.8649 8.00833 86.8902 7.52051L87.101 7.66934ZM93.9848 7.66934C93.8442 10.0919 93.774 12.283 93.774 14.2426V20.6174C93.774 23.1475 93.8277 24.582 93.9352 24.921C93.9931 25.0946 94.2659 25.2063 94.7537 25.2559L95.8079 25.3675V26.0868C94.9067 26.0289 94.0468 26 93.2283 26C92.3187 26 91.1281 26.0289 89.6564 26.0868V25.3675L90.723 25.2807C91.1943 25.2393 91.463 25.1194 91.5291 24.921C91.6366 24.5985 91.6904 23.1309 91.6904 20.5182V14.1806L91.678 11.7993L91.6408 10.1746C91.6408 9.76947 91.5953 9.52142 91.5043 9.43047C91.372 9.29818 91.0951 9.23203 90.6734 9.23203H89.6564V8.48789C91.3762 8.33079 92.7487 8.00833 93.774 7.52051L93.9848 7.66934Z" fill="#66AA4C"></path><path d="M98.2439 8.0168H104.492C105.271 8.0168 105.991 8.10993 106.651 8.2962C107.329 8.48247 107.904 8.76187 108.378 9.1344C108.87 9.49 109.251 9.95567 109.521 10.5314C109.809 11.0902 109.953 11.7506 109.953 12.5126C109.953 13.5455 109.665 14.3922 109.09 15.0526C108.514 15.6961 107.769 16.1702 106.854 16.475V16.5258C107.396 16.5597 107.904 16.7036 108.378 16.9576C108.853 17.1947 109.259 17.5164 109.598 17.9228C109.953 18.3123 110.233 18.7695 110.436 19.2944C110.639 19.8193 110.741 20.3866 110.741 20.9962C110.741 21.809 110.571 22.5287 110.233 23.1552C109.911 23.7648 109.462 24.2813 108.886 24.7046C108.311 25.1279 107.642 25.4497 106.88 25.6698C106.118 25.8899 105.297 26 104.416 26H98.2439V8.0168ZM100.682 15.4844H104.01C104.467 15.4844 104.899 15.4421 105.305 15.3574C105.711 15.2558 106.067 15.0949 106.372 14.8748C106.677 14.6547 106.914 14.3753 107.083 14.0366C107.269 13.6979 107.362 13.2831 107.362 12.792C107.362 12.0808 107.134 11.4627 106.677 10.9378C106.219 10.4129 105.5 10.1504 104.518 10.1504H100.682V15.4844ZM100.682 23.8664H104.264C104.636 23.8664 105.043 23.8325 105.483 23.7648C105.94 23.6801 106.363 23.5277 106.753 23.3076C107.142 23.0705 107.473 22.7573 107.743 22.3678C108.014 21.9783 108.15 21.4619 108.15 20.8184C108.15 19.7516 107.803 18.9557 107.108 18.4308C106.414 17.8889 105.474 17.618 104.289 17.618H100.682V23.8664ZM115.005 19.9802C115.005 20.5898 115.098 21.1571 115.284 21.682C115.471 22.19 115.733 22.6303 116.072 23.0028C116.41 23.3584 116.825 23.6463 117.316 23.8664C117.807 24.0696 118.358 24.1712 118.967 24.1712C119.577 24.1712 120.127 24.0696 120.618 23.8664C121.109 23.6463 121.524 23.3584 121.863 23.0028C122.202 22.6303 122.464 22.19 122.65 21.682C122.837 21.1571 122.93 20.5898 122.93 19.9802C122.93 19.3706 122.837 18.8118 122.65 18.3038C122.464 17.7789 122.202 17.3386 121.863 16.983C121.524 16.6105 121.109 16.3226 120.618 16.1194C120.127 15.8993 119.577 15.7892 118.967 15.7892C118.358 15.7892 117.807 15.8993 117.316 16.1194C116.825 16.3226 116.41 16.6105 116.072 16.983C115.733 17.3386 115.471 17.7789 115.284 18.3038C115.098 18.8118 115.005 19.3706 115.005 19.9802ZM112.566 19.9802C112.566 19.0997 112.727 18.2784 113.049 17.5164C113.388 16.7544 113.845 16.0855 114.421 15.5098C114.996 14.9341 115.674 14.4853 116.453 14.1636C117.232 13.8249 118.07 13.6556 118.967 13.6556C119.865 13.6556 120.703 13.8249 121.482 14.1636C122.261 14.4853 122.938 14.9341 123.514 15.5098C124.09 16.0855 124.538 16.7544 124.86 17.5164C125.199 18.2784 125.368 19.0997 125.368 19.9802C125.368 20.8607 125.199 21.6905 124.86 22.4694C124.538 23.2314 124.09 23.9003 123.514 24.476C122.938 25.0348 122.261 25.4835 121.482 25.8222C120.703 26.1439 119.865 26.3048 118.967 26.3048C118.07 26.3048 117.232 26.1439 116.453 25.8222C115.674 25.4835 114.996 25.0348 114.421 24.476C113.845 23.9003 113.388 23.2314 113.049 22.4694C112.727 21.6905 112.566 20.8607 112.566 19.9802ZM134.176 15.9416H130.899V21.4026C130.899 21.7413 130.907 22.0799 130.924 22.4186C130.941 22.7403 131.001 23.0367 131.102 23.3076C131.221 23.5616 131.39 23.7733 131.61 23.9426C131.847 24.095 132.186 24.1712 132.626 24.1712C132.897 24.1712 133.176 24.1458 133.464 24.095C133.752 24.0442 134.015 23.9511 134.252 23.8156V25.8984C133.981 26.0508 133.625 26.1524 133.185 26.2032C132.762 26.2709 132.431 26.3048 132.194 26.3048C131.314 26.3048 130.628 26.1863 130.137 25.9492C129.663 25.6952 129.307 25.3735 129.07 24.984C128.85 24.5945 128.715 24.1627 128.664 23.6886C128.63 23.1975 128.613 22.7065 128.613 22.2154V15.9416H125.971V13.9604H128.613V10.5822H130.899V13.9604H134.176V15.9416Z" fill="#479455"></path></svg>