<svg width="234" height="128" viewBox="0 0 234 128" fill="none" xmlns="http://www.w3.org/2000/svg">
<path d="M104.156 17.3497C95.5999 17.3497 91.0642 22.0094 74.1584 24.5981C74.1584 24.5981 72.5089 23.4786 67.6639 23.0449C62.819 22.611 60.1387 23.3554 60.1387 23.3554C49.624 21.9057 38.2846 12 31.526 12C27.6671 12.6898 23.7496 20.1453 23.3563 23.9506C24.6775 22.9433 41.1784 20.3409 50.5646 25.9443C59.9506 31.5474 64.2622 42.4085 64.4203 46.7679C64.4203 46.7679 67.4578 34.4351 82.0958 28.4294C96.7338 22.4236 109.826 28.4294 109.826 28.4294C109.826 21.9057 104.156 17.3497 104.156 17.3497ZM63.7603 51.124C63.7349 51.2302 58.4315 64.5695 44.5728 71.0916C30.7144 77.6139 16.0329 72.3733 16.0329 72.3733C16.0329 72.3733 16.1214 81.5502 20.8633 90.2482C25.6053 98.9463 33.7218 103.584 33.7218 103.584C34.0583 102.985 36.4291 99.8783 40.6517 101.034C44.8745 102.19 44.5728 105.263 44.5728 105.677C44.7791 105.366 47.9747 102.571 51.5827 104.02C55.1906 105.47 55.9122 108.369 55.9122 111.476C55.9122 108.369 57.8709 105.159 60.8603 104.435C63.8497 103.71 66.4003 105.127 66.9588 105.471C67.1153 105.416 68.901 100.707 73.8491 101.121C78.7971 101.535 79.7316 106.778 79.7316 107.009C79.7316 107.009 86.2209 106.92 95.9247 96.7199C105.628 86.5195 106.764 77.6398 106.764 77.6398C106.764 77.6398 92.5181 80.3645 79.7316 73.4919C66.9452 66.6194 63.6292 51.5234 63.7603 51.124ZM60.9654 67.57L68.3875 72.1263C68.2843 76.1646 61.1087 84.025 59.5222 86.5195C58.5702 84.3438 53.5432 75.4398 53.3661 71.7766C53.6834 71.4578 59.9585 68.1566 60.9654 67.57Z" fill="black"/>
<path fill-rule="evenodd" clip-rule="evenodd" d="M99.6519 69.47C110.762 66.6936 117.712 56.1338 115.173 45.8842C112.635 35.6345 101.57 29.5763 90.4595 32.3527C79.3489 35.1293 72.3996 45.6889 74.9381 55.9386C77.4763 66.1882 88.5411 72.2466 99.6519 69.47ZM94.6714 50.9351C98.3749 50.0095 100.691 46.4896 99.8453 43.073C98.999 39.6564 95.3108 37.6371 91.6073 38.5627C87.9037 39.488 85.5874 43.0079 86.4335 46.4245C87.2796 49.8411 90.9678 51.8605 94.6714 50.9351Z" fill="black"/>
<path fill-rule="evenodd" clip-rule="evenodd" d="M37.2367 66.707C48.3473 63.9304 55.2966 53.3708 52.7582 43.121C50.2199 32.8715 39.1552 26.8131 28.0444 29.5897C16.9338 32.3661 9.98444 42.9259 12.5229 53.1754C15.0612 63.4252 26.1259 69.4833 37.2367 66.707ZM39.2737 49.6601C42.9772 48.7347 45.2935 45.2147 44.4474 41.7983C43.6014 38.3817 39.9131 36.3623 36.2096 37.2877C32.506 38.2133 30.1895 41.7332 31.0356 45.1498C31.8819 48.5661 35.5702 50.5857 39.2737 49.6601Z" fill="black"/>
<path d="M61.5389 115.165C61.5389 115.165 58.9606 112.032 61.3021 109.372C63.6434 106.713 66.7362 108.871 67.0455 109.198C67.2806 109.446 67.6194 109.716 67.8598 108.871C68.1172 107.966 70.55 105.366 73.9519 106.713C77.3535 108.059 77.3535 111.89 76.5289 113.754C76.1168 114.065 73.9519 115.165 69.2102 115.514C64.4686 115.864 62.0974 115.307 61.5389 115.165Z" fill="black"/>
<path d="M49.5028 115.233C49.5028 115.233 52.0811 112.101 49.7398 109.441C47.3983 106.781 44.3057 108.939 43.9964 109.266C43.7613 109.515 43.4222 109.784 43.1819 108.939C42.9245 108.034 40.4917 105.435 37.09 106.781C33.6881 108.127 33.6881 111.958 34.5128 113.822C34.9249 114.133 37.09 115.233 41.8317 115.583C46.5733 115.932 48.9445 115.376 49.5028 115.233Z" fill="black"/>
<path d="M143.164 38.9988C142.593 39.426 141.885 39.7528 141.04 39.9791C140.22 40.1803 139.351 40.2809 138.431 40.2809C136.047 40.2809 134.196 39.6649 132.879 38.4332C131.587 37.2013 130.941 35.3914 130.941 33.0033V24.6698H127.848V20.1449H130.941V15.2053H136.755V20.1449H141.748V24.6698H136.755V32.9278C136.755 33.7826 136.966 34.4486 137.388 34.9262C137.835 35.3787 138.456 35.605 139.251 35.605C140.171 35.605 140.953 35.3536 141.599 34.8509L143.164 38.9988ZM156.75 19.3906C159.234 19.3906 161.234 20.1449 162.75 21.6531C164.29 23.1614 165.06 25.3988 165.06 28.3651V39.9791H159.247V29.2702C159.247 27.6612 158.899 26.4673 158.204 25.6879C157.508 24.8834 156.502 24.4813 155.185 24.4813C153.719 24.4813 152.552 24.9463 151.682 25.8764C150.812 26.7815 150.378 28.1389 150.378 29.9488V39.9791H144.564V12H150.378V21.8041C151.148 21.0247 152.08 20.434 153.173 20.0317C154.266 19.6045 155.458 19.3906 156.75 19.3906ZM188.324 29.9112C188.324 29.9865 188.286 30.5145 188.212 31.4949H173.045C173.318 32.7517 173.964 33.7449 174.983 34.4739C176.001 35.2029 177.268 35.5672 178.784 35.5672C179.827 35.5672 180.747 35.4165 181.541 35.1149C182.361 34.7881 183.119 34.2854 183.815 33.6066L186.908 37.0001C185.02 39.1873 182.262 40.2809 178.635 40.2809C176.374 40.2809 174.374 39.8408 172.635 38.961C170.896 38.056 169.554 36.8116 168.61 35.2279C167.666 33.6443 167.194 31.8468 167.194 29.8357C167.194 27.8498 167.654 26.0649 168.573 24.4813C169.517 22.8723 170.797 21.628 172.412 20.7482C174.051 19.8432 175.877 19.3906 177.889 19.3906C179.852 19.3906 181.628 19.8181 183.218 20.6727C184.809 21.5274 186.051 22.7593 186.945 24.3681C187.864 25.9519 188.324 27.7996 188.324 29.9112ZM177.927 23.8402C176.61 23.8402 175.505 24.2173 174.61 24.9714C173.716 25.7256 173.169 26.7562 172.97 28.0636H182.846C182.647 26.7815 182.1 25.7634 181.206 25.0091C180.312 24.2297 179.219 23.8402 177.927 23.8402ZM150.655 49.7077V77.6868H145.102V75.349C143.661 77.1088 141.574 77.9885 138.841 77.9885C136.953 77.9885 135.239 77.5611 133.699 76.7064C132.183 75.8518 130.991 74.6325 130.121 73.0489C129.252 71.465 128.817 69.63 128.817 67.5434C128.817 65.4571 129.252 63.6218 130.121 62.0382C130.991 60.4543 132.183 59.2353 133.699 58.3804C135.239 57.5257 136.953 57.0985 138.841 57.0985C141.4 57.0985 143.4 57.9154 144.841 59.5495V49.7077H150.655ZM139.847 73.1619C141.313 73.1619 142.531 72.6592 143.5 71.6535C144.469 70.623 144.953 69.2527 144.953 67.5434C144.953 65.8341 144.469 64.4767 143.5 63.4711C142.531 62.4403 141.313 61.9249 139.847 61.9249C138.357 61.9249 137.127 62.4403 136.158 63.4711C135.189 64.4767 134.705 65.8341 134.705 67.5434C134.705 69.2527 135.189 70.623 136.158 71.6535C137.127 72.6592 138.357 73.1619 139.847 73.1619ZM162.258 57.0985C165.364 57.0985 167.749 57.8526 169.413 59.361C171.078 60.844 171.91 63.094 171.91 66.1105V77.6868H166.469V75.1603C165.376 77.0457 163.339 77.9885 160.358 77.9885C158.818 77.9885 157.476 77.7245 156.333 77.1967C155.215 76.6687 154.358 75.9397 153.762 75.0095C153.166 74.0794 152.868 73.0236 152.868 71.842C152.868 69.9568 153.563 68.4736 154.954 67.3926C156.371 66.3117 158.544 65.7713 161.476 65.7713H166.097C166.097 64.4892 165.712 63.5088 164.942 62.83C164.171 62.1261 163.016 61.7742 161.476 61.7742C160.407 61.7742 159.352 61.9503 158.308 62.302C157.29 62.6288 156.42 63.0814 155.7 63.6596L153.613 59.5495C154.706 58.7701 156.01 58.1668 157.526 57.7394C159.066 57.3121 160.644 57.0985 162.258 57.0985ZM161.811 74.0292C162.805 74.0292 163.687 73.8029 164.457 73.3504C165.227 72.8728 165.774 72.1815 166.097 71.2765V69.2026H162.109C159.724 69.2026 158.532 69.9944 158.532 71.5782C158.532 72.3323 158.818 72.9356 159.389 73.3881C159.985 73.8154 160.793 74.0292 161.811 74.0292ZM187.159 57.0985C189.022 57.0985 190.711 57.5384 192.227 58.4182C193.767 59.273 194.972 60.4921 195.842 62.0759C196.711 63.6343 197.146 65.4571 197.146 67.5434C197.146 69.63 196.711 71.465 195.842 73.0489C194.972 74.6074 193.767 75.8267 192.227 76.7064C190.711 77.5611 189.022 77.9885 187.159 77.9885C184.6 77.9885 182.587 77.1714 181.122 75.5376V85.0021H175.308V57.4001H180.861V59.738C182.302 57.9783 184.401 57.0985 187.159 57.0985ZM186.153 73.1619C187.643 73.1619 188.86 72.6592 189.805 71.6535C190.773 70.623 191.258 69.2527 191.258 67.5434C191.258 65.8341 190.773 64.4767 189.805 63.4711C188.86 62.4403 187.643 61.9249 186.153 61.9249C184.662 61.9249 183.432 62.4403 182.463 63.4711C181.519 64.4767 181.047 65.8341 181.047 67.5434C181.047 69.2527 181.519 70.623 182.463 71.6535C183.432 72.6592 184.662 73.1619 186.153 73.1619ZM211.025 57.0985C212.888 57.0985 214.577 57.5384 216.094 58.4182C217.633 59.273 218.838 60.4921 219.707 62.0759C220.576 63.6343 221.013 65.4571 221.013 67.5434C221.013 69.63 220.576 71.465 219.707 73.0489C218.838 74.6074 217.633 75.8267 216.094 76.7064C214.577 77.5611 212.888 77.9885 211.025 77.9885C208.465 77.9885 206.452 77.1714 204.987 75.5376V85.0021H199.174V57.4001H204.727V59.738C206.167 57.9783 208.266 57.0985 211.025 57.0985ZM210.019 73.1619C211.509 73.1619 212.726 72.6592 213.671 71.6535C214.638 70.623 215.124 69.2527 215.124 67.5434C215.124 65.8341 214.638 64.4767 213.671 63.4711C212.726 62.4403 211.509 61.9249 210.019 61.9249C208.529 61.9249 207.299 62.4403 206.329 63.4711C205.384 64.4767 204.913 65.8341 204.913 67.5434C204.913 69.2527 205.384 70.623 206.329 71.6535C207.299 72.6592 208.529 73.1619 210.019 73.1619ZM130.233 87.4153H136.047V115.394H130.233V87.4153ZM139.579 95.1077H145.392V115.394H139.579V95.1077ZM142.485 92.2797C141.417 92.2797 140.547 91.9655 139.877 91.3369C139.206 90.7085 138.87 89.9294 138.87 88.9992C138.87 88.0691 139.206 87.2899 139.877 86.6613C140.547 86.0327 141.417 85.7187 142.485 85.7187C143.554 85.7187 144.423 86.0202 145.094 86.6235C145.765 87.2268 146.1 87.9811 146.1 88.886C146.1 89.8665 145.765 90.6834 145.094 91.3369C144.423 91.9655 143.554 92.2797 142.485 92.2797ZM155.669 115.696C154.004 115.696 152.377 115.495 150.787 115.093C149.197 114.666 147.93 114.138 146.986 113.509L148.924 109.286C149.818 109.864 150.899 110.342 152.166 110.719C153.433 111.071 154.675 111.247 155.893 111.247C158.352 111.247 159.582 110.631 159.582 109.399C159.582 108.821 159.247 108.406 158.576 108.155C157.905 107.903 156.874 107.69 155.483 107.514C153.843 107.262 152.489 106.973 151.421 106.646C150.353 106.32 149.421 105.741 148.626 104.912C147.856 104.082 147.471 102.901 147.471 101.367C147.471 100.085 147.831 98.954 148.552 97.9735C149.297 96.968 150.365 96.1889 151.756 95.6358C153.172 95.0826 154.837 94.8062 156.75 94.8062C158.166 94.8062 159.57 94.9694 160.961 95.2962C162.377 95.598 163.545 96.0252 164.464 96.5784L162.526 100.764C160.762 99.7583 158.837 99.2556 156.75 99.2556C155.508 99.2556 154.576 99.4317 153.955 99.7836C153.334 100.135 153.023 100.588 153.023 101.141C153.023 101.77 153.359 102.209 154.029 102.461C154.7 102.712 155.768 102.951 157.234 103.177C158.874 103.454 160.216 103.755 161.259 104.082C162.302 104.384 163.209 104.95 163.979 105.779C164.749 106.609 165.135 107.765 165.135 109.248C165.135 110.505 164.762 111.624 164.017 112.604C163.271 113.585 162.178 114.351 160.737 114.904C159.321 115.432 157.632 115.696 155.669 115.696ZM179.789 114.414C179.218 114.842 178.51 115.168 177.665 115.394C176.845 115.596 175.976 115.696 175.056 115.696C172.671 115.696 170.821 115.08 169.504 113.849C168.212 112.617 167.566 110.807 167.566 108.419V100.085H164.473V95.5603H167.566V90.6206H173.38V95.5603H178.373V100.085H173.38V108.343C173.38 109.198 173.591 109.864 174.013 110.342C174.46 110.794 175.081 111.021 175.876 111.021C176.796 111.021 177.578 110.769 178.224 110.266L179.789 114.414ZM183.752 115.696C182.733 115.696 181.876 115.344 181.181 114.64C180.485 113.936 180.137 113.057 180.137 112.001C180.137 110.92 180.485 110.053 181.181 109.399C181.876 108.72 182.733 108.381 183.752 108.381C184.77 108.381 185.627 108.72 186.323 109.399C187.019 110.053 187.367 110.92 187.367 112.001C187.367 113.057 187.019 113.936 186.323 114.64C185.627 115.344 184.77 115.696 183.752 115.696Z" fill="black"/>
</svg>