<svg width="1570" height="687" viewBox="0 0 1570 687" fill="none" xmlns="http://www.w3.org/2000/svg">
<path d="M229.283 261.231C198.2 298.531 157.65 317.181 107.635 317.181C85.0288 317.181 63.977 313.084 44.4793 304.889C24.9817 296.694 8.02718 285.533 -6.38413 271.404C-20.5129 256.993 -31.6746 240.179 -39.8692 220.964C-48.0639 201.749 -52.1612 180.98 -52.1612 158.657C-52.1612 136.333 -48.0639 115.564 -39.8692 96.349C-31.6746 77.1339 -20.5129 60.462 -6.38413 46.3332C8.02718 31.9219 24.9817 20.619 44.4793 12.4243C63.977 4.22962 85.0288 0.132278 107.635 0.132278C132.501 0.132278 153.977 4.3709 172.062 12.8481C190.429 21.3254 207.101 33.6174 222.077 49.7241L175.877 94.6535C167.964 85.6111 158.498 78.1229 147.478 72.1888C136.457 65.9722 123.318 62.8638 108.059 62.8638C94.7776 62.8638 82.3443 65.1245 70.7588 69.6457C59.4558 74.1668 49.5656 80.6661 41.0884 89.1433C32.6112 97.6205 25.9707 107.793 21.1669 119.661C16.3631 131.247 13.9612 144.245 13.9612 158.657C13.9612 173.068 16.3631 186.208 21.1669 198.076C25.9707 209.661 32.6112 219.693 41.0884 228.17C49.5656 236.647 59.4558 243.146 70.7588 247.668C82.3443 252.189 94.7776 254.449 108.059 254.449C124.165 254.449 138.153 251.2 150.021 244.701C161.889 238.201 172.627 228.876 182.234 216.726L229.283 261.231ZM401.176 317.181C378.287 317.181 357.094 313.084 337.596 304.889C318.099 296.694 301.144 285.533 286.733 271.404C272.604 256.993 261.443 240.179 253.248 220.964C245.336 201.749 241.38 180.98 241.38 158.657C241.38 136.333 245.336 115.564 253.248 96.349C261.443 77.1339 272.604 60.462 286.733 46.3332C301.144 31.9219 318.099 20.619 337.596 12.4243C357.094 4.22962 378.287 0.132278 401.176 0.132278C424.064 0.132278 445.257 4.22962 464.755 12.4243C484.253 20.619 501.066 31.9219 515.195 46.3332C529.606 60.462 540.768 77.1339 548.68 96.349C556.874 115.564 560.972 136.333 560.972 158.657C560.972 180.98 556.874 201.749 548.68 220.964C540.768 240.179 529.606 256.993 515.195 271.404C501.066 285.533 484.253 296.694 464.755 304.889C445.257 313.084 424.064 317.181 401.176 317.181ZM401.176 254.449C414.174 254.449 426.325 252.189 437.628 247.668C449.213 243.146 459.245 236.647 467.722 228.17C476.199 219.693 482.84 209.661 487.644 198.076C492.447 186.208 494.849 173.068 494.849 158.657C494.849 144.245 492.447 131.247 487.644 119.661C482.84 107.793 476.199 97.6205 467.722 89.1433C459.245 80.6661 449.213 74.1668 437.628 69.6457C426.325 65.1245 414.174 62.8638 401.176 62.8638C387.895 62.8638 375.603 65.1245 364.3 69.6457C352.997 74.1668 343.107 80.6661 334.629 89.1433C326.152 97.6205 319.512 107.793 314.708 119.661C309.904 131.247 307.502 144.245 307.502 158.657C307.502 173.068 309.904 186.208 314.708 198.076C319.512 209.661 326.152 219.693 334.629 228.17C343.107 236.647 352.997 243.146 364.3 247.668C375.603 252.189 387.895 254.449 401.176 254.449ZM592.39 6.91408H657.665L744.133 155.266H748.372L834.84 6.91408H900.114V310.399H834.84V176.035L839.078 125.172H834.84L765.75 245.972H726.755L657.665 125.172H653.427L657.665 176.035V310.399H592.39V6.91408ZM946.365 6.91408H1012.49V310.399H946.365V6.91408ZM1058.61 6.91408H1134.9L1244.26 194.261H1248.5L1244.26 135.768V6.91408H1309.53V310.399H1240.02L1123.88 112.032H1119.64L1123.88 170.525V310.399H1058.61V6.91408ZM1496.69 141.702H1646.32C1647.16 145.093 1647.87 149.473 1648.44 154.842C1649.28 160.211 1649.71 165.297 1649.71 170.101C1649.71 191.577 1646.6 210.65 1640.38 227.322C1634.17 243.994 1625.12 258.688 1613.26 271.404C1599.69 285.815 1583.3 297.118 1564.09 305.313C1544.87 313.225 1522.97 317.181 1498.39 317.181C1476.35 317.181 1455.44 313.225 1435.66 305.313C1416.16 297.401 1399.06 286.522 1384.37 272.676C1369.68 258.547 1358.09 241.875 1349.61 222.66C1341.14 203.162 1336.9 181.828 1336.9 158.657C1336.9 135.486 1341.14 114.292 1349.61 95.0774C1358.09 75.5797 1369.68 58.9078 1384.37 45.0616C1399.06 30.9329 1416.16 19.9125 1435.66 12.0004C1455.44 4.08832 1476.35 0.132278 1498.39 0.132278C1524.1 0.132278 1546.43 4.51219 1565.36 13.272C1584.57 22.0318 1601.39 34.0412 1615.8 49.3003L1570.87 93.3819C1560.98 83.4918 1550.38 76.0036 1539.08 70.9173C1528.06 65.5483 1514.21 62.8638 1497.54 62.8638C1484.54 62.8638 1472.25 65.2657 1460.67 70.0695C1449.36 74.5907 1439.33 81.0899 1430.57 89.5672C1422.09 97.7618 1415.31 107.793 1410.23 119.661C1405.42 131.247 1403.02 144.245 1403.02 158.657C1403.02 173.068 1405.42 186.208 1410.23 198.076C1415.31 209.661 1422.23 219.693 1430.99 228.17C1439.75 236.365 1449.93 242.864 1461.51 247.668C1473.1 252.189 1485.53 254.449 1498.81 254.449C1524.81 254.449 1545.58 247.526 1561.12 233.68C1565.92 229.442 1570.3 224.214 1574.26 217.997C1578.5 211.498 1581.89 204.434 1584.43 196.804H1496.69V141.702ZM265.681 686.181C237.423 686.181 212.98 678.693 192.352 663.716C172.007 648.457 157.596 626.699 149.119 598.442L211.426 573.858C215.1 588.269 221.175 600.137 229.652 609.462C238.13 618.787 250.139 623.449 265.681 623.449C270.767 623.449 275.571 622.884 280.092 621.754C284.896 620.624 288.993 618.928 292.384 616.668C296.057 614.125 299.024 611.016 301.285 607.343C303.546 603.669 304.676 599.431 304.676 594.627C304.676 589.823 303.687 585.443 301.709 581.487C300.013 577.249 297.046 573.434 292.808 570.043C288.569 566.369 282.918 562.837 275.853 559.446C268.789 555.773 259.888 551.958 249.15 548.002L230.5 541.22C222.588 538.395 214.393 534.58 205.916 529.776C197.721 524.69 190.233 518.614 183.451 511.55C176.67 504.486 171.159 496.432 166.921 487.39C162.682 478.065 160.563 467.751 160.563 456.448C160.563 444.297 162.965 432.853 167.768 422.115C172.572 411.377 179.354 402.194 188.114 394.564C196.874 386.652 207.47 380.435 219.904 375.914C232.337 371.393 246.042 369.132 261.018 369.132C276.842 369.132 290.406 371.252 301.709 375.49C313.012 379.446 322.619 384.674 330.531 391.173C338.444 397.39 344.66 404.454 349.181 412.366C353.985 420.278 357.659 427.908 360.202 435.255L302.98 459.415C299.872 450.373 294.927 443.167 288.145 437.798C281.363 432.146 272.604 429.321 261.866 429.321C250.563 429.321 241.52 431.723 234.739 436.526C228.239 441.048 224.99 446.982 224.99 454.329C224.99 461.958 228.381 468.74 235.163 474.674C241.944 480.608 253.954 486.542 271.191 492.476L289.841 498.834C315.555 507.594 335.477 519.321 349.605 534.015C363.734 548.708 370.798 568.489 370.798 593.355C370.798 609.179 367.549 622.884 361.05 634.47C354.833 646.055 346.638 655.663 336.466 663.293C326.575 670.922 315.272 676.574 302.557 680.247C290.123 684.203 277.831 686.181 265.681 686.181ZM547.946 686.181C525.058 686.181 503.865 682.084 484.367 673.889C464.869 665.694 447.915 654.533 433.503 640.404C419.375 625.993 408.213 609.179 400.018 589.964C392.106 570.749 388.15 549.98 388.15 527.657C388.15 505.333 392.106 484.564 400.018 465.349C408.213 446.134 419.375 429.462 433.503 415.333C447.915 400.922 464.869 389.619 484.367 381.424C503.865 373.23 525.058 369.132 547.946 369.132C570.835 369.132 592.028 373.23 611.525 381.424C631.023 389.619 647.836 400.922 661.965 415.333C676.376 429.462 687.538 446.134 695.45 465.349C703.645 484.564 707.742 505.333 707.742 527.657C707.742 549.98 703.645 570.749 695.45 589.964C687.538 609.179 676.376 625.993 661.965 640.404C647.836 654.533 631.023 665.694 611.525 673.889C592.028 682.084 570.835 686.181 547.946 686.181ZM547.946 623.449C560.945 623.449 573.095 621.189 584.398 616.668C595.984 612.146 606.015 605.647 614.493 597.17C622.97 588.693 629.61 578.661 634.414 567.076C639.218 555.208 641.62 542.068 641.62 527.657C641.62 513.245 639.218 500.247 634.414 488.661C629.61 476.793 622.97 466.621 614.493 458.143C606.015 449.666 595.984 443.167 584.398 438.646C573.095 434.124 560.945 431.864 547.946 431.864C534.665 431.864 522.373 434.124 511.07 438.646C499.767 443.167 489.877 449.666 481.4 458.143C472.923 466.621 466.282 476.793 461.478 488.661C456.675 500.247 454.273 513.245 454.273 527.657C454.273 542.068 456.675 555.208 461.478 567.076C466.282 578.661 472.923 588.693 481.4 597.17C489.877 605.647 499.767 612.146 511.07 616.668C522.373 621.189 534.665 623.449 547.946 623.449ZM879.982 686.181C857.094 686.181 835.901 682.084 816.403 673.889C796.906 665.694 779.951 654.533 765.54 640.404C751.411 625.993 740.249 609.179 732.055 589.964C724.143 570.749 720.186 549.98 720.186 527.657C720.186 505.333 724.143 484.564 732.055 465.349C740.249 446.134 751.411 429.462 765.54 415.333C779.951 400.922 796.906 389.619 816.403 381.424C835.901 373.23 857.094 369.132 879.982 369.132C902.871 369.132 924.064 373.23 943.562 381.424C963.059 389.619 979.873 400.922 994.001 415.333C1008.41 429.462 1019.57 446.134 1027.49 465.349C1035.68 484.564 1039.78 505.333 1039.78 527.657C1039.78 549.98 1035.68 570.749 1027.49 589.964C1019.57 609.179 1008.41 625.993 994.001 640.404C979.873 654.533 963.059 665.694 943.562 673.889C924.064 682.084 902.871 686.181 879.982 686.181ZM879.982 623.449C892.981 623.449 905.132 621.189 916.435 616.668C928.02 612.146 938.052 605.647 946.529 597.17C955.006 588.693 961.647 578.661 966.45 567.076C971.254 555.208 973.656 542.068 973.656 527.657C973.656 513.245 971.254 500.247 966.45 488.661C961.647 476.793 955.006 466.621 946.529 458.143C938.052 449.666 928.02 443.167 916.435 438.646C905.132 434.124 892.981 431.864 879.982 431.864C866.701 431.864 854.409 434.124 843.106 438.646C831.803 443.167 821.913 449.666 813.436 458.143C804.959 466.621 798.318 476.793 793.515 488.661C788.711 500.247 786.309 513.245 786.309 527.657C786.309 542.068 788.711 555.208 793.515 567.076C798.318 578.661 804.959 588.693 813.436 597.17C821.913 605.647 831.803 612.146 843.106 616.668C854.409 621.189 866.701 623.449 879.982 623.449ZM1071.2 375.914H1147.49L1256.85 563.261H1261.09L1256.85 504.768V375.914H1322.12V679.399H1252.61L1136.47 481.032H1132.23L1136.47 539.525V679.399H1071.2V375.914ZM1398.98 681.942C1387.68 681.942 1378.07 677.986 1370.16 670.074C1362.25 662.162 1358.29 652.555 1358.29 641.252C1358.29 629.949 1362.25 620.341 1370.16 612.429C1378.07 604.517 1387.68 600.561 1398.98 600.561C1410.28 600.561 1419.89 604.517 1427.8 612.429C1435.72 620.341 1439.67 629.949 1439.67 641.252C1439.67 652.555 1435.72 662.162 1427.8 670.074C1419.89 677.986 1410.28 681.942 1398.98 681.942ZM1365.92 458.991V375.914H1432.04V458.991L1426.11 570.043H1371.85L1365.92 458.991Z" fill="#2C7BFF" fill-opacity="0.09"/>
</svg>
