<svg width="69" height="69" viewBox="0 0 69 69" fill="none" xmlns="http://www.w3.org/2000/svg">
<rect width="69" height="69" rx="11.129" fill="#F2B3B9"/>
<path d="M49.9626 26.9025L52.1238 24.765C52.571 24.3178 52.8223 23.7112 52.8223 23.0788C52.8223 22.4463 52.571 21.8398 52.1238 21.3925C51.6766 20.9453 51.07 20.6941 50.4376 20.6941C49.8051 20.6941 49.1985 20.9453 48.7513 21.3925L46.6138 23.5538C43.2854 20.9789 39.1963 19.5819 34.9882 19.5819C30.7801 19.5819 26.691 20.9789 23.3626 23.5538L21.2013 21.3688C20.7509 20.9216 20.1414 20.6716 19.5067 20.6738C18.872 20.676 18.2642 20.9303 17.8169 21.3807C17.3697 21.831 17.1197 22.4406 17.1219 23.0753C17.1242 23.71 17.3784 24.3178 17.8288 24.765L20.0138 26.9263C17.4085 30.2455 15.9948 34.3442 16.0001 38.5638C15.9923 41.5929 16.7089 44.58 18.0901 47.2759C19.4713 49.9718 21.4771 52.2984 23.9401 54.0617C26.4032 55.8249 29.2521 56.9737 32.2494 57.4123C35.2466 57.8508 38.3052 57.5664 41.1702 56.5826C44.0352 55.5989 46.6234 53.9445 48.7191 51.7573C50.8147 49.5701 52.3571 46.9135 53.2175 44.0091C54.0778 41.1047 54.2313 38.0367 53.6651 35.061C53.0989 32.0852 51.8295 29.288 49.9626 26.9025ZM35.0001 52.8138C32.1817 52.8138 29.4266 51.978 27.0832 50.4122C24.7398 48.8464 22.9133 46.6209 21.8348 44.017C20.7562 41.4132 20.474 38.548 21.0239 35.7837C21.5737 33.0195 22.9309 30.4804 24.9238 28.4875C26.9167 26.4946 29.4558 25.1374 32.22 24.5876C34.9843 24.0378 37.8495 24.3199 40.4533 25.3985C43.0571 26.477 45.2827 28.3035 46.8485 30.6469C48.4143 32.9903 49.2501 35.7454 49.2501 38.5638C49.2501 42.3431 47.7487 45.9677 45.0763 48.6401C42.4039 51.3125 38.7794 52.8138 35.0001 52.8138ZM30.2501 17.1888H39.7501C40.38 17.1888 40.984 16.9386 41.4294 16.4932C41.8748 16.0478 42.1251 15.4437 42.1251 14.8138C42.1251 14.1839 41.8748 13.5798 41.4294 13.1344C40.984 12.689 40.38 12.4388 39.7501 12.4388H30.2501C29.6202 12.4388 29.0161 12.689 28.5707 13.1344C28.1253 13.5798 27.8751 14.1839 27.8751 14.8138C27.8751 15.4437 28.1253 16.0478 28.5707 16.4932C29.0161 16.9386 29.6202 17.1888 30.2501 17.1888ZM37.3751 31.4388C37.3751 30.8089 37.1248 30.2048 36.6794 29.7594C36.234 29.314 35.63 29.0638 35.0001 29.0638C34.3702 29.0638 33.7661 29.314 33.3207 29.7594C32.8753 30.2048 32.6251 30.8089 32.6251 31.4388V35.9275C32.0873 36.4085 31.7082 37.0415 31.5381 37.7426C31.3679 38.4438 31.4146 39.18 31.6721 39.854C31.9295 40.528 32.3855 41.108 32.9798 41.5171C33.5741 41.9263 34.2786 42.1454 35.0001 42.1454C35.7216 42.1454 36.4261 41.9263 37.0203 41.5171C37.6146 41.108 38.0706 40.528 38.3281 39.854C38.5855 39.18 38.6322 38.4438 38.4621 37.7426C38.2919 37.0415 37.9128 36.4085 37.3751 35.9275V31.4388Z" fill="white"/>
</svg>
