<svg width="55" height="45" viewBox="0 0 55 45" fill="none" xmlns="http://www.w3.org/2000/svg">
<path d="M54.2313 5.35655C52.1985 6.23841 50.0489 6.82137 47.8491 7.0873C50.1699 5.70086 51.909 3.51974 52.7439 0.948542C50.563 2.24678 48.1757 3.16146 45.6857 3.65284C44.0213 1.84792 41.8049 0.646462 39.3841 0.23691C36.9634 -0.172643 34.4751 0.232872 32.3096 1.38986C30.1442 2.54684 28.4239 4.38985 27.4188 6.62983C26.4136 8.86982 26.1803 11.3801 26.7556 13.7669C22.346 13.5439 18.0327 12.3957 14.0958 10.397C10.1589 8.39827 6.68655 5.5937 3.90424 2.16548C2.92836 3.86964 2.41558 5.79958 2.41687 7.76338C2.41341 9.58711 2.86097 11.3834 3.71969 12.9923C4.5784 14.6012 5.82164 15.9728 7.3387 16.985C5.57544 16.9371 3.84984 16.4639 2.3087 15.6058V15.7411C2.32192 18.2963 3.21733 20.7686 4.84348 22.7397C6.46963 24.7108 8.7267 26.0597 11.2329 26.5583C10.2681 26.8519 9.26653 27.0067 8.25816 27.018C7.56016 27.0098 6.86389 26.9465 6.17585 26.8287C6.88954 29.0268 8.27066 30.9477 10.127 32.3243C11.9834 33.7008 14.2227 34.4644 16.5333 34.5089C12.6316 37.579 7.81434 39.2546 2.84956 39.2685C1.94561 39.2714 1.04238 39.2172 0.145264 39.1062C5.21428 42.3791 11.1215 44.1165 17.1553 44.1092C21.3191 44.1524 25.4498 43.3655 29.306 41.7945C33.1623 40.2235 36.6669 37.8998 39.6151 34.9592C42.5632 32.0185 44.8959 28.5199 46.4768 24.6677C48.0577 20.8155 48.8552 16.6868 48.8227 12.5229C48.8227 12.0632 48.8227 11.5764 48.8227 11.0897C50.9447 9.50714 52.7749 7.56711 54.2313 5.35655Z" fill="white"/>
</svg>
